<?xml version="1.0" standalone="no"?>
<!DOCTYPE svg PUBLIC "-//W3C//DTD SVG 1.1//EN" "http://www.w3.org/Graphics/SVG/1.1/DTD/svg11.dtd" >
<svg>
<metadata>
Created by FontForge 20090914 at Thu Jul  5 17:33:16 2018
 By www-data
Typeface &#194;&#169; The Monotype Corporation plc. Data &#194;&#169; The Monotype Corporation plc/Type Solutions Inc. 1990-91-92 All Rights Reserved. Portions &#194;&#169; 1992 Microsoft Corp.
</metadata>
<defs>
<font id="Centaur" horiz-adv-x="1366" >
  <font-face 
    font-family="Centaur"
    font-weight="400"
    font-stretch="normal"
    units-per-em="2048"
    panose-1="2 3 5 4 5 2 5 2 3 4"
    ascent="1638"
    descent="-410"
    x-height="737.001"
    cap-height="1296"
    bbox="-373.001 -574.999 2234 1869"
    underline-thickness="102"
    underline-position="-154"
    unicode-range="U+0020-U+F002"
  />
<missing-glyph horiz-adv-x="1536" 
d="M0 0v1280h1024v-1280h-1024zM32 32h960v1216h-960v-1216z" />
    <glyph glyph-name=".notdef" horiz-adv-x="1536" 
d="M0 0v1280h1024v-1280h-1024zM32 32h960v1216h-960v-1216z" />
    <glyph glyph-name="space" unicode=" " horiz-adv-x="502" 
 />
    <glyph glyph-name="exclam" unicode="!" horiz-adv-x="426" 
d="M229 334l-41 6c6 135.333 9 302 9 500c0 80.667 -1.33301 134.334 -4 161.001c-4 26.667 -13 44 -27 52c-15.333 11.333 -23 19.333 -23 24c0 9.33301 7 15 21 17c12 4 72.667 27 182 69c8 0 12 -4.66699 12 -14c0 -6.66699 -0.666992 -13 -2 -19l-94 -571
c-4 -22.667 -13.667 -90.334 -29 -203.001c-2.66699 -2.66699 -4 -10 -4 -22zM78 90c0 9.33301 8.66602 19.666 25.999 30.999c29.333 15.333 54.666 42.666 75.999 81.999c7.33301 10.667 16.333 16 27 16c11.333 0 20 -5.33301 26 -16s9 -18.334 9 -23.001
c25.333 -34 47 -55.667 65 -65c12 -5.33301 19.167 -9.66602 21.5 -12.999s3.5 -8.66602 3.5 -15.999c0 -10 -5.66699 -18.333 -17 -25c-29.333 -13.333 -55.666 -39 -78.999 -77c-9.33301 -15.333 -19 -23 -29 -23c-11.333 0 -21.666 7 -30.999 21
c-12 22 -22.5 38 -31.5 48s-23.833 20.333 -44.5 31c-9.33301 6.66699 -15.333 11.334 -18 14.001s-4 7.66699 -4 15z" />
    <glyph glyph-name="quotedbl" unicode="&#x22;" horiz-adv-x="897" 
d="M270 696l-43 0.00195312l-53 295c-6.66699 37.333 -12 68.666 -16 93.999s-6 49.333 -6 72c0 82 32 123 96 123c20 0 37.833 -4.66699 53.5 -14s28 -21.833 37 -37.5s13.5 -33.834 13.5 -54.501c0 -28 -6.66699 -78 -20 -150zM666 696.002l-43 0.00195312l-54 295
c-6.66699 37.333 -12 68.666 -16 93.999s-6 49.333 -6 72c0 82 32 123 96 123c20 0 38 -4.66699 54 -14s28.5 -21.833 37.5 -37.5s13.5 -33.834 13.5 -54.501c0 -24.667 -7 -74.667 -21 -150z" />
    <glyph glyph-name="numbersign" unicode="#" 
d="M55 920v94h359l94 444h92l-94 -444h487l92 444h95l-95 -444h228v-94h-246l-90 -435h336v-94h-357l-90 -442h-94l92 442h-489l-88 -442h-97l93 442h-228v94h248l90 435h-338zM885 485l90 435h-490l-90 -435h490z" />
    <glyph glyph-name="dollar" unicode="$" horiz-adv-x="1004" 
d="M477 1376l48.9971 -0.00195312v-94c136.667 0 246.667 -43.667 330 -131c-47.333 -47.333 -78 -94.333 -92 -141l-37 4c2.66699 64 -16.833 115.667 -58.5 155s-89.167 61.333 -142.5 66l-2 -481c90.667 -52 158.334 -93.667 203.001 -125s83.167 -70.166 115.5 -116.499
s48.5 -99.833 48.5 -160.5c0 -50.667 -13.333 -102.334 -40 -155.001s-68.5 -97.667 -125.5 -135s-126.167 -58 -207.5 -62l2 -133c0 -14 -4 -21 -12 -21c-26 0 -38.333 7 -37 21v133c-59.333 4.66699 -119.666 22.834 -180.999 54.501s-130.666 100.167 -207.999 205.5
l108 156l31 -23c-6.66699 -14.667 -10 -33 -10 -55c0 -16 7 -45.167 21 -87.5s40.5 -84.666 79.5 -126.999s92.167 -67.833 159.5 -76.5l2 565l-105 60.5c-44 25.667 -82.167 52.667 -114.5 81s-58.5 61.5 -78.5 99.5s-30 80 -30 126c0 45.333 13.167 90.333 39.5 135
s64.833 82.667 115.5 114s109 49.333 175 54zM474.997 779.998l1.99902 457.003c-75.333 -4.66699 -130.666 -25.334 -165.999 -62.001s-53 -80.334 -53 -131.001c0 -58 19.5 -106.333 58.5 -145s91.833 -78.334 158.5 -119.001zM521.996 586.001l-2 -545.001
c76 6.66699 134.667 26.167 176 58.5s68.833 66.666 82.5 102.999s20.5 65.833 20.5 88.5c0 54.667 -22.667 105.834 -68 153.501s-115 94.834 -209 141.501z" />
    <glyph glyph-name="percent" unicode="%" horiz-adv-x="1665" 
d="M416 1323c52.667 0 101.832 -13.333 147.499 -40s82.334 -64.5 110.001 -113.5s41.5 -104.167 41.5 -165.5c0 -56.667 -12.167 -112.167 -36.5 -166.5s-59.833 -99 -106.5 -134s-102 -52.5 -166 -52.5c-54.667 0 -105.167 12.667 -151.5 38s-83.333 62.5 -111 111.5
s-41.5 107.167 -41.5 174.5c0 66.667 14.167 126.5 42.5 179.5s67 94.333 116 124s100.833 44.5 155.5 44.5zM398.998 1282c-40.667 0 -75 -12.834 -103 -38.501s-48.833 -59.167 -62.5 -100.5s-20.5 -85 -20.5 -131c0 -84.667 19.167 -159.167 57.5 -223.5
s87.5 -96.5 147.5 -96.5c24 0 49.667 7.16699 77 21.5s51.333 41.833 72 82.5s31 96.334 31 167.001c0 81.333 -17 154.833 -51 220.5s-83.333 98.5 -148 98.5zM1278 634.999c54 0 103.999 -13.832 149.999 -41.499s82.667 -66.334 110 -116.001s41 -104.5 41 -164.5
c0 -40.667 -6.66699 -82 -20 -124s-33.666 -80.5 -60.999 -115.5s-60.5 -62.5 -99.5 -82.5s-82.5 -30 -130.5 -30c-52.667 0 -102.5 12.833 -149.5 38.5s-84.333 63 -112 112s-41.5 106.833 -41.5 173.5c0 101.333 30.833 185 92.5 251s135.167 99 220.5 99zM1262 592
c-41.333 0 -75.999 -13.001 -103.999 -39.001s-48.833 -59.167 -62.5 -99.5s-20.5 -84.166 -20.5 -131.499c0 -40.667 5.16699 -80.167 15.5 -118.5s24.666 -72.5 42.999 -102.5s40.333 -53.667 66 -71s53.167 -26 82.5 -26c42 0 82.5 19.5 121.5 58.5
s58.5 109.5 58.5 211.5c0 50 -7.5 99.5 -22.5 148.5s-37.333 89.5 -67 121.5s-66.5 48 -110.5 48zM378.998 -98.001l-35.001 14c34.667 49.333 86.5 128 155.5 236l207.5 331l182.5 302.5l109.5 189.5l72.5 130.5l116.5 207.5l22 35c22.667 0 40.334 0.833008 53.001 2.5
s28 5.5 46 11.5l-273 -439l-229.5 -381l-207.5 -353.5c-68.667 -119 -114 -200.167 -136 -243.5c-34.667 -2 -62.667 -16.333 -84 -43z" />
    <glyph glyph-name="ampersand" unicode="&#x26;" horiz-adv-x="1300" 
d="M1202 897l-4 -33.0029c-30.667 -1.33301 -53.5 -6.33301 -68.5 -15s-29.833 -25.667 -44.5 -51s-36.334 -70 -65.001 -134l-79 -175.5c-19.333 -43 -36.666 -79.5 -51.999 -109.5c-17.333 -30 -27.666 -49 -30.999 -57c18 -47.333 38.333 -90.666 61 -129.999
s46.834 -71 72.501 -95s50.834 -36 75.501 -36c45.333 0 89.666 39.667 132.999 119c15.333 25.333 24.333 39.833 27 43.5s7.33398 5.5 14.001 5.5c4.66699 0 9.33398 -1.83301 14.001 -5.5s7 -8.5 7 -14.5c-10 -36 -34.5 -81.167 -73.5 -135.5s-97.167 -81.5 -174.5 -81.5
c-38 0 -72.167 11.333 -102.5 34s-56 49.667 -77 81s-39.833 63.333 -56.5 96c-38.667 -56 -78.834 -99.833 -120.501 -131.5s-84.5 -53.834 -128.5 -66.501s-90 -19 -138 -19c-72.667 0 -132.834 17.167 -180.501 51.5s-82.667 77.833 -105 130.5
s-33.5 105.334 -33.5 158.001c0 98 27.667 175.833 83 233.5s115.666 103.834 180.999 138.501c-53.333 31.333 -92 68.666 -116 111.999s-36 82.666 -36 117.999c0 57.333 21 106 63 146s86.667 70.333 134 91s76 31 86 31c8 0 20 -4.16699 36 -12.5
s34.333 -19.166 55 -32.499s35.334 -23.666 44.001 -30.999c23.333 -18 41.833 -41.833 55.5 -71.5s20.5 -60.5 20.5 -92.5c0 -30 -3.33301 -51.667 -10 -65s-28 -38 -64 -74c-8.66699 -11.333 -21 -25.166 -37 -41.499l-45 -46.5c50.667 -25.333 90.5 -48.833 119.5 -70.5
s58 -53.167 87 -94.5s61.833 -100.333 98.5 -177c3.33301 7.33301 14 28 32 62s28 53.667 30 59c23.333 42 47.5 98.667 72.5 170s39.833 128 44.5 170c-8.66699 12.667 -18.334 23.5 -29.001 32.5s-30.334 19.833 -59.001 32.5l14 33c35.333 -12 79.5 -22.5 132.5 -31.5
s98.833 -14.833 137.5 -17.5zM467 759.997c34 17.333 62 39.835 84 67.502s33 58.5 33 92.5c0 27.333 -9.5 55.666 -28.5 84.999s-43.333 53.5 -73 72.5s-60.167 28.5 -91.5 28.5c-36 0 -69.167 -16.667 -99.5 -50s-45.5 -63 -45.5 -89c0 -34 19.833 -71.333 59.5 -112
s93.5 -72.334 161.5 -95.001zM385 667.999c-72.667 -49.333 -122.829 -92.498 -150.496 -129.498s-41.5 -83.5 -41.5 -139.5c0 -92.667 19.167 -162.834 57.5 -210.501s78.666 -77.667 120.999 -90s76.833 -18.5 103.5 -18.5c54.667 0 105.167 14.667 151.5 44
s88.166 73.333 125.499 132l-9 18c-23.333 55.333 -45.833 103.5 -67.5 144.5s-45.334 76.667 -71.001 107s-55.834 57.166 -90.501 80.499s-77.667 44 -129 62z" />
    <glyph glyph-name="quotesingle" unicode="'" horiz-adv-x="385" 
d="M211 696h-43l-53 295c-15.333 78 -23 133.333 -23 166c0 82 32 123 96 123c19.333 0 37 -4.5 53 -13.5s28.667 -21.5 38 -37.5s14 -34.333 14 -55c0 -33.333 -7 -83.333 -21 -150z" />
    <glyph glyph-name="parenleft" unicode="(" horiz-adv-x="682" 
d="M631 -520l-30.9961 -50.999c-90 57.333 -167.833 119.5 -233.5 186.5s-121 141.167 -166 222.5s-78.333 168.166 -100 260.499s-32.5 191.833 -32.5 298.5c0 119.333 14 231.333 42 336s66.667 197.167 116 277.5s105.666 150.333 168.999 210s133 111.5 209 155.5
l25 -51c-76 -44.667 -151.333 -104.334 -226 -179.001s-139.334 -174.667 -194.001 -300s-82 -270.666 -82 -435.999c0 -122 14.833 -234 44.5 -336s69.167 -190.167 118.5 -264.5s102.166 -137 158.499 -188s117.166 -98.167 182.499 -141.5z" />
    <glyph glyph-name="parenright" unicode=")" horiz-adv-x="682" 
d="M55 1325l30.999 51c178.667 -112 312 -248 400 -408s132 -346.667 132 -560c0 -123.333 -14 -236 -42 -338s-66.5 -193.5 -115.5 -274.5s-105 -151.333 -168 -211s-133.167 -111.5 -210.5 -155.5l-25 51c76 44.667 151.333 104.5 226 179.5s139.334 175 194.001 300
s82 270.167 82 435.5c0 126.667 -14.667 239.667 -44 339s-68.333 186 -117 260s-102 137.667 -160 191s-119 100 -183 140z" />
    <glyph glyph-name="asterisk" unicode="*" horiz-adv-x="725" 
d="M33 1130l18 33c81.333 -35.333 158 -55 230 -59c30.667 63.333 51.667 139.666 63 228.999h37c6 -56 14.333 -100 25 -132s23.334 -64.333 38.001 -97c68 3.33301 145.333 23 232 59l16 -33c-72.667 -55.333 -127.334 -111.666 -164.001 -168.999
c36 -56.667 90.667 -112.667 164 -168l-16 -33c-83.333 35.333 -160.666 55 -231.999 59c-32 -65.333 -53 -141.666 -63 -228.999h-37c-11.333 89.333 -32.333 165.666 -63 228.999c-75.333 -6 -152 -25.667 -230 -59l-18 33c72 52.667 126.667 108.667 164 168
c-36.667 58.667 -91.334 115 -164.001 169zM233 961c0 -34.667 12.333 -65 37 -91s55.334 -39 92.001 -39c37.333 0 68.333 13 93 39s37 56.333 37 91s-12.333 65.167 -37 91.5s-55.667 39.5 -93 39.5c-36.667 0 -67.334 -13.167 -92.001 -39.5s-37 -56.833 -37 -91.5z" />
    <glyph glyph-name="plus" unicode="+" 
d="M111 651v94h524v529h94v-529h528v-94h-528v-522h-94v522h-524z" />
    <glyph glyph-name="comma" unicode="," horiz-adv-x="406" 
d="M82 -229l-21.0029 31.9971c40.667 26 72.834 50 96.501 72s35.5 50 35.5 84c0 40.667 -19.333 74.667 -58 102c-17.333 14.667 -27.833 24.334 -31.5 29.001s-5.5 13.667 -5.5 27c46.667 24.667 78.334 65.667 95.001 123c9.33301 0 16.666 0.666992 21.999 2
c16.667 -38 40 -64.667 70 -80c16.667 -7.33301 27.334 -12.833 32.001 -16.5s7 -9.16699 7 -16.5c0 -4.66699 -9 -25 -27 -61l-4 -31c-11.333 -71.333 -37.666 -127.666 -78.999 -168.999s-85.333 -73.666 -132 -96.999z" />
    <glyph glyph-name="hyphen" unicode="-" horiz-adv-x="641" 
d="M72 330v108h495v-108h-495z" />
    <glyph glyph-name="hyphen" unicode="&#xad;" horiz-adv-x="641" 
d="M72 330v108h495v-108h-495z" />
    <glyph glyph-name="period" unicode="." horiz-adv-x="406" 
d="M78 90c0 9.33301 8.66602 19.666 25.999 30.999c29.333 15.333 54.666 42.666 75.999 81.999c7.33301 10.667 16.333 16 27 16c11.333 0 20 -5.33301 26 -16s9 -18.334 9 -23.001c25.333 -34 47 -55.667 65 -65c12 -5.33301 19.167 -9.66602 21.5 -12.999
s3.5 -8.66602 3.5 -15.999c0 -10 -5.66699 -18.333 -17 -25c-29.333 -13.333 -55.666 -39 -78.999 -77c-9.33301 -15.333 -19 -23 -29 -23c-11.333 0 -21.666 7 -30.999 21c-12 22 -22.5 38 -31.5 48s-23.833 20.333 -44.5 31c-9.33301 6.66699 -15.333 11.334 -18 14.001
s-4 7.66699 -4 15z" />
    <glyph glyph-name="slash" unicode="/" horiz-adv-x="1087" 
d="M59 -297l875 1817h94l-876 -1817h-93z" />
    <glyph glyph-name="zero" unicode="0" horiz-adv-x="1004" 
d="M53 612c0 141.333 22.501 262.5 67.501 363.5s102.833 177 173.5 228s144 76.5 220 76.5c65.333 0 125.166 -16.167 179.499 -48.5s100.5 -77.5 138.5 -135.5s67.167 -125.333 87.5 -202s30.5 -159.667 30.5 -249c0 -123.333 -18.667 -235 -56 -335
s-91 -178.667 -161 -236s-151.333 -86 -244 -86c-89.333 0 -167.333 29.667 -234 89s-117 136.833 -151 232.5s-51 196.5 -51 302.5zM203.001 705c0 -43.333 2.83105 -99.333 8.49805 -168s18.834 -141.667 39.501 -219s52.667 -143.166 96 -197.499
s100.333 -81.5 171 -81.5c65.333 0 119.333 24.667 162 74s73.5 112.666 92.5 189.999s28.5 160.666 28.5 249.999c0 62.667 -5.33301 143.5 -16 242.5s-34.667 188.833 -72 269.5c-12 26 -26.833 50.833 -44.5 74.5s-41.834 44.834 -72.501 63.501s-64.667 28 -102 28
c-29.333 0 -59.666 -6.5 -90.999 -19.5s-62.666 -38.667 -93.999 -77s-56.833 -92.5 -76.5 -162.5s-29.5 -159 -29.5 -267z" />
    <glyph glyph-name="one" unicode="1" horiz-adv-x="1004" 
d="M215 -10l-2 42.998c47.333 0 88.166 6.16699 122.499 18.5s56.833 36.833 67.5 73.5c8.66699 28.667 15.5 88.5 20.5 179.5s8.33301 184.5 10 280.5s2.5 187.667 2.5 275c0 154.667 -3.33301 245.667 -10 273c-6 27.333 -26.167 44.333 -60.5 51s-83.166 10 -146.499 10
l-2 39c95.333 2 174.833 5.66699 238.5 11s115.167 11.333 154.5 18s84.333 15.334 135 26.001l11 -39l-70 -16c-40 -8.66699 -65.833 -23.167 -77.5 -43.5s-19.834 -52.166 -24.501 -95.499c-6.66699 -66.667 -11.5 -132.5 -14.5 -197.5s-4.83301 -126.833 -5.5 -185.5
s-1 -132.667 -1 -222c0 -248 11 -385 33 -411c10 -10 27.667 -18.5 53 -25.5s74 -13.5 146 -19.5l-2 -41c-93.333 5.33301 -159.666 8 -198.999 8c-148.667 0 -275 -3.33301 -379 -10z" />
    <glyph glyph-name="two" unicode="2" horiz-adv-x="1004" 
d="M651 0l-474.997 0.00292969c-40.667 0 -87 -3.33301 -139 -10c-5.33301 10.667 -9.33301 18 -12 22l145 150c340 343.333 510 597.333 510 762c0 76 -24.167 135.833 -72.5 179.5s-108.166 65.5 -179.499 65.5c-104 0 -190.667 -37.333 -260 -112l-37 30
c33.333 36.667 65.166 68.167 95.499 94.5s69.333 50 117 71s100.5 31.5 158.5 31.5c58.667 0 112.667 -12.5 162 -37.5s88.166 -61 116.499 -108s42.5 -100.833 42.5 -161.5c0 -62 -12.833 -120.833 -38.5 -176.5s-63.167 -113.334 -112.5 -173.001
s-114.333 -131.5 -195 -215.5l-166 -176c-2 -3.33301 -7.66699 -9.83301 -17 -19.5l-28 -30.5l-55 -59l315 -2c84.667 0 142.167 1.16699 172.5 3.5s58.666 9.16602 84.999 20.499s50.166 29.666 71.499 54.999s45.666 63 72.999 113l37 -20l-113 -207l-23 -42.5
l-26.5 -51.5l-24.5 -47l-30 2c-7.33301 20 -18.166 33.167 -32.499 39.5s-35.833 9.5 -64.5 9.5z" />
    <glyph glyph-name="three" unicode="3" horiz-adv-x="1004" 
d="M205 1096l-29.001 33.998c116.667 100 228 150 334 150c50.667 0 96.834 -9.5 138.501 -28.5s74 -45.833 97 -80.5s34.5 -75.334 34.5 -122.001c0 -98.667 -53 -197 -159 -295c73.333 -46.667 133.5 -96.167 180.5 -148.5s70.5 -121.166 70.5 -206.499
c0 -64 -18.167 -128.167 -54.5 -192.5s-88.5 -117.166 -156.5 -158.499s-147 -62 -237 -62c-62 0 -124.333 13.667 -187 41s-116.334 71.666 -161.001 132.999l98 166l39 -23c-16.667 -26 -25 -45 -25 -57c0 -20 16 -46.667 48 -80s71.833 -62.5 119.5 -87.5
s94.5 -37.5 140.5 -37.5c44.667 0 87.5 12.333 128.5 37s73.5 58 97.5 100s36 87.667 36 137c0 53.333 -11.833 100.333 -35.5 141s-52 74.5 -85 101.5s-78.833 59.5 -137.5 97.5l-64 -47l-26 37c74.667 58.667 133.5 113.334 176.5 164.001s64.5 107.334 64.5 170.001
c0 58.667 -21.167 108.5 -63.5 149.5s-94.166 61.5 -155.499 61.5c-70 0 -145.667 -31.333 -227 -94z" />
    <glyph glyph-name="four" unicode="4" horiz-adv-x="1004" 
d="M391 -12l-0.00195312 46.999c47.333 0 82.833 2.83301 106.5 8.5s41 17.334 52 35.001s18.333 44.334 22 80.001s6.5 90.834 8.5 165.501l2 69h-226c-25.333 0 -61 -1.16699 -107 -3.5s-87.833 -4.33301 -125.5 -6s-68.5 -3.16699 -92.5 -4.5
c-2 5.33301 -5.66699 11.333 -11 18l199.5 250.5l162.5 210.5c52.667 70 103.834 141.5 153.501 214.5s96.5 147.5 140.5 223.5c14 2.66699 30.333 7.66699 49 15c-2 -34 -3.83301 -112.5 -5.5 -235.5s-2.5 -216.5 -2.5 -280.5l-2 -316l110 2c24 0 45.167 3.5 63.5 10.5
s38.833 22.833 61.5 47.5l29 -13l-68 -143c-42.667 4 -108 6 -196 6c0 -90 0.833008 -154 2.5 -192s6 -68.333 13 -91s17.833 -38.834 32.5 -48.501s38.334 -17.834 71.001 -24.501v-35c-24.667 1.33301 -67.667 2 -129 2c-127.333 0 -232 -4 -314 -12zM585.998 1059
c-28.667 -45.333 -59.999 -90.333 -93.999 -135l-120.5 -161.5l-49.5 -66.5l-170 -217c142.667 -1.33301 286.667 -1.33301 432 0l4 176c1.33301 63.333 0.666016 198 -2.00098 404z" />
    <glyph glyph-name="five" unicode="5" horiz-adv-x="1004" 
d="M147 326l31.001 -8.99902c-1.33301 -5.33301 -2 -16 -2 -32c0 -47.333 19.167 -89 57.5 -125s84.666 -63.167 138.999 -81.5s102.166 -27.5 143.499 -27.5c53.333 0 98 17.833 134 53.5s63 77.5 81 125.5s27 89.333 27 124c0 53.333 -14 104.333 -42 153
s-67.833 92.834 -119.5 132.501s-110.834 71.167 -177.501 94.5s-136.667 36 -210 38c7.33301 44.667 24.333 102 51 172l119 318h350c38 0 65.5 2.16699 82.5 6.5s34.5 17.166 52.5 38.499h43l-104 -170c-8 0 -33 0.666992 -75 2s-66.333 2 -73 2l-84 2
c-62.667 1.33301 -107.667 -1.83398 -135 -9.50098s-50.5 -27 -69.5 -58s-41.5 -87.167 -67.5 -168.5c150.667 -32.667 269.834 -78.334 357.501 -137.001s147.334 -119.167 179.001 -181.5s47.5 -120.5 47.5 -174.5c0 -70.667 -19 -139.667 -57 -207
s-91.667 -121.666 -161 -162.999s-148.333 -62 -237 -62c-78.667 0 -143.5 13.333 -194.5 40s-98.833 61.667 -143.5 105c20 46 39 112.333 57 199z" />
    <glyph glyph-name="six" unicode="6" horiz-adv-x="1004" 
d="M793 1317l13.998 -37.002c-105.333 -41.333 -193.833 -92.666 -265.5 -153.999s-128.167 -126.333 -169.5 -195s-70.666 -138 -87.999 -208s-26 -136.333 -26 -199c0 -106 16.333 -196.667 49 -272s73.5 -131.333 122.5 -168s96.167 -55 141.5 -55
c40.667 0 78.5 11.333 113.5 34s62.833 56.167 83.5 100.5s31 96.166 31 155.499c0 66.667 -12.5 128.667 -37.5 186s-58.667 103.5 -101 138.5s-87.166 52.5 -134.499 52.5c-50 0 -110 -26.667 -180 -80l2 46c71.333 48.667 121 79.5 149 92.5s63.667 19.5 107 19.5
c55.333 0 107.666 -16.833 156.999 -50.5s88.833 -78.834 118.5 -135.501s44.5 -116 44.5 -178c0 -69.333 -16.833 -137 -50.5 -203s-80.667 -119.333 -141 -160s-127.166 -61 -200.499 -61c-53.333 0 -105 11.667 -155 35s-94.667 57.333 -134 102
s-70.5 98.334 -93.5 161.001s-34.5 130.334 -34.5 203.001c0 76.667 10.5 154.5 31.5 233.5s57.333 156.667 109 233s122.167 146.333 211.5 210s198 114.834 326 153.501z" />
    <glyph glyph-name="seven" unicode="7" horiz-adv-x="1004" 
d="M119 1024l-40.999 2.00195c52.667 115.333 85.334 191 98.001 227c12 32.667 19.167 51.167 21.5 55.5s6.16602 6.5 11.499 6.5c6.66699 0 11.334 -4 14.001 -12c8.66699 -16 18.334 -25.833 29.001 -29.5s29.667 -5.5 57 -5.5c11.333 0 44 0.666992 98 2s85 2 93 2
c36 0 71.167 -0.166992 105.5 -0.5s71.5 -0.833008 111.5 -1.5c103.333 0 181.666 5.33301 234.999 16l13 -22c-58.667 -94.667 -114.667 -193.167 -168 -295.5s-104.5 -207.833 -153.5 -316.5s-94 -213.667 -135 -315l-139.5 -360c-12 3.33301 -22.333 5 -31 5
c-5.33301 0 -16.5 -2.83301 -33.5 -8.5s-26.5 -9.16699 -28.5 -10.5s-6.66699 -2 -14 -2c-13.333 0 -20 6.33301 -20 19c0 7.33301 12.833 35.333 38.5 84s39.5 75.667 41.5 81l98.5 192.5l114.5 233.5l73 154l152 324c1.33301 3.33301 5.66602 12.666 12.999 27.999
s16 34.666 26 57.999c-20.667 2.66699 -52 5.16699 -94 7.5s-84.333 4 -127 5s-80.334 1.5 -113.001 1.5c-69.333 0 -125 -2.33301 -167 -7s-84.667 -12.667 -128 -24z" />
    <glyph glyph-name="eight" unicode="8" horiz-adv-x="1004" 
d="M418 666c-92 51.333 -157.334 102.996 -196.001 154.996s-58 109.333 -58 172c0 52 13.167 100.833 39.5 146.5s64.833 82.167 115.5 109.5s109.667 41 177 41c68 0 127.5 -13.167 178.5 -39.5s90.333 -60.666 118 -102.999s41.5 -86.166 41.5 -131.499
c0 -50.667 -13.5 -95.667 -40.5 -135s-56.667 -70.666 -89 -93.999s-64.5 -43.333 -96.5 -60c59.333 -32 109.5 -63 150.5 -93s77 -69.833 108 -119.5s46.5 -109.167 46.5 -178.5c0 -61.333 -17.333 -118.833 -52 -172.5s-83.5 -96.667 -146.5 -129
s-135.833 -48.5 -218.5 -48.5c-73.333 0 -141.166 14.167 -203.499 42.5s-111.333 67 -147 116s-53.5 101.167 -53.5 156.5c0 146.667 108.667 268.334 326 365.001zM568.999 747.996c92 73.333 138 151.668 138 235.001c0 41.333 -9 81.833 -27 121.5s-45 73 -81 100
s-80 40.5 -132 40.5c-40.667 0 -78.167 -8.33301 -112.5 -25s-61.333 -39.334 -81 -68.001s-29.5 -60.334 -29.5 -95.001c0 -57.333 20.5 -104.666 61.5 -141.999s96.833 -76 167.5 -116c49.333 -25.333 81.333 -42.333 96 -51zM460.999 642.998
c-61.333 -33.333 -114.667 -71.832 -160 -115.499s-68 -101.5 -68 -173.5c0 -56.667 16.667 -109.334 50 -158.001s74.833 -87.667 124.5 -117s96.167 -44 139.5 -44c44.667 0 84.834 10.5 120.501 31.5s64 50.333 85 88s31.5 80.5 31.5 128.5c0 146.667 -99 262 -297 346
c-14.667 7.33301 -23.334 12 -26.001 14z" />
    <glyph glyph-name="nine" unicode="9" horiz-adv-x="1004" 
d="M211 -43l-16.002 37.002c136 53.333 245.5 124.166 328.5 212.499s140.667 179.333 173 273s48.5 183.834 48.5 270.501c0 83.333 -10.167 156.833 -30.5 220.5s-46.166 115.167 -77.499 154.5s-65.166 69.166 -101.499 89.499s-70.833 30.5 -103.5 30.5
c-41.333 0 -79.666 -11.667 -114.999 -35s-63.166 -56.833 -83.499 -100.5s-30.5 -94.834 -30.5 -153.501c0 -66 12.5 -128.167 37.5 -186.5s58.833 -104.833 101.5 -139.5s87 -52 133 -52c31.333 0 63.666 8.83301 96.999 26.5s61 35.167 83 52.5v-45
c-46.667 -30.667 -83.334 -54 -110.001 -70s-50.667 -27 -72 -33s-46 -9 -74 -9c-55.333 0 -107.666 16.833 -156.999 50.5s-88.666 78.334 -117.999 134.001s-44 115.5 -44 179.5c0 69.333 16.833 137 50.5 203s80.5 119.333 140.5 160s126 61 198 61
c54 0 106.667 -11.833 158 -35.5s96.333 -57.167 135 -100.5s69.5 -96.5 92.5 -159.5s34.5 -131.833 34.5 -206.5c0 -52.667 -6 -110.334 -18 -173.001s-35 -129.667 -69 -201s-81.667 -137 -143 -197c-36 -36.667 -76.333 -70.667 -121 -102s-85.334 -56 -122.001 -74
s-74.334 -34.167 -113.001 -48.5z" />
    <glyph glyph-name="colon" unicode=":" horiz-adv-x="406" 
d="M76 672c0 8.66699 8.66602 18.667 25.999 30c28.667 16 54 43.333 76 82c6.66699 11.333 15.667 17 27 17s20 -5.33301 26 -16s9 -18.334 9 -23.001c25.333 -33.333 47 -55.333 65 -66c12.667 -6 20 -10.333 22 -13s3 -7.66699 3 -15c0 -10.667 -5.66699 -19 -17 -25
c-29.333 -13.333 -56 -39.333 -80 -78c-8.66699 -14.667 -18 -22 -28 -22c-11.333 0 -21.666 6.66699 -30.999 20c-12 21.333 -22.5 37.333 -31.5 48s-23.833 21.334 -44.5 32.001c-8 4.66699 -13.667 8.66699 -17 12s-5 9 -5 17zM77.999 90
c0 9.33301 8.66602 19.666 25.999 30.999c29.333 15.333 54.666 42.666 75.999 81.999c7.33301 10.667 16.333 16 27 16c11.333 0 20 -5.33301 26 -16s9 -18.334 9 -23.001c25.333 -34 47 -55.667 65 -65c12 -5.33301 19.167 -9.66602 21.5 -12.999
s3.5 -8.66602 3.5 -15.999c0 -10 -5.66699 -18.333 -17 -25c-29.333 -13.333 -55.666 -39 -78.999 -77c-9.33301 -15.333 -19 -23 -29 -23c-11.333 0 -21.666 7 -30.999 21c-12 22 -22.5 38 -31.5 48s-23.833 20.333 -44.5 31c-9.33301 6.66699 -15.333 11.334 -18 14.001
s-4 7.66699 -4 15z" />
    <glyph glyph-name="semicolon" unicode=";" horiz-adv-x="426" 
d="M213 207l25 0.000976562c11.333 -26.667 18 -41.667 20 -45c32.667 -59.333 49 -110 49 -152c0 -62 -18.167 -115 -54.5 -159s-81.5 -83 -135.5 -117l-25 33c31.333 22 58.666 46.5 81.999 73.5s35 58.167 35 93.5c0 33.333 -9.33301 55.666 -28 66.999
s-42.667 19.333 -72 24c-19.333 5.33301 -29 14 -29 26c0 6 4.66699 13.667 14 23c24.667 15.333 47.834 33.5 69.501 54.5s38.167 47.167 49.5 78.5zM115 668.001c0 8.66699 8.66602 18.668 25.999 30.001c28.667 16 54 43.333 76 82c7.33301 11.333 16.333 17 27 17
c11.333 0 20 -5.33301 26 -16s9 -18.334 9 -23.001c25.333 -33.333 47 -55.333 65 -66c12.667 -6 20 -10.333 22 -13s3 -7.66699 3 -15c0 -10.667 -5.66699 -19 -17 -25c-14.667 -6.66699 -27.667 -15 -39 -25s-25 -27.667 -41 -53c-8.66699 -14.667 -18 -22 -28 -22
c-11.333 0 -21.666 6.66699 -30.999 20c-12 22 -23.333 38.5 -34 49.5s-24.667 21.167 -42 30.5c-8 4.66699 -13.667 8.66699 -17 12s-5 9 -5 17z" />
    <glyph glyph-name="less" unicode="&#x3c;" 
d="M1255 276v-102l-1142 485v84l1142 484v-103l-1019 -422z" />
    <glyph glyph-name="equal" unicode="=" 
d="M111 905v94h1146v-94h-1146zM111 410v94h1146v-94h-1146z" />
    <glyph glyph-name="greater" unicode="&#x3e;" 
d="M111 1124v103l1142 -486v-84l-1142 -483v102l1019 422z" />
    <glyph glyph-name="question" unicode="?" horiz-adv-x="575" 
d="M104 1202l28.999 2c10.667 -40.667 22.5 -65.667 35.5 -75s36.833 -16.333 71.5 -21c63.333 -8 124 -37.333 182 -88c57.333 -50.667 86 -125 86 -223c0 -68.667 -13.667 -132.167 -41 -190.5s-68.333 -103.5 -123 -135.5c-29.333 -17.333 -47.833 -31.5 -55.5 -42.5
s-13.834 -37.833 -18.501 -80.5c-1.33301 -17.333 -2.83301 -27.833 -4.5 -31.5s-6.83398 -5.5 -15.501 -5.5c-14 0 -21 9 -21 27l11 176c0.666992 20.667 5.83398 33.834 15.501 39.501s35.834 12.834 78.501 21.501c37.333 7.33301 64.333 18.666 81 33.999
s26.834 33.666 30.501 54.999s5.5 53.333 5.5 96c0 44 -8.33301 80.833 -25 110.5s-46 54 -88 73s-97.333 32.167 -166 39.5c-28 3.33301 -49.333 7.5 -64 12.5s-22 15.833 -22 32.5c10.667 49.333 16.667 79.333 18 90c0.666992 4 1 15.667 1 35
c0 18.667 -0.333008 35 -1 49zM112.999 94c0 9.33301 8.66699 19.666 26 30.999c29.333 15.333 54.666 42.666 75.999 81.999c7.33301 10.667 16.333 16 27 16c11.333 0 19.833 -5.16699 25.5 -15.5s8.5 -18.166 8.5 -23.499c26 -34 48 -55.667 66 -65
c12 -5.33301 19.167 -9.66602 21.5 -12.999s3.5 -8.66602 3.5 -15.999c0 -10 -5.66699 -18 -17 -24c-14.667 -6.66699 -27.667 -15 -39 -25s-25 -27.667 -41 -53c-8 -15.333 -17.333 -23 -28 -23c-11.333 0 -21.666 7 -30.999 21c-12 22 -23.333 38.5 -34 49.5
s-24.667 21.167 -42 30.5c-8 4.66699 -13.667 8.66699 -17 12s-5 8.66602 -5 15.999z" />
    <glyph glyph-name="at" unicode="@" horiz-adv-x="2005" 
d="M1335 999l167.999 22.998l-125 -426c-0.666992 -3.33301 -3.5 -14.166 -8.5 -32.499l-13.5 -51.5c-30 -107.333 -50.167 -181.5 -60.5 -222.5s-15.5 -74.167 -15.5 -99.5c0 -16 6.5 -33.167 19.5 -51.5s33.167 -27.5 60.5 -27.5c50.667 0 102.5 17.667 155.5 53
s102.333 85.833 148 151.5s81.834 140.334 108.501 224.001s40 172.167 40 265.5c0 94 -16.5 181.333 -49.5 262s-79.833 150.334 -140.5 209.001s-133.667 104.334 -219 137.001s-179.666 49 -282.999 49c-136 0 -261.167 -28.333 -375.5 -85s-211.5 -133.667 -291.5 -231
s-141.333 -207.166 -184 -329.499s-64 -245.833 -64 -370.5c0 -126.667 20.667 -242.334 62 -347.001s100.166 -195.334 176.499 -272.001s165.166 -135 266.499 -175s211.333 -60 330 -60c76.667 0 155 9.83301 235 29.5s158.833 52.667 236.5 99
s149.834 108.166 216.501 185.499s123.334 170 170.001 278h62c-34 -106 -83.167 -200.167 -147.5 -282.5s-139 -151.333 -224 -207s-174.667 -97.167 -269 -124.5s-189.5 -41 -285.5 -41c-128 0 -248.5 22.667 -361.5 68s-212.667 111.333 -299 198
s-152.833 188 -199.5 304s-70 241.333 -70 376c0 148 26.5 286.167 79.5 414.5s126 239.166 219 332.499s200.833 166 323.5 218s252 78 388 78c126 0 237.5 -20.167 334.5 -60.5s176.833 -94.833 239.5 -163.5s109.667 -146.667 141 -234s47 -178.666 47 -273.999
c0 -85.333 -12.833 -172 -38.5 -260s-63.5 -169.333 -113.5 -244s-112.333 -134.834 -187 -180.501s-158.334 -68.5 -251.001 -68.5c-54 0 -94.5 12.333 -121.5 37s-40.5 61.334 -40.5 110.001c0 33.333 6.33301 84 19 152l-4 4c-47.333 -58.667 -90 -107.667 -128 -147
s-82.5 -75.166 -133.5 -107.499s-102.5 -48.5 -154.5 -48.5c-41.333 0 -77 13 -107 39s-52.167 58.5 -66.5 97.5s-21.5 76.167 -21.5 111.5c0 106.667 31.833 218.667 95.5 336s142.167 215.166 235.5 293.499s179 117.5 257 117.5c50.667 0 91.167 -12 121.5 -36
s50.5 -60.333 60.5 -109h5zM1128 978.998c-64 0 -129.167 -40.834 -195.5 -122.501s-122 -177.167 -167 -286.5s-67.5 -195 -67.5 -257c0 -38 11.5 -72.667 34.5 -104s52.5 -47 88.5 -47c58.667 0 123 32.833 193 98.5s128.833 150.334 176.5 254.001
s71.5 207.167 71.5 310.5c0 43.333 -11.667 79.833 -35 109.5s-56.333 44.5 -99 44.5z" />
    <glyph glyph-name="A" unicode="A" horiz-adv-x="1280" 
d="M864 -4l-0.00195312 32.9971c30.667 5.33301 55.167 12.333 73.5 21s27.5 23.334 27.5 44.001c0 19.333 -6 47.333 -18 84s-21 62 -27 76l-74 201c-38.667 5.33301 -101.667 8 -189 8h-79c-79.333 2.66699 -149 -1.33301 -209 -12l-74 -185
c-32.667 -77.333 -49 -125.666 -49 -144.999c0 -23.333 10.5 -42.833 31.5 -58.5s63.833 -28.167 128.5 -37.5v-33c-78 9.33301 -144.333 14 -199 14c-56 0 -116.667 -2.66699 -182 -8v29c40 10 70.667 25.667 92 47c16 14 37.167 47.167 63.5 99.5s53 109.333 80 171
s46.5 109.834 58.5 144.501l160 383l61.5 144.5c21 50.333 40.833 100.833 59.5 151.5s32.334 91.334 41.001 122.001c0 8.66699 2 15 6 19l33 2c20.667 -74 43.334 -145 68.001 -213l210 -563l122.5 -311.5c27.667 -67 51.834 -114.833 72.501 -143.5
c17.333 -24.667 53 -39.667 107 -45v-35c-54.667 5.33301 -107.334 8 -158.001 8c-40 0 -77.167 -1 -111.5 -3s-61.5 -3.83301 -81.5 -5.5s-35 -2.83398 -45 -3.50098zM546.998 896.997l-113.001 -291c-15.333 -41.333 -25.666 -67.333 -30.999 -78
c50.667 -8 109 -12 175 -12l92 2c55.333 0 105 1.33301 149 4c-23.333 68 -38.333 108.333 -45 121l-72 184l-45.5 109c-22.333 52.667 -38.5 88.667 -48.5 108c-12.667 -28 -23.5 -53.5 -32.5 -76.5z" />
    <glyph glyph-name="B" unicode="B" horiz-adv-x="1044" 
d="M612 707c94.667 -17.333 170.832 -45.667 228.499 -85s97.834 -82.833 120.501 -130.5s34 -98.167 34 -151.5c0 -146.667 -54 -241 -162 -283s-218.333 -63 -331 -63c-10.667 0 -30 0.5 -58 1.5s-56.167 1.83301 -84.5 2.5l-65 1.5c-15 0.333008 -31.833 0.5 -50.5 0.5
c-40 -0 -105 -2.66699 -195 -8v37c26.667 2.66699 48 6.16699 64 10.5s30 12.166 42 23.499s19.667 26.666 23 45.999c6.66699 28.667 11.834 88.334 15.501 179.001s6.16699 182.834 7.5 276.501s2 166.167 2 217.5c0 55.333 -0.666992 109 -2 161s-4.83301 103 -10.5 153
s-13.167 83.333 -22.5 100c-9.33301 18.667 -23.333 32 -42 40s-43.667 14.333 -75 19v39c70.667 -5.33301 133 -8 187 -8c12.667 0 59 2.66699 139 8c85.333 6 130.333 9 135 9c64.667 0 123.667 -12 177 -36s96.166 -59.833 128.499 -107.5s48.5 -103.167 48.5 -166.5
c0 -67.333 -20.667 -125.5 -62 -174.5s-105.333 -86.167 -192 -111.5zM329.998 837.999l0.000976562 -123c14.667 1.33301 31.667 2 51 2c60 1.33301 112.667 6.66602 158 15.999s85.666 32.333 120.999 69s53 93 53 169c0 60 -12.5 111 -37.5 153s-58.5 74 -100.5 96
s-87 33 -135 33c-46 0 -74 -5.33301 -84 -16c-8.66699 -7.33301 -15.167 -58.166 -19.5 -152.499s-6.5 -176.5 -6.5 -246.5zM329.999 667.999v-391.999c0 -68 1.33301 -116 4 -144s9 -48.833 19 -62.5s25 -21.834 45 -24.501s55.333 -4 106 -4c54 0 106.167 8.5 156.5 25.5
s92.833 46.833 127.5 89.5s52 100 52 172c0 40 -7.66699 81 -23 123s-38.333 79.5 -69 112.5s-71.167 60 -121.5 81s-108.833 31.5 -175.5 31.5c-16 0 -35.167 -0.666992 -57.5 -2s-43.5 -3.33301 -63.5 -6z" />
    <glyph glyph-name="C" unicode="C" horiz-adv-x="1280" 
d="M1204 201c-3.33301 -8.66699 -17.666 -58 -42.999 -148c-72 -21.333 -137.333 -37.833 -196 -49.5s-122.334 -17.5 -191.001 -17.5c-82.667 0 -165.334 14.667 -248.001 44s-157 72.833 -223 130.5s-118.333 128 -157 211s-58 177.5 -58 283.5
c0 145.333 35.833 268 107.5 368s163 173.667 274 221s225.5 71 343.5 71c92.667 0 182 -16.333 268 -49c40 -12.667 70 -19 90 -19c9.33301 2 16.166 3.33301 20.499 4s9.83301 1.33398 16.5 2.00098c4 0 8.33301 -2.66699 13 -8l-15 -57
c-14 -50 -26.333 -113.667 -37 -191c-12 2 -20 6.16699 -24 12.5s-6 16.5 -6 30.5c-1.33301 42 -7 70.667 -17 86c-18 29.333 -63 59.333 -135 90s-144.333 46 -217 46c-96 0 -182.833 -23.833 -260.5 -71.5s-139 -117.5 -184 -209.5s-67.5 -200 -67.5 -324
c0 -114 19.833 -212.167 59.5 -294.5s89.334 -147.5 149.001 -195.5s120.334 -82.667 182.001 -104s115.167 -32 160.5 -32c72 0 131.667 11.833 179 35.5s84.5 52 111.5 85s53.167 72.5 78.5 118.5c10 19.333 18.667 29 26 29c12.667 0 19 -6 19 -18
c0 -8.66699 -6.33301 -35.334 -19 -80.001z" />
    <glyph glyph-name="D" unicode="D" horiz-adv-x="1473" 
d="M51 1239l-2.00195 37.001c178.667 0 329 7.33301 451 22c45.333 6 92.333 9 141 9c99.333 0 194.333 -14.833 285 -44.5s171.334 -72.5 242.001 -128.5s126.167 -124.167 166.5 -204.5s60.5 -170.5 60.5 -270.5c0 -121.333 -31.167 -232 -93.5 -332
s-151.333 -178.833 -267 -236.5s-247.5 -86.5 -395.5 -86.5c-8.66699 0 -35 0.666992 -79 2s-69.667 2 -77 2c-26 0 -49.167 -0.166992 -69.5 -0.5l-89 -1.5c-39 -0.666992 -76.333 -1.5 -112 -2.5s-60.167 -1.5 -73.5 -1.5l-98 2v37c71.333 0 114.333 15.667 129 47
c16.667 36.667 25 202.667 25 498c0 196 -2.33301 342.167 -7 438.5s-14 156.166 -28 179.499c-17.333 25.333 -53.666 37 -108.999 35zM1221 657.001c0 126.667 -29.999 235.497 -89.999 326.497s-136.667 159.833 -230 206.5s-189 70 -287 70
c-96 0 -182.667 -17.333 -260 -52c-6.66699 -37.333 -11.667 -148.666 -15 -333.999s-5 -345 -5 -479c0 -5.33301 0.5 -30.333 1.5 -75l3 -135.5c1 -45.667 1.5 -71.834 1.5 -78.501c67.333 -21.333 119 -36.166 155 -44.499s81.333 -12.5 136 -12.5
c138 0 251.167 29.833 339.5 89.5s152.166 135.834 191.499 228.501s59 189.334 59 290.001z" />
    <glyph glyph-name="E" unicode="E" horiz-adv-x="1153" 
d="M1075 293l30.999 -0.00488281c-10.667 -69.333 -22.334 -126.833 -35.001 -172.5s-29 -89.167 -49 -130.5c-22 2 -52 3.5 -90 4.5s-91.333 1.5 -160 1.5c-41.333 0 -85.666 0.666992 -132.999 2s-67.666 2 -60.999 2c-43.333 0 -93.833 -0.5 -151.5 -1.5
s-127.167 -2.83301 -208.5 -5.5s-141 -5 -179 -7l2 34c20.667 4.66699 41.667 9.83398 63 15.501s35.833 11.834 43.5 18.501s13.167 14.834 16.5 24.501s6.66602 27.167 9.99902 52.5c4 25.333 7.83301 71.166 11.5 137.499s6.66699 140.833 9 223.5
s3.16602 134.334 2.49902 155.001l-7 318c-2 98.667 -5.83301 165.334 -11.5 200.001s-16.5 57.667 -32.5 69s-46.333 21.333 -91 30c0 10.667 0.666992 19.334 2 26.001h641c72 0 180.667 2.66699 326 8c-3.33301 -57.333 -9.33301 -114.666 -18 -171.999
s-19.667 -86 -33 -86c-16.667 0 -25 5 -25 15c0 4 1.33301 16.667 4 38s4 33.666 4 36.999c0 48.667 -29.167 79.667 -87.5 93s-128.166 20 -209.499 20c-98 0 -200.333 -6.66699 -307 -20c-12 -110.667 -18 -203.667 -18 -279c0 -49.333 0.333008 -106 1 -170s1 -94 1 -90
c16 -1.33301 65 -2 147 -2c141.333 0 238.333 2.66699 291 8c30 3.33301 50.167 7.33301 60.5 12s20.166 16.5 29.499 35.5s19.666 48.167 30.999 87.5l29 -2c0 -69.333 -0.166992 -131.333 -0.5 -186s-0.833008 -117.334 -1.5 -188.001h-35
c-2 61.333 -11.167 104 -27.5 128s-47.833 39.333 -94.5 46s-129.667 10 -249 10c-76.667 0 -136.667 -3.33301 -180 -10l-4 -142c-4.66699 -173.333 1.33301 -307 18 -401c12 -3.33301 26.333 -7 43 -11s32.5 -7.16699 47.5 -9.5s36.5 -4.66602 64.5 -6.99902
s63 -3.5 105 -3.5c104.667 0 186.834 7.66699 246.501 23s105.334 40 137.001 74s58.834 83 81.501 147z" />
    <glyph glyph-name="F" unicode="F" horiz-adv-x="1044" 
d="M25 1260l-0.00292969 29.999l129 2c12 0 72.667 -1.33301 182 -4c54.667 -1.33301 99 -2.66602 133 -3.99902s53.667 -2 59 -2c186.667 0 338.334 4.66699 455.001 14c-3.33301 -37.333 -5.33301 -80.833 -6 -130.5s-0.666992 -90.167 0 -121.5h-41
c-3.33301 52.667 -11.666 91.334 -24.999 116.001s-45.333 43.667 -96 57s-132.667 20 -246 20c-114.667 0 -190.334 -4.66699 -227.001 -14c-5.33301 -72.667 -8 -195 -8 -367v-158c80 -6.66699 155.667 -10 227 -10c92.667 0 158.667 3.33301 198 10s63.333 18 72 34
s13 43.667 13 83c14.667 0 27.667 1.33301 39 4c2.66699 -44 4 -84.333 4 -121c0 -69.333 -1.33301 -139 -4 -209h-41c0 67.333 -5.66699 104.333 -17 111c-14.667 10.667 -50.834 20.5 -108.501 29.5s-125.167 13.5 -202.5 13.5c-79.333 0 -138.666 -2 -177.999 -6
c-2.66699 -125.333 -4 -238 -4 -338c0 -64 1.5 -109.5 4.5 -136.5s11 -48.833 24 -65.5s32.167 -28.5 57.5 -35.5s68.333 -14.5 129 -22.5v-39c-86 4 -158.333 6 -217 6h-99c-53.333 0 -114.666 -2.66699 -183.999 -8l2 33c43.333 7.33301 72.833 17.666 88.5 30.999
s25.834 32.333 30.501 57c14.667 79.333 22 261.666 22 546.999c0 38 -0.166992 75.5 -0.5 112.5s-1 86.833 -2 149.5s-3.5 118.667 -7.5 168s-9.33301 82.666 -16 99.999c-8 22.667 -22.667 37.834 -44 45.501s-53 13.834 -95 18.501z" />
    <glyph glyph-name="G" unicode="G" horiz-adv-x="1386" 
d="M1360 635l-0.00292969 -37c-26 -8.66699 -42.5 -15.167 -49.5 -19.5s-13.167 -13.5 -18.5 -27.5c-3.33301 -8.66699 -5.5 -20.334 -6.5 -35.001s-1.83301 -36.667 -2.5 -66s-1 -84.333 -1 -165c0 -59.333 1.33301 -101.666 4 -126.999s6.83398 -42.833 12.501 -52.5
s15.167 -20.167 28.5 -31.5l-10 -23c-10.667 -0.666992 -57 -9.33398 -139 -26.001c-54.667 -10 -107 -18.167 -157 -24.5s-90 -10.333 -120 -12s-65.333 -2.5 -106 -2.5c-123.333 0 -230.666 19 -321.999 57s-166.666 89.5 -225.999 154.5s-102.666 135.667 -129.999 212
s-41 153.5 -41 231.5c0 102 20.833 195.167 62.5 279.5s98.667 155.333 171 213s154.333 101 246 130s185.834 43.5 282.501 43.5c36.667 0 71.834 -2.33301 105.501 -7s63.167 -9.83398 88.5 -15.501s41.666 -9.83398 48.999 -12.501c28.667 -12.667 47.334 -19 56.001 -19
c35.333 30 55.666 45 60.999 45c9.33301 0 14 -12.667 14 -38c0 -19.333 4.5 -60.666 13.5 -123.999s13.5 -106.666 13.5 -129.999c0 -10 -4 -15 -12 -15c-6 0 -9.83301 1 -11.5 3s-4.83398 8.66699 -9.50098 20c-24.667 57.333 -70.834 111.166 -138.501 161.499
s-159.834 75.5 -276.501 75.5c-110.667 0 -208.667 -27.833 -294 -83.5s-150.666 -129 -195.999 -220s-68 -184.833 -68 -281.5c0 -68.667 12.833 -139.167 38.5 -211.5s64.667 -140.666 117 -204.999s116 -115.5 191 -153.5s157.5 -57 247.5 -57
c76 0 140.5 10.667 193.5 32s87.5 42 103.5 62c7.33301 9.33301 12 24 14 44s3 71.667 3 155c0 81.333 -3.16699 138 -9.5 170s-21.5 53.333 -45.5 64s-66.667 16 -128 16c-26 0 -47 -1.33301 -63 -4l4 43c92 0.666992 177.5 1.83398 256.5 3.50098
s147.167 5.16699 204.5 10.5z" />
    <glyph glyph-name="H" unicode="H" horiz-adv-x="1579" 
d="M45 -12l-14.002 37c70.667 8 113.667 22.333 129 43c11.333 16 20.333 89.833 27 221.5s10 245.5 10 341.5l2 330c0 90 -3.16699 154.667 -9.5 194s-19.5 65.5 -39.5 78.5s-51.667 20.167 -95 21.5l2 33c38.667 6.66699 72.334 10 101.001 10
c9.33301 0 44 -1.33301 104 -4c45.333 -4 81 -6 107 -6l145 2c0 -12 0.666992 -23.667 2 -35l-53 -8c-33.333 -4.66699 -56 -10.334 -68 -17.001s-20.833 -20.167 -26.5 -40.5s-11.834 -61.833 -18.501 -124.5c-6.66699 -60 -10 -131 -10 -213
c0 -68 0.666992 -121.333 2 -160h473c180.667 0 292.334 0.333008 335.001 1s73.667 3 93 7l2 211c0 114.667 -1.16699 186.5 -3.5 215.5s-7.16602 51.5 -14.499 67.5c-7.33301 21.333 -19.333 35.833 -36 43.5s-52 17.167 -106 28.5l5 37
c30.667 -4 61.334 -7.66699 92.001 -11c39.333 -4 83 -6 131 -6c12 0 46.667 1.33301 104 4c60 2.66699 93.667 4 101 4l4 -28c-9.33301 -2.66699 -15.666 -4.66699 -18.999 -6c-27.333 -6.66699 -48 -15.334 -62 -26.001s-24.167 -27.5 -30.5 -50.5
s-10.5 -49.167 -12.5 -78.5s-4.33301 -100.666 -7 -213.999l-9 -461c-3.33301 -126.667 -1.83301 -217.667 4.5 -273s19 -91.333 38 -108s52.167 -27.667 99.5 -33l-2 -30c-26 6 -58.333 10 -97 12c-21.333 1.33301 -49.333 2 -84 2c-12 0 -52 -1.33301 -120 -4
c-54 -4 -95.667 -6 -125 -6l-4 35c45.333 5.33301 77.333 14.333 96 27s31 33 37 61s10 76.333 12 145l6 227l-2 131l-111 5l-571 4l-217 -2c-4 -78 -6 -194.333 -6 -349c0 -96.667 4 -156.667 12 -180c3.33301 -12.667 9.16602 -23.334 17.499 -32.001
s22.166 -16.5 41.499 -23.5s49 -14.5 89 -22.5l-2 -32c-14 0.666992 -38.5 2.33398 -73.5 5.00098s-68.833 4.83398 -101.5 6.50098s-62 2.5 -88 2.5c-42 0 -104 -3.33301 -186 -10z" />
    <glyph glyph-name="I" unicode="I" horiz-adv-x="641" 
d="M41 1253l0.00195312 42.999c75.333 -4 122.333 -6.66699 141 -8c68 -2.66699 113.667 -4 137 -4c8 0 42.667 1.33301 104 4s119 5.33398 173 8.00098v-47c-58.667 0 -98.667 -3.16699 -120 -9.5s-37.333 -18.833 -48 -37.5c-22 -42 -33 -202.333 -33 -481
c0 -192 0.166992 -313.5 0.5 -364.5s1.5 -105.5 3.5 -163.5c1.33301 -46.667 5 -79.667 11 -99s22.333 -33.833 49 -43.5s69.667 -14.834 129 -15.501l-4 -39c-9.33301 0 -27.833 0.5 -55.5 1.5s-56.334 1.83301 -86.001 2.5l-68.5 1.5c-16 0.333008 -34.333 0.5 -55 0.5
c-29.333 0 -53.833 -0.166992 -73.5 -0.5s-45.834 -0.833008 -78.501 -1.5s-62.167 -1.5 -88.5 -2.5s-42.166 -1.5 -47.499 -1.5l-2 37c72 4 120.667 12.333 146 25s42.666 33 51.999 61c13.333 36 21.833 104.167 25.5 204.5s5.5 206.166 5.5 317.499
c0 100.667 -3.33301 245.334 -10 434.001c-2 52 -7.16699 89.167 -15.5 111.5s-27 38.833 -56 49.5s-74.167 16.334 -135.5 17.001z" />
    <glyph glyph-name="J" unicode="J" horiz-adv-x="641" 
d="M35 1253l-6.00098 39c14.667 0 64.334 -2 149.001 -6s134.667 -6 150 -6c45.333 0 134 4 266 12l2 -39c-61.333 -4 -104.333 -11.667 -129 -23s-40.667 -33.333 -48 -66s-11.666 -89.667 -12.999 -171c-2 -37.333 -3.16699 -83.333 -3.5 -138
s-0.833008 -106.334 -1.5 -155.001v-153c0 -26 0.833008 -108.167 2.5 -246.5s2.5 -242.5 2.5 -312.5c0 -49.333 -1.66699 -93.666 -5 -132.999c-58 -82.667 -118.667 -156.667 -182 -222s-126.666 -98 -189.999 -98c-14.667 0 -29.334 5 -44.001 15s-22 19.333 -22 28
c0 12 16.833 28 50.5 48s57.167 30 70.5 30c4 0 23 -6 57 -18c83.333 0 125 180 125 540v397c0 166.667 -1.83301 297.167 -5.5 391.5s-9.66699 157.333 -18 189s-21.5 54.167 -39.5 67.5c-18.667 14 -44.834 23 -78.501 27s-63.5 5 -89.5 3z" />
    <glyph glyph-name="K" unicode="K" horiz-adv-x="1280" 
d="M57 1257l-1.99707 34.999c109.333 -5.33301 188.666 -8 237.999 -8c48.667 0 88.5 1.5 119.5 4.5s60.167 6.16699 87.5 9.5v-32c-78 -9.33301 -124.667 -28 -140 -56c-6 -12.667 -11.333 -48.5 -16 -107.5s-8.16699 -123 -10.5 -192s-3.5 -119.833 -3.5 -152.5v-119
c23.333 20.667 64.333 60.334 123 119.001l245 241c70 70 114.333 117.333 133 142c15.333 17.333 23 37 23 59c0 30.667 -32.667 47.667 -98 51l-2 37l166 -2c67.333 -2 138.333 1.33301 213 10l2 -39c-55.333 -6 -126.666 -45.833 -213.999 -119.5
s-168.333 -147.834 -243 -222.501l-139 -135c-39.333 -37.333 -71.666 -69.333 -96.999 -96l371 -309l320 -260c51.333 -40 97 -71.667 137 -95l2 -32c-6.66699 0.666992 -14.834 1.83398 -24.501 3.50098s-22.167 3.16699 -37.5 4.5c-32 2.66699 -63.333 4 -94 4
c-56 0 -129 -4 -219 -12l-2 28c5.33301 2 10.666 3.66699 15.999 5s14.333 3.33301 27 6c27.333 4.66699 41 12 41 22c0 20.667 -74.333 89.667 -223 207l-185 150l-54.5 43.5c-14.333 11.667 -36.166 28.5 -65.499 50.5l-93 69c-8.66699 6.66699 -17.334 13 -26.001 19
c-1.33301 -60 -0.5 -153.5 2.5 -280.5s7.5 -200.167 13.5 -219.5c10 -21.333 33.833 -39 71.5 -53s65.167 -21 82.5 -21v-30c-24 4 -67.667 7.33301 -131 10c-34.667 1.33301 -87.334 2 -158.001 2c-58.667 0 -114 -1.33301 -166 -4v35c40 3.33301 69 9.83301 87 19.5
s30 28.167 36 55.5c6 24 11.333 72.5 16 145.5s8 153.5 10 241.5s3 140 3 156c0 160 -2 279.667 -6 359c0 58 -1.5 102.667 -4.5 134s-8.66699 54.833 -17 70.5s-20.833 26.5 -37.5 32.5s-42.334 11.333 -77.001 16z" />
    <glyph glyph-name="L" unicode="L" horiz-adv-x="1153" 
d="M96 1251l0.000976562 35.0059c84 -0.666992 139 -1.33398 165 -2.00098s47.667 -1.33398 65 -2.00098c112 0 185.667 1.33301 221 4l-2 -39c-46 -4 -80.333 -9.5 -103 -16.5s-39 -21.833 -49 -44.5c-6 -14.667 -10.333 -51.334 -13 -110.001s-5 -134 -7 -226
c-2.66699 -103.333 -4.66699 -197 -6 -281s-2 -167.333 -2 -250c0 -75.333 2 -131 6 -167s10.667 -58.667 20 -68c11.333 -8.66699 30.166 -15 56.499 -19s82.5 -6 168.5 -6c94.667 0 173.834 7.66699 237.501 23s111.5 31.666 143.5 48.999c42.667 26 72 70.333 88 133
l33 -4c-4 -27.333 -13 -68.333 -27 -123s-30.333 -104.334 -49 -149.001c-57.333 6.66699 -103 10 -137 10c-20.667 0.666992 -39.834 1.16699 -57.501 1.5s-38.167 0.5 -61.5 0.5h-702l-2 31c39.333 8 68 16.667 86 26s31.5 25.5 40.5 48.5s14.667 57.5 17 103.5
s3.5 112.333 3.5 199l2 440c1.33301 99.333 1.33301 174.666 0 225.999s-6 89.5 -14 114.5s-20.667 41.333 -38 49s-45 12.167 -83 13.5z" />
    <glyph glyph-name="M" unicode="M" horiz-adv-x="1792" 
d="M43 1260l3.99707 37.999c12.667 0 25 -0.5 37 -1.5s33 -1.83301 63 -2.5c34.667 -2.66699 67 -5 97 -7s60.667 -3 92 -3c12.667 0.666992 24.667 1.16699 36 1.5s28 0.5 50 0.5c22 -59.333 41.833 -109.333 59.5 -150s52.834 -111.834 105.501 -213.501l152.5 -290
l184.5 -345.5c30 50 79 140.667 147 272l139.5 262l169.5 319c32.667 62 57.334 111.333 74.001 148c52 -1.33301 108.667 -2 170 -2c50.667 0 91 0.666992 121 2l-2 -37c-51.333 -6 -87.666 -12.833 -108.999 -20.5s-37.666 -21.167 -48.999 -40.5s-18.5 -47.333 -21.5 -84
s-3.83301 -101 -2.5 -193l6 -278c0.666992 -16 1.16699 -31.833 1.5 -47.5s1 -35 2 -58s2.16699 -52.667 3.5 -89l5 -135.5c3.33301 -62.667 7.16602 -109.667 11.499 -141s12.833 -55.833 25.5 -73.5s29 -29.334 49 -35.001s50.667 -9.16699 92 -10.5v-37l-172 2l-133 -2
c-73.333 0 -136.666 -3.33301 -189.999 -10l-2 37c56 13.333 96 27.833 120 43.5s41.333 43.334 52 83.001s16 99.167 16 178.5c0 50.667 -0.666992 91.667 -2 123l-8 270c-4 116 -13 222.667 -27 320l-92.5 -174l-115 -215l-101.5 -193
c-32.667 -62.667 -59.334 -116 -80.001 -160c-42.667 -93.333 -70.834 -156.333 -84.501 -189s-27.167 -70 -40.5 -112l-31 -2c-16.667 52.667 -36.667 110.334 -60 173.001s-56.333 134.667 -99 216l-345 662c-11.333 -113.333 -22.333 -245.666 -33 -396.999
s-16 -311.333 -16 -480c0 -52 10.833 -88.333 32.5 -109s72.5 -35.334 152.5 -44.001l-2 -33c-44 5.33301 -91.333 8 -142 8l-121 -2c-14 0 -26.833 -0.166992 -38.5 -0.5l-50.5 -1.5c-22 -0.666992 -43.667 -1.5 -65 -2.5s-36.666 -1.5 -45.999 -1.5l2 29
c64 11.333 109.333 27.833 136 49.5s44 52.834 52 93.501s15.667 113.667 23 219l30 522c3.33301 48 5 80.333 5 97c0 68 -8.83301 119.667 -26.5 155s-43 59.5 -76 72.5s-78.167 21.833 -135.5 26.5z" />
    <glyph glyph-name="N" unicode="N" horiz-adv-x="1579" 
d="M33 1255l-0.00292969 41.001c60 -4 98.333 -6.5 115 -7.5s36.334 -1.16699 59.001 -0.5l86 2c40 -50.667 87 -104.334 141 -161.001l181.5 -182.5l113.5 -110.5l590 -560c5.33301 83.333 8 209.666 8 378.999v193c0 102.667 -2.5 180 -7.5 232s-14.5 90.333 -28.5 115
s-32.333 41.167 -55 49.5s-60.667 16.833 -114 25.5l11 28c9.33301 1.33301 25.666 2 48.999 2c20.667 0 41.334 -0.333008 62.001 -1s45 -2.33398 73 -5.00098c16.667 -1.33301 34 -2 52 -2h44l127 2l2 -34c-40 -6 -68.667 -15.333 -86 -28s-29.666 -33.667 -36.999 -63
c-12 -54.667 -20.5 -161.667 -25.5 -321s-7.5 -311 -7.5 -455c0 -56.667 0.5 -111 1.5 -163s2.16699 -98.667 3.5 -140s3.33301 -79.666 6 -114.999l-41 2c-46 99.333 -184.667 256.666 -416 471.999l-375 350c-12.667 9.33301 -43.5 37 -92.5 83l-185.5 173l-13 -613
c-3.33301 -126 -0.666016 -214.167 8.00098 -264.5s27.667 -83.666 57 -99.999s85 -32.5 167 -48.5c0 -14 -1.33301 -26.333 -4 -37c-10.667 0 -42.667 1.33301 -96 4c-54.667 2.66699 -87.667 4 -99 4c-10.667 0 -47.334 -1.33301 -110.001 -4
c-10.667 -0.666992 -25 -1.66699 -43 -3l-70 -5c-9.33301 0 -16.166 1.83301 -20.499 5.5s-6.5 9.83398 -6.5 18.501c0 10 1.66699 16 5 18s10.666 3.66699 21.999 5c29.333 3.33301 50.5 8.66602 63.5 15.999s23.5 21.333 31.5 42s13.833 53.5 17.5 98.5
s5.83398 102.833 6.50098 173.5l6 477c1.33301 104.667 -0.5 182.334 -5.5 233.001s-19.833 91.667 -44.5 123s-66.667 50.333 -126 57z" />
    <glyph glyph-name="O" unicode="O" horiz-adv-x="1516" 
d="M84 645c0 121.333 32.168 233.333 96.501 336s149.833 184 256.5 244s219.667 90 339 90c81.333 0 161.666 -16 240.999 -48s150.333 -76.833 213 -134.5s112.667 -128.167 150 -211.5s56 -174 56 -272c0 -119.333 -29.667 -230.833 -89 -334.5
s-141.833 -186.167 -247.5 -247.5s-225.167 -92 -358.5 -92c-102 0 -194 20 -276 60s-151.833 94 -209.5 162s-100.667 140.833 -129 218.5s-42.5 154.167 -42.5 229.5zM233.001 721c0 -116.667 27.332 -227 81.999 -331s128 -187.167 220 -249.5s189.333 -93.5 292 -93.5
c76 0 148.833 18.833 218.5 56.5s126.834 95.834 171.501 174.501s67 175.667 67 291c0 92 -14.833 179.333 -44.5 262s-71 155.167 -124 217.5s-114.167 110.666 -183.5 144.999s-142.333 51.5 -219 51.5c-84 0 -162.667 -20.833 -236 -62.5s-132.333 -102.5 -177 -182.5
s-67 -173 -67 -279z" />
    <glyph glyph-name="P" unicode="P" horiz-adv-x="1087" 
d="M55 -14l-0.00585938 29.9961c50.667 14.667 83.834 25.667 99.501 33s24.834 19 27.501 35c10 38 15 192.333 15 463c0 42 -0.166992 87.667 -0.5 137s-0.833008 87.5 -1.5 114.5s-2.33398 68.833 -5.00098 125.5c-1.33301 38.667 -3.66602 86.834 -6.99902 144.501
s-6.5 94.334 -9.5 110.001s-7.5 28.5 -13.5 38.5c-9.33301 14 -23.333 23.667 -42 29s-45.667 10 -81 14c-1.33301 14 -1.33301 27.333 0 40c53.333 -4 116 -6 188 -6c20.667 0 57 1.33301 109 4l63 5c15.333 1.33301 36.666 2 63.999 2c94 0 176.333 -13 247 -39
s129.834 -60.5 177.501 -103.5s83 -89 106 -138s34.5 -96.833 34.5 -143.5c0 -72 -22 -139.667 -66 -203s-109 -114.666 -195 -153.999s-187.333 -59 -304 -59c-44.667 0 -87.667 3.33301 -129 10c0.666992 -52 1.33398 -112.833 2.00098 -182.5
s1.33398 -111.834 2.00098 -126.501c2 -40 7 -68.667 15 -86s24.5 -29.666 49.5 -36.999s66.833 -12.666 125.5 -15.999l-2 -45c-25.333 4.66699 -59.333 8 -102 10c-52 2.66699 -87.667 4 -107 4c-73.333 0 -130.666 -3.33301 -171.999 -10l-51 -6
c-13.333 0 -25.666 2 -36.999 6zM341.994 1235c0 -6 -0.832031 -40.832 -2.49902 -104.499l-4 -157c-1 -41 -2.16699 -85.667 -3.5 -134s-2 -76.166 -2 -83.499c0 -64.667 0.666992 -135.667 2 -213c58 -15.333 112 -23 162 -23c55.333 0 111.166 10.833 167.499 32.5
s103.833 58.667 142.5 111s58 121.166 58 206.499c0 66 -14.167 128.167 -42.5 186.5s-71.833 105.666 -130.5 141.999s-128.667 54.5 -210 54.5c-42 0 -87.667 -6 -137 -18z" />
    <glyph glyph-name="Q" unicode="Q" horiz-adv-x="1516" 
d="M1628 -203l11.998 -23.999c-40 -19.333 -83.667 -32.333 -131 -39s-86.666 -10 -117.999 -10c-212 0 -417 83.667 -615 251c-67.333 1.33301 -120 5.16602 -158 11.499s-83.667 20.5 -137 42.5c-87.333 38 -160.5 91 -219.5 159s-103.333 142.5 -133 223.5
s-44.5 160.167 -44.5 237.5c0 115.333 31.333 224.666 94 327.999s147.167 185.5 253.5 246.5s221.166 91.5 344.499 91.5c80 0 159.833 -15.833 239.5 -47.5s150.834 -76.334 213.501 -134.001s112.834 -128 150.501 -211s56.5 -174.167 56.5 -273.5
c0 -93.333 -18.5 -182.166 -55.5 -266.499s-89.5 -159.166 -157.5 -224.499c-32.667 -32 -65.334 -57.333 -98.001 -76s-76.667 -40 -132 -64c220.667 -154 404.334 -231 551.001 -231c21.333 0 49.333 3.33301 84 10zM232.998 721.001
c0 -88.667 15.667 -173.331 47 -253.998s75 -153 131 -217s120 -113.833 192 -149.5s146.667 -53.5 224 -53.5c75.333 0 147.833 19 217.5 57s127 96.167 172 174.5s67.5 175.166 67.5 290.499c0 94 -15 182.167 -45 264.5s-71.333 154.166 -124 215.499
s-113.667 109.333 -183 144s-142.333 52 -219 52c-84 0 -162.667 -20.833 -236 -62.5s-132.333 -102.5 -177 -182.5s-67 -173 -67 -279z" />
    <glyph glyph-name="R" unicode="R" 
d="M647 446l-114.999 163.999c-88 0 -161 4.33301 -219 13l-2 -240c0 -50.667 1.5 -107.334 4.5 -170.001s9.83301 -107 20.5 -133c5.33301 -16 14.5 -27.333 27.5 -34s42.167 -16 87.5 -28c14.667 -3.33301 22 -8.66602 22 -15.999c0 -14.667 -4.66699 -22 -14 -22
c-10.667 0 -38.667 3.33301 -84 10c-57.333 5.33301 -92.333 8 -105 8c-64.667 0 -131.334 -4.66699 -200.001 -14c-4.66699 0 -10.334 -0.666992 -17.001 -2c-13.333 0 -20 6 -20 18c0 6.66699 2.5 11.667 7.5 15s16.167 7.33301 33.5 12c30 8 51.667 20.167 65 36.5
s23 48.333 29 96s9.33301 124.167 10 229.5v442c1.33301 108 0.833008 187.333 -1.5 238s-7.83301 87.834 -16.5 111.501s-22 39.5 -40 47.5s-46.333 14.333 -85 19l4 33c35.333 -1.33301 80.333 -2 135 -2c16 0 74.167 4.16699 174.5 12.5s163.833 12.5 190.5 12.5
c70 0 133 -9.66699 189 -29s102.833 -45 140.5 -77s66.167 -68.5 85.5 -109.5s29 -83.167 29 -126.5c0 -44.667 -10 -88 -30 -130s-50.333 -80.167 -91 -114.5s-93 -63.5 -157 -87.5l45 -68l156 -229.5c41.333 -58.333 85.833 -114.5 133.5 -168.5
s96.334 -97.833 146.001 -131.5s98.167 -52.5 145.5 -56.5c12.667 -2 19 -8.66699 19 -20c0 -6 -3 -10.5 -9 -13.5s-20.333 -4.5 -43 -4.5c-64.667 0 -127 14.167 -187 42.5s-117 66.5 -171 114.5s-102 98.333 -144 151s-91.667 119.667 -149 201zM319.001 679.999
c44.667 -10.667 98.666 -16 161.999 -16c32 0 65.833 2.33301 101.5 7s72.334 15 110.001 31s70.167 43 97.5 81s41 89 41 153c0 45.333 -11.833 92.833 -35.5 142.5s-60.167 92.334 -109.5 128.001s-109.333 53.5 -180 53.5c-29.333 0 -62.5 -3.83301 -99.5 -11.5
s-58.5 -19.834 -64.5 -36.501c-15.333 -32.667 -23 -210 -23 -532z" />
    <glyph glyph-name="S" unicode="S" horiz-adv-x="961" 
d="M127 -4l-40.9961 1.99902c1.33301 92.667 -17 204 -55 334c16 4.66699 26.667 7.33398 32 8.00098c16 -50 28.5 -86.167 37.5 -108.5s20.667 -42 35 -59s34.166 -32.167 59.499 -45.5c43.333 -22.667 93.333 -43 150 -61s117.667 -27 183 -27c56.667 0 113.5 14 170.5 42
s85.5 89.667 85.5 185c0 48 -8.33301 89.333 -25 124s-38.5 62.667 -65.5 84s-58.333 40.333 -94 57s-81.834 35.667 -138.501 57c-78.667 28.667 -143.5 58 -194.5 88s-91.5 67 -121.5 111s-45 97.667 -45 161c0 100.667 37 184.5 111 251.5s179.667 100.5 317 100.5
c70 0 139 -7.33301 207 -22c27.333 -5.33301 44.333 -8 51 -8c20 0 40 6.66699 60 20l8 4c5.33301 0 12 -1.33301 20 -4c-2 -15.333 -3.83301 -30.5 -5.5 -45.5s-3.33398 -31.5 -5.00098 -49.5s-2.83398 -32 -3.50098 -42s-1.33398 -16.667 -2.00098 -20
c8.66699 -80.667 12.667 -124.667 12 -132l-30 -2c-5.33301 68 -27.666 121.5 -66.999 160.5s-83.666 65.5 -132.999 79.5s-96.666 21 -141.999 21c-110.667 0 -183.834 -28.833 -219.501 -86.5s-53.5 -112.167 -53.5 -163.5c0 -54 13.333 -98.833 40 -134.5
s59.834 -63.667 99.501 -84s95.5 -44.5 167.5 -72.5c81.333 -32 146.666 -61.5 195.999 -88.5s93.333 -66 132 -117s58 -114.167 58 -189.5c0 -64 -16.667 -121.667 -50 -173s-83.333 -92 -150 -122s-148.334 -45 -245.001 -45c-94 0 -191.667 13.667 -293 41
c-18 4 -29 6 -33 6c-17.333 0 -24 -11.667 -20 -35z" />
    <glyph glyph-name="T" unicode="T" 
d="M59 1075l-34.002 7.99512c31.333 83.333 59.333 162.666 84 237.999c16 -14.667 28 -24.167 36 -28.5s22.333 -7.83301 43 -10.5c42.667 -5.33301 139.667 -8 291 -8h506c12.667 0 53.334 0.666992 122.001 2s108 2 118 2c28 0 46.667 1.83301 56 5.5
s19.333 11.5 30 23.5c6 -9.33301 14.667 -17.666 26 -24.999c-23.333 -63.333 -41.666 -131.666 -54.999 -204.999l-43 -6c3.33301 22 6 52 8 90c-18.667 16 -48.667 28.833 -90 38.5s-107.666 14.5 -198.999 14.5c-66.667 0 -110.667 -0.5 -132 -1.5
s-34.666 -3.66699 -39.999 -8s-8.66602 -13.833 -9.99902 -28.5l-6 -134c0 -21.333 -2 -80 -6 -176c-0.666992 -24 -1.33398 -89.5 -2.00098 -196.5s-1.33398 -199.833 -2.00098 -278.5c0 -100 1 -170.167 3 -210.5s7.66699 -71.166 17 -92.499s23.5 -35.333 42.5 -42
s51.5 -13 97.5 -19c30 -2.66699 45 -7 45 -13c0 -13.333 -0.666992 -21.333 -2 -24c-10 -1.33301 -23 -2 -39 -2c-40.667 2.66699 -76.334 4.66699 -107.001 6c-44.667 4 -80.667 6 -108 6c-64.667 0 -135.667 -6 -213 -18c-42.667 -7.33301 -66 -11 -70 -11
c-10 0 -17.167 2.33301 -21.5 7s-8.83301 13.334 -13.5 26.001c8.66699 2.66699 29.334 8 62.001 16c46.667 10.667 80.167 20.334 100.5 29.001s33.166 19.334 38.499 32.001s8 32.667 8 60c0 32.667 2.66699 70.334 8 113.001c0 -4 0.666992 35.667 2 119
s2.33301 142.5 3 177.5s1 76.833 1 125.5c0 142.667 -0.5 244.667 -1.5 306s-3.16699 108.833 -6.5 142.5s-8.66602 60.167 -15.999 79.5c-57.333 5.33301 -120.333 8 -189 8c-72 0 -127.833 -2.33301 -167.5 -7s-70.334 -12.334 -92.001 -23.001s-37 -22.667 -46 -36
s-21.167 -37 -36.5 -71z" />
    <glyph glyph-name="U" unicode="U" horiz-adv-x="1473" 
d="M43 1245l4.00293 36.9971c31.333 -1.33301 79 -2 143 -2c113.333 0 224.666 2.66699 333.999 8l11 -33c-62 -7.33301 -103.833 -16.333 -125.5 -27s-37.5 -25.334 -47.5 -44.001c-20 -37.333 -30 -193.666 -30 -468.999c0 -94.667 1.33301 -178 4 -250s8 -128 16 -168
c22 -100.667 75.667 -167.5 161 -200.5s165 -49.5 239 -49.5c42 0 92.333 6 151 18s114.334 33.667 167.001 65s88 74 106 128c36.667 106.667 55 316.334 55 629.001c0 93.333 -2.83301 163.5 -8.5 210.5s-14.834 81 -27.501 102s-28.667 33.833 -48 38.5s-50 7 -92 7
l-4 35c30 4 63.333 6 100 6c143.333 0 239.666 -0.666992 288.999 -2v-41c-46 -2 -77.5 -7 -94.5 -15s-27.333 -22.333 -31 -43s-6.16699 -64.667 -7.5 -132c-2 -126 -5 -237.833 -9 -335.5s-9 -178 -15 -241s-14.5 -119.167 -25.5 -168.5s-24.5 -89.333 -40.5 -120
c-30.667 -56.667 -78.334 -100.667 -143.001 -132s-130 -51.833 -196 -61.5s-126 -14.5 -180 -14.5c-90 0 -173 13.5 -249 40.5s-138.167 71.833 -186.5 134.5s-72.5 143.334 -72.5 242.001c0 24 0.833008 89.667 2.5 197s2.5 187.333 2.5 240
c0 184.667 -9 307.334 -27 368.001c-4.66699 15.333 -12.5 24.833 -23.5 28.5s-44.833 8.5 -101.5 14.5z" />
    <glyph glyph-name="V" unicode="V" horiz-adv-x="1473" 
d="M20 1264l5 36.001l81 -2l164 -6c15.333 0.666992 29.333 1.16699 42 1.5s31.667 0.5 57 0.5l100 -2l2 -32c-58.667 -4 -94.834 -8 -108.501 -12s-20.5 -12.333 -20.5 -25c0 -18 13.833 -61.667 41.5 -131s61.667 -149.166 102 -239.499l87.5 -195.5l140 -301l28 -57
l41 -86c22.667 40 49.667 91.833 81 155.5l88.5 184.5l45.5 98l131 287c19.333 42 38.5 87.833 57.5 137.5s28.5 85.167 28.5 106.5c0 44 -36.667 69 -110 75l6 41c76.667 -6.66699 155.334 -10 236.001 -10c21.333 0.666992 40.333 1.16699 57 1.5s37.667 0.5 63 0.5v-28
c-44 -14.667 -77 -30.5 -99 -47.5s-44 -44.167 -66 -81.5s-59.667 -110 -113 -218l-225 -448c-42.667 -82.667 -84.834 -173.334 -126.501 -272.001s-65.834 -172 -72.501 -220l-31 -4c-15.333 44 -32.333 85.667 -51 125l-68 150
c-20.667 53.333 -48.667 116.666 -84 189.999l-168 355c-124 258 -198.333 400.667 -223 428c-15.333 17.333 -31.666 28.833 -48.999 34.5s-40.666 9.16699 -69.999 10.5z" />
    <glyph glyph-name="W" unicode="W" horiz-adv-x="2005" 
d="M31 1245l-1.99609 41.001l94 -4c89.333 -2.66699 146 -4 170 -4c76.667 0 134.667 1.33301 174 4h72l4 -39c-39.333 -2.66699 -76.5 -10.667 -111.5 -24s-52.5 -32 -52.5 -56c0 -25.333 25.5 -110.833 76.5 -256.5s105.667 -294.334 164 -446.001
s89.5 -230.834 93.5 -237.501l41 107c4 8 14.833 33.333 32.5 76l40.5 98l174 389l-98.5 226.5c-15 33.667 -26.5 55.167 -34.5 64.5c-24.667 34 -62 52.333 -112 55l-4 41c45.333 -2.66699 91.666 -4 138.999 -4c121.333 0 230.666 3.33301 327.999 10l2 -35
c-47.333 -5.33301 -82.333 -12.666 -105 -21.999s-36.5 -18.833 -41.5 -28.5s-7.5 -21.5 -7.5 -35.5c0 -22.667 21.167 -97.334 63.5 -224.001s92.666 -268 150.999 -424s96.833 -255.333 115.5 -298c49.333 122 98.166 249.667 146.499 383s86.5 246.333 114.5 339
s42 153 42 181c0 54 -18.667 88.167 -56 102.5s-83 22.5 -137 24.5l-8 33h107c89.333 -2 189 -1.33301 299 2l80 2l-3 -35c-41.333 -4 -75.5 -15 -102.5 -33s-52.167 -48.333 -75.5 -91s-50 -105 -80 -187l-198 -551c-33.333 -90 -53.333 -142.667 -60 -158
c-13.333 -33.333 -24.333 -62.666 -33 -87.999l-30 -88l-39 -116l-31 2l-56 172l-49 151.5c-14 42.333 -24.667 72.833 -32 91.5l-168 461l-36 -78c-14.667 -32 -26 -55.667 -34 -71l-106 -240c-26.667 -59.333 -49.167 -114 -67.5 -164l-58 -166l-52.5 -159h-27l-117 337
l-63.5 190.5l-90 259.5c-34.333 97.333 -66 183.333 -95 258s-51.833 127 -68.5 157c-24 45.333 -50.5 74 -79.5 86s-63.167 18 -102.5 18z" />
    <glyph glyph-name="X" unicode="X" horiz-adv-x="1386" 
d="M37 1266l1.99609 34.002c67.333 -8 152 -12 254 -12c84.667 0 151 2 199 6l6 -39c-70 0 -105 -12 -105 -36c0 -12.667 8.83301 -33.167 26.5 -61.5s38 -58 61 -89l68.5 -91.5l180 -227c106.667 141.333 179.167 241.166 217.5 299.499s57.5 103.833 57.5 136.5
c0 29.333 -11.5 49 -34.5 59s-56.167 16.333 -99.5 19l4 34c10 0 46.333 -1.33301 109 -4s100.334 -4 113.001 -4h207v-33c-34 -3.33301 -62.333 -9.5 -85 -18.5s-44.667 -22.667 -66 -41s-46.166 -44.5 -74.499 -78.5l-114.5 -142l-78 -103l-68 -92l-29.5 -40
c-13 -18 -21.5 -29 -25.5 -33l336 -447c54 -72.667 93.667 -123.5 119 -152.5s47.166 -48 65.499 -57s47.5 -16.833 87.5 -23.5l4 -37c-24 2.66699 -54 4 -90 4c-52 2.66699 -97 4 -135 4c-63.333 0 -145.333 -2.66699 -246 -8l-6 37
c41.333 7.33301 72.5 15.166 93.5 23.499s31.5 20.166 31.5 35.499c0 16.667 -6.66699 38.5 -20 65.5s-27 50.167 -41 69.5c-89.333 123.333 -148.333 203.333 -177 240l-108 137c-39.333 -44 -126.666 -158 -261.999 -342c-26.667 -37.333 -46.334 -67.5 -59.001 -90.5
s-19 -42.5 -19 -58.5c0 -26.667 13 -45.667 39 -57s59.333 -19.666 100 -24.999v-35c-44 2.66699 -97.333 4 -160 4l-65 2c-3.33301 0 -24.166 -0.5 -62.499 -1.5l-115 -3c-38.333 -1 -59.166 -1.5 -62.499 -1.5l2 31c53.333 8 100.333 25.167 141 51.5
s81.834 63 123.501 110s100.5 119.833 176.5 218.5l118 152c3.33301 2.66699 11.5 12.5 24.5 29.5s23.167 30.833 30.5 41.5s12.333 17.667 15 21l-94 117l-222 281.5c-52.667 64.333 -95.167 111.833 -127.5 142.5s-59 50.5 -80 59.5s-47.833 15.167 -80.5 18.5z" />
    <glyph glyph-name="Y" unicode="Y" 
d="M18 1249l-5.99805 35.002h99l107.5 -4.5c23 -1 36.167 -1.5 39.5 -1.5c18.667 0 43.667 0.666992 75 2s69 2.66602 113 3.99902l48 -2l-5 -39c-46.667 -4 -78.334 -8 -95.001 -12s-25 -13 -25 -27c0 -14.667 24.833 -57.667 74.5 -129s107 -149.666 172 -234.999
s111.167 -144 138.5 -176l90 129l76 114c26.667 38.667 56.5 87.5 89.5 146.5s49.5 100.5 49.5 124.5c0 48 -45 69.667 -135 65l4 39l84 -4c6.66699 0 28.667 -0.666992 66 -2s59 -2 65 -2c10 0 42.667 0.666992 98 2s88 2 98 2l-2 -41c-44 -2 -79.667 -9.5 -107 -22.5
s-58.666 -40.833 -93.999 -83.5s-83.666 -110.334 -144.999 -203.001l-110 -166l-105 -164l4 -324c0 -80 1.16699 -133.167 3.5 -159.5s7.83301 -43.833 16.5 -52.5s26 -16.334 52 -23.001c22.667 -4.66699 58 -13.667 106 -27l-2 -26c5.33301 0 -19.667 2 -75 6l-62 4
c-26.667 2.66699 -48.334 4 -65.001 4h-43c-10 -0 -50.333 -2.66699 -121 -8c-56.667 -6.66699 -97.667 -10 -123 -10v32c69.333 2.66699 115.666 16.334 138.999 41.001c10.667 9.33301 18 22 22 38s6.83301 51.667 8.5 107s2.5 143.666 2.5 264.999
c0 66.667 -0.666992 107.667 -2 123l-82 121l-116 161c-36.667 49.333 -66.334 87 -89.001 113c-71.333 90 -122.333 151.5 -153 184.5s-57 54.333 -79 64s-55.333 15.5 -100 17.5z" />
    <glyph glyph-name="Z" unicode="Z" horiz-adv-x="1260" 
d="M840 0l-516.004 -0.000976562c-105.333 0 -210.666 -4 -315.999 -12c0.666992 4 1.16699 7.66699 1.5 11s0.5 7.66602 0.5 12.999c86.667 89.333 174.167 184.333 262.5 285s167.666 195.167 237.999 283.5l235 307.5c86.333 116.667 164.166 226.334 233.499 329.001
c-48.667 2.66699 -105.5 4.66699 -170.5 6s-135.833 2 -212.5 2c-146.667 0 -252.5 -4.16699 -317.5 -12.5s-113.667 -25.166 -146 -50.499s-62.166 -67.333 -89.499 -126l-29 15c8.66699 26 16.167 51.5 22.5 76.5s11 44 14 57s5.16699 22.167 6.5 27.5l21 97
c2 8 4 14 6 18s5.33301 6 10 6s9.66699 -3.33301 15 -10c12.667 -21.333 36.334 -33.666 71.001 -36.999c20.667 -3.33301 42.5 -5.5 65.5 -6.5s49 -1.83301 78 -2.5s77.5 -1 145.5 -1c250 0 498.333 3.33301 745 10v-18l-116.5 -152.5l-105.5 -133l-97.5 -121l-44.5 -54.5
l-223 -283c-10 -10.667 -36 -44 -78 -100l-59.5 -71.5l-72 -90.5l-76.5 -97l-81 -99c63.333 -12.667 151.333 -19 264 -19c161.333 0 277.833 4.66699 349.5 14s138.834 26.666 201.501 51.999c43.333 17.333 75.333 36.833 96 58.5s39.334 55.167 56.001 100.5l30 -18
l-60 -148c-28.667 -71.333 -48 -118.333 -58 -141c-8.66699 0 -15 0.666992 -19 2c-1.33301 12 -16.666 20.5 -45.999 25.5s-107.333 7.5 -234 7.5z" />
    <glyph glyph-name="bracketleft" unicode="[" horiz-adv-x="641" 
d="M152 -553v1911h426v-58h-369v-1792h369v-61h-426z" />
    <glyph glyph-name="backslash" unicode="\" horiz-adv-x="1087" 
d="M154 1520l874 -1817h-92l-877 1817h95z" />
    <glyph glyph-name="bracketright" unicode="]" horiz-adv-x="641" 
d="M487 1358v-1911h-426v57h369v1792h-369v62h426z" />
    <glyph glyph-name="asciicircum" unicode="^" horiz-adv-x="1024" 
d="M500 1313h30l455 -764h-98l-373 625l-375 -625h-100z" />
    <glyph glyph-name="underscore" unicode="_" horiz-adv-x="1024" 
d="M-12 -154h1048v-102h-1048v102z" />
    <glyph glyph-name="grave" unicode="`" horiz-adv-x="682" 
d="M330 1245l196 -356h-47l-289 356h140z" />
    <glyph glyph-name="a" unicode="a" horiz-adv-x="768" 
d="M246 590l-123 -54.999c-5.33301 21.333 -8 37 -8 47c0 34 20.833 65.5 62.5 94.5s88.667 52.5 141 70.5s88.833 27 109.5 27c18 0 40.333 -8 67 -24s48 -32 64 -48c14 -13.333 24.833 -26.5 32.5 -39.5s14.5 -33.5 20.5 -61.5s9 -63.667 9 -107
c0 -12.667 -1.66699 -57.334 -5 -134.001l-4 -75c-2.66699 -36 -4 -64.667 -4 -86c0 -27.333 3.66699 -56.666 11 -87.999c6.66699 -32 21.667 -48 45 -48c26 0 60.667 9.66699 104 29v-41l-147 -59c-29.333 -10 -46 -15 -50 -15c-15.333 0 -30.5 10.167 -45.5 30.5
s-27.167 44.5 -36.5 72.5c-123.333 -68.667 -218 -103 -284 -103c-40.667 0 -71.334 11.833 -92.001 35.5s-31 59.167 -31 106.5c0 45.333 5.5 79 16.5 101s28.833 39.333 53.5 52c50 25.333 103 44.166 159 56.499s114.667 22.833 176 31.5l5 123v33
c0 56.667 -16.167 101.5 -48.5 134.5s-70.166 49.5 -113.499 49.5c-20.667 0 -41.5 -5.83301 -62.5 -17.5s-31.5 -28.167 -31.5 -49.5c0 -10.667 3.33301 -25 10 -43zM483 117.001c-2 22 0 84.666 6 187.999c-88 6 -158.667 -4.66699 -212 -32s-80 -61.666 -80 -102.999
c0 -30 8.16699 -58.333 24.5 -85s38.833 -40 67.5 -40c32 0 96.667 24 194 72z" />
    <glyph glyph-name="b" unicode="b" horiz-adv-x="961" 
d="M274 967l-6 -285.001c62.667 32 114.667 54.667 156 68s82.333 20 123 20c57.333 0 112.333 -14.833 165 -44.5s95 -71.167 127 -124.5s48 -113.666 48 -180.999c0 -88 -25.333 -164.333 -76 -229s-112.5 -113.334 -185.5 -146.001s-142.167 -49 -207.5 -49
c-34 0 -79.667 9 -137 27c-34.667 9.33301 -58 14 -70 14c-12.667 0 -24 -2.16699 -34 -6.5s-21.333 -11.166 -34 -20.499l-16 -8l-12 8l14 56c16.667 93.333 25 316.333 25 669c0 116 -1.33301 224 -4 324c-1.33301 70 -7.66602 115.833 -18.999 137.5
s-37.333 32.5 -78 32.5c-6 0 -11.667 0.166992 -17 0.5s-8.83301 1.33301 -10.5 3s-2.5 4.5 -2.5 8.5c142 73.333 217 113 225 119c14 12 24.333 18 31 18c10.667 0 16 -6.66699 16 -20c-4.66699 -69.333 -8 -109 -10 -119c-6.66699 -146 -10.334 -236.667 -11.001 -272z
M266 384.999l0.000976562 -147c1.33301 -34.667 3.16602 -57.667 5.49902 -69s8.83301 -22 19.5 -32c68.667 -50.667 139 -76 211 -76c49.333 0 93.5 12.167 132.5 36.5s69.667 58.333 92 102s33.5 93.167 33.5 148.5c0 39.333 -5.83301 79.5 -17.5 120.5
s-29.167 79.167 -52.5 114.5s-53 64.5 -89 87.5s-77.333 34.5 -124 34.5c-61.333 0 -129.666 -22.667 -204.999 -68c0 4.66699 -1.33301 -28.333 -4 -99s-3.33398 -121.667 -2.00098 -153z" />
    <glyph glyph-name="c" unicode="c" horiz-adv-x="768" 
d="M717 125l14 -28.998c-88.667 -73.333 -180 -110 -274 -110c-54 0 -109.833 11.167 -167.5 33.5s-102.834 51.166 -135.501 86.499c-20.667 24.667 -36.834 59.167 -48.501 103.5s-17.5 87.166 -17.5 128.499c0 83.333 22.333 159.166 67 227.499s99.5 121.5 164.5 159.5
s125.833 57 182.5 57c34 0 81.333 -9.5 142 -28.5s91 -36.833 91 -53.5c0 -6.66699 -9.33301 -24 -28 -52s-33.667 -42 -45 -42c-5.33301 0 -12.833 2.66699 -22.5 8l-49.5 27c-72.667 30 -132.667 45 -180 45c-67.333 0 -118 -22 -152 -66s-51 -110 -51 -198
c0 -80.667 17.667 -148.667 53 -204s77.833 -95.666 127.5 -120.999s95.167 -38 136.5 -38c34.667 0 66.834 6 96.501 18s61.834 28 96.501 48z" />
    <glyph glyph-name="d" unicode="d" horiz-adv-x="981" 
d="M713 952l-0.000976562 139.997c-4.66699 44.667 -8.83398 75.5 -12.501 92.5s-9.33398 28.333 -17.001 34s-19.834 8.5 -36.501 8.5c-18 0 -40.333 -3.33301 -67 -10l-2 30c122.667 50.667 210.667 95 264 133l24 -10c-7.33301 -32 -13.666 -87.667 -18.999 -167
s-10.666 -174.333 -15.999 -285l-4 -99l-8 -403v-97c0 -95.333 3.16699 -166.833 9.5 -214.5s15.5 -71.5 27.5 -71.5c7.33301 0 22.833 3.33301 46.5 10s48.5 14.334 74.5 23.001v-37c-156.667 -54.667 -241.334 -82 -254.001 -82c-10 0 -17.667 13.5 -23 40.5
s-8 67.5 -8 121.5c-72 -38 -129.333 -65 -172 -81s-87.667 -24 -135 -24c-49.333 0 -97.666 12.833 -144.999 38.5s-86.166 63.167 -116.499 112.5s-45.5 106.333 -45.5 171c0 88.667 19.833 162.834 59.5 222.501s85.334 104.667 137.001 135s101 52 148 65
s77.5 19.5 91.5 19.5c20.667 0 47 -2.66699 79 -8s70 -13.666 114 -24.999c4 74 6 146.333 6 217zM691.999 257.997l5.99707 341.999c0 15.333 -11.5 29.166 -34.5 41.499s-48.333 21.833 -76 28.5s-58.167 12.334 -91.5 17.001s-52.666 7 -57.999 7
c-42.667 0 -83.167 -11.167 -121.5 -33.5s-69 -52.833 -92 -91.5s-34.5 -81.667 -34.5 -129c0 -73.333 13.333 -136.666 40 -189.999s62.834 -94 108.501 -122s95.834 -42 150.501 -42c38.667 0 73.834 6.83301 105.501 20.5s64.167 30.834 97.5 51.501
c-0.666992 4.66699 -0.833984 17.667 -0.500977 39s0.5 41.666 0.5 60.999z" />
    <glyph glyph-name="e" unicode="e" horiz-adv-x="748" 
d="M707 520l-500.002 -108.001c3.33301 -62.667 9.5 -111.167 18.5 -145.5s26.833 -69.166 53.5 -104.499c51.333 -67.333 113.333 -101 186 -101c30 0 62 5.66699 96 17s71.667 31.666 113 60.999l18 -24c-116 -83.333 -219 -125 -309 -125
c-95.333 0 -169.666 36 -222.999 108s-80 154.667 -80 248c0 95.333 20.333 174.5 61 237.5s86.334 108.833 137.001 137.5s89 43 115 43c30 0 61.167 -4.83301 93.5 -14.5s64 -28.167 95 -55.5s56.833 -64.666 77.5 -111.999c6 -10 11.667 -16.667 17 -20s15 -5 29 -5z
M208.998 450.999l131 28.001c5.33301 2.66699 25.5 8 60.5 16s58.5 13 70.5 15c34.667 8 56.667 13.667 66 17s14 8.66602 14 15.999c0 10.667 -8 28.834 -24 54.501s-38.833 49.167 -68.5 70.5s-64.5 32 -104.5 32c-50 0 -85.5 -26.333 -106.5 -79
s-33.833 -109.334 -38.5 -170.001z" />
    <glyph glyph-name="f" unicode="f" horiz-adv-x="618" 
d="M70 692l0.000976562 60.002l133 2c0.666992 116 10.667 208 30 276s47.333 123.333 84 166c29.333 34 66 65.167 110 93.5s87.667 50.166 131 65.499s79.333 23 108 23c38.667 0 77 -6.83301 115 -20.5s57 -29.834 57 -48.501c0 -10.667 -7.33301 -26.667 -22 -48
s-28.667 -32 -42 -32l-80 28c-56 20.667 -100.333 31 -133 31c-52.667 0 -95 -15.333 -127 -46s-56.333 -85 -73 -163s-26.334 -186.333 -29.001 -325h272v-64l-272 -2l-4 -285c0 -114.667 1 -199 3 -253s7.66699 -85.667 17 -95c6 -4.66699 16 -7.66699 30 -9
s54.667 -3 122 -5v-39c-39.333 1.33301 -106.166 2.33301 -200.499 3s-173.166 1 -236.499 1v33c35.333 2 61.833 6.5 79.5 13.5s30.667 19.333 39 37s13.666 43 15.999 76s3.5 79.5 3.5 139.5l2 334c0 24 -2.66699 37.667 -8 41c-12.667 8 -54.334 12 -125.001 12z" />
    <glyph glyph-name="g" unicode="g" horiz-adv-x="854" 
d="M342 131c-38 9.33301 -76.501 23.333 -115.501 42s-74.167 48.834 -105.5 90.501s-47 97.834 -47 168.501c0 64 17.167 122.833 51.5 176.5s79 95.667 134 126s111.167 45.5 168.5 45.5c35.333 0 68.333 -4.83301 99 -14.5s59 -24.5 85 -44.5
c48 9.33301 98.667 14 152 14c35.333 0 59.333 -1.33301 72 -4c-2 -36 -11 -72 -27 -108c-45.333 18.667 -93 28 -143 28c8.66699 -12 17.334 -28.167 26.001 -48.5s15.667 -42.166 21 -65.499s8 -46 8 -68c0 -61.333 -13.667 -113.333 -41 -156
s-61.166 -76.834 -101.499 -102.501s-91.833 -53.5 -154.5 -83.5c-117.333 -52 -176 -89.667 -176 -113c0 -40.667 49 -61 147 -61c81.333 0 144.666 -1.33301 189.999 -4s85.333 -9.66699 120 -21s61.667 -30.5 81 -57.5s29 -64.5 29 -112.5
c0 -64.667 -25.167 -121.834 -75.5 -171.501s-114.666 -88 -192.999 -115s-156.833 -40.5 -235.5 -40.5c-101.333 0 -171.666 22.167 -210.999 66.5s-59 91.166 -59 140.499c0 56 17.167 101 51.5 135s77.833 66.667 130.5 98c-70.667 38.667 -105.334 90 -104.001 154
c31.333 24 83.666 49.667 156.999 77zM448.999 184c48 25.333 85.5 53.334 112.5 84.001s40.5 80.667 40.5 150c0 39.333 -5.66699 77.166 -17 113.499s-27 68.5 -47 96.5s-44.5 50.5 -73.5 67.5s-61.5 25.5 -97.5 25.5c-54.667 0 -100.5 -20.833 -137.5 -62.5
s-55.5 -94.5 -55.5 -158.5c0 -90 27 -157.667 81 -203s118.667 -83 194 -113zM278.999 -151.999c-41.333 -12.667 -78.6689 -33.832 -112.002 -63.499s-50 -63.5 -50 -101.5c0 -44 25.667 -83.667 77 -119s117.666 -53 198.999 -53c46 0 96 6.83301 150 20.5
s100.167 35.5 138.5 65.5s57.5 66.667 57.5 110c0 30 -10.333 58.333 -31 85c-21.333 26 -53.333 40.667 -96 44c-9.33301 1.33301 -43.166 1.66602 -101.499 0.999023s-93.166 -1 -104.499 -1c-59.333 0 -101.666 4 -126.999 12z" />
    <glyph glyph-name="h" unicode="h" horiz-adv-x="961" 
d="M37 1217l-0.00195312 37.9971c14.667 7.33301 24.334 12.333 29.001 15l194 94l33 18l33 -16c-12.667 -60 -21.667 -129.167 -27 -207.5s-9.33301 -177.833 -12 -298.5l-6 -203c78.667 34 142.5 59 191.5 75s96.167 24 141.5 24c64 0 110.667 -19.5 140 -58.5
s47.5 -86.667 54.5 -143s10.5 -130.5 10.5 -222.5c0 -18 -0.166992 -34.667 -0.5 -50s-0.833008 -36.833 -1.5 -64.5s-1.5 -53 -2.5 -76s-1.5 -36.167 -1.5 -39.5c0 -28.667 7 -47.667 21 -57s52.667 -14 116 -14l-2 -31h-65c-10 0 -51.167 -0.333008 -123.5 -1
s-109.5 -1 -111.5 -1s-16.667 -3.33301 -44 -10c-6.66699 0 -10 4.66699 -10 14c0 6.66699 5.33301 11.334 16 14.001c25.333 6 44.166 16.667 56.499 32s20.666 41.333 24.999 78s6.5 97 6.5 181c0 132.667 -10.667 227.334 -32 284.001s-70 85 -146 85
c-39.333 0 -82.666 -7.33301 -129.999 -22s-82.333 -28 -105 -40c0 -18.667 -1.33301 -50 -4 -94l-9 -241c0 -15.333 -0.166992 -29.333 -0.5 -42s-0.833008 -26.667 -1.5 -42c0 -64.667 4.33301 -106.334 13 -125.001c3.33301 -11.333 11.333 -19.166 24 -23.499
s46.334 -8.83301 101.001 -13.5v-35c-22 2.66699 -68.667 4 -140 4c-74 0 -153.667 -3.33301 -239 -10l2 33c42.667 8.66699 70.834 17.167 84.501 25.5s23 24.166 28 47.499s8.5 67 10.5 131c2 104.667 4.66699 194.334 8 269.001l4 280c1.33301 28.667 2 92.334 2 191.001
c0 90 -3.83301 156.5 -11.5 199.5s-26.5 64.5 -56.5 64.5c-4.66699 0 -25.667 -5.33301 -63 -16z" />
    <glyph glyph-name="i" unicode="i" horiz-adv-x="492" 
d="M66 -4l4.00195 30.9971c56.667 5.33301 88.667 15.333 96 30c3.33301 6 6.33301 29.833 9 71.5s4.83398 91.334 6.50098 149.001s2.5 90.167 2.5 97.5c0 94.667 -1.5 155.334 -4.5 182.001s-8.83301 45 -17.5 55c-2.66699 3.33301 -19.334 6.66602 -50.001 9.99902
s-46 7.66602 -46 12.999c0 10.667 6 17.334 18 20.001c79.333 24.667 157 68.334 233 131.001c4.66699 0 11 -1.33301 19 -4c-6.66699 -27.333 -12.334 -67.333 -17.001 -120s-8.5 -108 -11.5 -166s-4.5 -109.333 -4.5 -154c0 -33.333 1.16699 -81.166 3.5 -143.499
s6.5 -104.5 12.5 -126.5c5.33301 -12 12 -19.667 20 -23s24 -6 48 -8c23.333 -0.666992 46.666 -2.66699 69.999 -6l12 -29zM217.002 1192c0 22.667 7.66699 41.332 23 55.999s33.666 22 54.999 22s39.333 -7.66699 54 -23s22 -33.666 22 -54.999
s-7.16699 -39.666 -21.5 -54.999s-32.5 -23 -54.5 -23c-21.333 0 -39.666 7.66699 -54.999 23s-23 33.666 -23 54.999z" />
    <glyph glyph-name="j" unicode="j" horiz-adv-x="469" 
d="M53 627l-13.9971 30.002c112 44.667 206.333 99.334 283 164.001c6.66699 -6.66699 12 -11.334 16 -14.001c-16.667 -52 -25 -131.333 -25 -238v-313l4 -344c1.33301 -66 -0.833984 -115.833 -6.50098 -149.5s-20.834 -66.334 -45.501 -98.001
s-67.334 -72.167 -128.001 -121.5c-28 -22.667 -45.833 -41 -53.5 -55s-13.5 -34.333 -17.5 -61l-5 -2l-30 28c0.666992 31.333 7.33398 59.166 20.001 83.499s31 52.5 55 84.5c30 40 51.333 77 64 111s20.334 73.667 23.001 119s4 120.333 4 225
c0 100.667 -1.33301 197 -4 289s-7.66699 155.333 -15 190c-6 26.667 -13.833 47 -23.5 61s-25.834 21 -48.501 21c-6.66699 0 -24.334 -3.33301 -53.001 -10zM193.003 1180c0 26.667 8.66699 48.001 26 64.001s37.333 24 60 24c13.333 0 26.166 -3.16699 38.499 -9.5
s21.833 -15.5 28.5 -27.5s10 -24.333 10 -37c0 -20.667 -9.16699 -39.834 -27.5 -57.501s-39.166 -26.5 -62.499 -26.5c-21.333 0 -38.833 6.5 -52.5 19.5s-20.5 29.833 -20.5 50.5z" />
    <glyph glyph-name="k" unicode="k" horiz-adv-x="938" 
d="M27 -2l0.00292969 33c31.333 3.33301 54.666 8.16602 69.999 14.499s26.333 15.333 33 27s11.667 29.167 15 52.5c4.66699 51.333 8 127 10 227s3.66699 200.167 5 300.5s2 179.166 2 236.499c0 148.667 -6.33301 246.334 -19 293.001c-9.33301 28.667 -25 43 -47 43
c-10.667 0 -22.5 -2.33301 -35.5 -7s-22.833 -8.66699 -29.5 -12l2 33c5.33301 3.33301 13.5 7.83301 24.5 13.5l28 14l31 14.5l37.5 17c42 18 72.667 32.167 92 42.5s33.666 22.166 42.999 35.499h30c-7.33301 -24 -14 -68.833 -20 -134.5s-10.833 -150 -14.5 -253
s-6 -191.167 -7 -264.5s-1.5 -118.666 -1.5 -135.999l-2 -137c13.333 4.66699 43.166 22.334 89.499 53.001s87.166 62.5 122.499 95.5s53 59.833 53 80.5c0 16.667 -6.16699 28 -18.5 34s-30.833 10.333 -55.5 13v29l92 -2c19.333 -1.33301 63.666 -2 132.999 -2
c34 0 89.333 0.666992 166 2l-4 -37c-42 -4 -81.5 -14.167 -118.5 -30.5s-89.833 -47.166 -158.5 -92.499l-172 -115c21.333 -22 108.333 -106.667 261 -254c78.667 -78.667 135.167 -129 169.5 -151s66.5 -35.667 96.5 -41v-35c-9.33301 1.33301 -19.166 2.5 -29.499 3.5
s-19.333 1.66699 -27 2s-25.167 0.5 -52.5 0.5h-78c-72 0 -130.667 -2 -176 -6v35c7.33301 2 18.5 4 33.5 6s26.833 4.16699 35.5 6.5s13 5.5 13 9.5c0 6.66699 -10.667 22.834 -32 48.501s-38.666 45.167 -51.999 58.5l-149 147l-66 60
c-4.66699 5.33301 -14.5 14.166 -29.5 26.499s-24.833 18.5 -29.5 18.5c-11.333 0 -17 -11.667 -17 -35v-107c0 -62.667 0.5 -107.5 1.5 -134.5s3.16699 -47 6.5 -60s9 -21.167 17 -24.5c16 -6.66699 48 -13.334 96 -20.001l-2 -35c-34.667 5.33301 -77 8 -127 8
c-74 0 -153.667 -2.66699 -239 -8z" />
    <glyph glyph-name="l" unicode="l" horiz-adv-x="492" 
d="M27 -4v31.002c50 8.66699 85.333 23.667 106 45s33.667 54 39 98c3.33301 22.667 7 74.834 11 156.501s7.66699 175.167 11 280.5s5 200 5 284c0 176 -9 276.333 -27 301c-11.333 16.667 -34 25 -68 25c-8 0 -14.333 -0.333008 -19 -1s-9 -1.33398 -13 -2.00098
s-8.33301 -1.33398 -13 -2.00098v31c127.333 53.333 217 98.333 269 135h30c-20.667 -78.667 -33.667 -221.334 -39 -428.001l-8 -481c0 -225.333 5 -353 15 -383c6 -17.333 26 -30.5 60 -39.5s64.333 -14.833 91 -17.5v-37c-130.667 9.33301 -218.667 14 -264 14
c-60.667 0 -122.667 -3.33301 -186 -10z" />
    <glyph glyph-name="m" unicode="m" horiz-adv-x="1450" 
d="M29 -2l2.00195 31.002c40 9.33301 69 21 87 35s31.167 43.667 39.5 89s12.5 114.333 12.5 207c0 90 -4.5 154 -13.5 192s-22.333 61.667 -40 71s-46.834 14.666 -87.501 15.999v33c71.333 16.667 144.333 47.334 219 92.001c8 5.33301 14.667 8 20 8
c13.333 0 21.5 -17.333 24.5 -52s3.16699 -65 0.5 -91c14 8 38.833 21.5 74.5 40.5s63.667 33.333 84 43s46.5 19.667 78.5 30s60 15.5 84 15.5c34.667 0 68.834 -9.83301 102.501 -29.5s56.834 -52.167 69.501 -97.5c123.333 65.333 230 98 320 98
c64 0 110.667 -14.333 140 -43s47.166 -65.5 53.499 -110.5s9.5 -109.833 9.5 -194.5v-178c-2 -51.333 -2.66699 -86.5 -2 -105.5s3.83398 -31.333 9.50098 -37s16.167 -9.5 31.5 -11.5c5.33301 -0.666992 23.833 -4.33398 55.5 -11.001s49.834 -10.334 54.501 -11.001
l-14 -27h-379l-6 27c41.333 10.667 69.666 22.334 84.999 35.001s26.166 39.667 32.499 81s9.5 113.666 9.5 216.999c0 61.333 -5.16699 113.333 -15.5 156s-28.833 75.5 -55.5 98.5s-63.667 34.5 -111 34.5c-60 0 -129.667 -18.333 -209 -55
c3.33301 -28 5.66602 -76.167 6.99902 -144.5l4 -211c1.33301 -72.333 2.33301 -119.166 3 -140.499c1.33301 -18 4.33301 -30.5 9 -37.5s13.5 -12.167 26.5 -15.5s40.833 -8 83.5 -14v-31h-125c-11.333 0 -53.333 -1.33301 -126 -4s-116 -4 -130 -4l-6 31
c44 8.66699 75.667 20.167 95 34.5s32.166 39.666 38.499 75.999s8.83301 98.166 7.5 185.499l-2 97c-1.33301 82 -13.833 144.5 -37.5 187.5s-62.5 64.5 -116.5 64.5c-26 0 -53.333 -4.66699 -82 -14s-56 -20.5 -82 -33.5l-67 -34.5
c-0.666992 -11.333 -1.33398 -40.166 -2.00098 -86.499s-1.33398 -84.5 -2.00098 -114.5v-102c1.33301 -119.333 3.33301 -184.333 6 -195c2.66699 -12 12.334 -22.833 29.001 -32.5s52.667 -18.5 108 -26.5v-35c-8 0 -36.667 1.33301 -86 4s-78.666 4 -87.999 4z" />
    <glyph glyph-name="n" unicode="n" horiz-adv-x="961" 
d="M37 14l-2.00195 28.998c36 6.66699 62.333 13.667 79 21s27.667 15.666 33 24.999s9 22 11 38c5.33301 36.667 9 81.667 11 135s3 107.333 3 162c0 76 -2.5 127.833 -7.5 155.5s-15.667 45.334 -32 53.001s-46.833 13.834 -91.5 18.501c0 8.66699 -0.666992 15 -2 19
c28.667 7.33301 66.834 21.5 114.501 42.5s72.834 32.833 75.501 35.5c25.333 13.333 40.333 20 45 20c10 0 16.333 -9.66699 19 -29s4 -51.333 4 -96c73.333 41.333 133.666 70.833 180.999 88.5s92.666 26.5 135.999 26.5c64.667 0 111.834 -14.167 141.501 -42.5
s48 -62.666 55 -102.999s10.5 -93.5 10.5 -159.5v-238c0 -94 4.33301 -145.333 13 -154c4.66699 -4.66699 21.667 -10.334 51 -17.001s46.333 -11 51 -13l2 -31c-50 8 -108 12 -174 12c-56 0 -123 -4 -201 -12v29c60.667 12 98.334 31 113.001 57
c10 22 16.833 68.5 20.5 139.5s5.5 126.167 5.5 165.5c0 58.667 -2.5 106.834 -7.5 144.501s-18.833 69.834 -41.5 96.501s-58 40 -106 40c-21.333 0 -53.666 -4.33301 -96.999 -13s-94.333 -28.334 -153 -59.001l-6 -266c-1.33301 -113.333 0 -188.333 4 -225
c1.33301 -16 4.5 -28 9.5 -36s16.167 -15.167 33.5 -21.5s46.666 -11.833 87.999 -16.5l-2 -31c-14.667 1.33301 -35.667 3 -63 5s-62.333 3.66699 -105 5h-219z" />
    <glyph glyph-name="o" unicode="o" horiz-adv-x="961" 
d="M78 375c0 58.667 10.834 111.83 32.501 159.497s51.5 88.834 89.5 123.501s82.333 61.334 133 80.001s105 28 163 28c52.667 0 102.5 -9.66699 149.5 -29s88.167 -46 123.5 -80s63.166 -74.167 83.499 -120.5s30.5 -96.166 30.5 -149.499
c0 -69.333 -16.5 -134.333 -49.5 -195s-79.667 -109.5 -140 -146.5s-129.833 -55.5 -208.5 -55.5c-59.333 0 -120.5 13 -183.5 39s-116 67.833 -159 125.5s-64.5 131.167 -64.5 220.5zM209.001 429.996c0 -62 12.333 -123.669 37 -185.002s59.167 -111.666 103.5 -150.999
s93.166 -59 146.499 -59c46.667 0 89 12.833 127 38.5s68.333 62.167 91 109.5s34 101 34 161c0 60.667 -13.167 119.834 -39.5 177.501s-62.666 104.667 -108.999 141s-97.5 54.5 -153.5 54.5c-45.333 0 -86 -12.333 -122 -37s-64.167 -59 -84.5 -103s-30.5 -93 -30.5 -147
z" />
    <glyph glyph-name="p" unicode="p" horiz-adv-x="981" 
d="M31 625l-7.99805 28.0029c32 19.333 54.333 31.666 67 36.999c9.33301 0 38.5 14 87.5 42s82.833 53.667 101.5 77c5.33301 -16 12.666 -63 21.999 -141l86 34c89.333 37.333 157 56 203 56c50 0 99.833 -16.333 149.5 -49s90 -76.667 121 -132
s46.5 -114.666 46.5 -177.999c0 -80.667 -18.333 -147.834 -55 -201.501s-81.834 -95 -135.501 -124s-105.334 -49.167 -155.001 -60.5s-87.167 -17 -112.5 -17c-41.333 0 -90.666 9.66699 -147.999 29c0 -12 -0.666992 -49.667 -2 -113s-2 -100.333 -2 -111v-182
c0 -42.667 1.66699 -73 5 -91s9.5 -29.5 18.5 -34.5s24.5 -8.16699 46.5 -9.5l73 -4c16.667 0 25 -6.33301 25 -19c0 -8 -2.5 -13 -7.5 -15s-16.833 -3 -35.5 -3c-82.667 0 -134.334 -0.5 -155.001 -1.5s-88.667 -5.16699 -204 -12.5c0 12 -0.666992 22 -2 30
c34 2.66699 56.667 7.5 68 14.5s20.333 18.5 27 34.5c10.667 29.333 17.667 88.166 21 176.499s5 180.5 5 276.5l2 125c0 96 -0.666992 195.167 -2 297.5s-4 164.833 -8 187.5c-3.33301 13.333 -8.5 26.166 -15.5 38.499s-15.333 22.333 -25 30s-19.5 11.5 -29.5 11.5
c-7.33301 0 -31.666 -8.66699 -72.999 -26zM299.002 627.003l-2.00098 -506.001l92 -31c70 -23.333 118.667 -35 146 -35c32.667 0 69 8.16699 109 24.5s75.167 43.833 105.5 82.5s45.5 89 45.5 151c0 68 -15.667 130.833 -47 188.5s-70.333 102.834 -117 135.501
s-91 49 -133 49c-21.333 0 -87.666 -19.667 -198.999 -59z" />
    <glyph glyph-name="q" unicode="q" horiz-adv-x="961" 
d="M539 -569l-4.00195 34.001c40 4 69.833 10.667 89.5 20s33.667 24.5 42 45.5s13.666 51.333 15.999 91s3.5 103.834 3.5 192.501v227l-113 -35c-59.333 -19.333 -109.666 -29 -150.999 -29c-61.333 0 -118.5 15.667 -171.5 47s-95.333 74.333 -127 129
s-47.5 113.667 -47.5 177c0 81.333 23.333 155 70 221s106.834 117.333 180.501 154s150.5 55 230.5 55c54 0 101.667 -9.66699 143 -29c26.667 -14.667 46 -22 58 -22c6.66699 0 22.5 10.833 47.5 32.5s39.833 32.5 44.5 32.5c9.33301 0 14 -3.33301 14 -10
c0 -5.33301 -3.33301 -15.666 -10 -30.999c-11.333 -30.667 -19.166 -62.834 -23.499 -96.501s-7.83301 -90.834 -10.5 -171.501s-5 -185.667 -7 -315v-338c0.666992 -50 1.33398 -96.667 2.00098 -140s1.5 -77.333 2.5 -102s2.66699 -43.334 5 -56.001
s5.16602 -20.667 8.49902 -24c2.66699 -1.33301 20.167 -4 52.5 -8s55.833 -7.33301 70.5 -10v-33c-21.333 1.33301 -54 2 -98 2c-20 0 -76.667 -1.33301 -170 -4c-72 -4 -121 -6 -147 -6zM693.998 193.001l4 178c0 150 -2.66699 229 -8 237c-10 19.333 -38 39.833 -84 61.5
s-90.333 32.5 -133 32.5c-48.667 0 -92.834 -13.667 -132.501 -41s-71.5 -66.333 -95.5 -117s-36 -109 -36 -175c0 -64.667 13.667 -122.167 41 -172.5s64 -88.833 110 -115.5s94 -40 144 -40c42 0 75.833 5.16699 101.5 15.5s53.834 24.833 84.501 43.5
c2.66699 30.667 4 61.667 4 93z" />
    <glyph glyph-name="r" unicode="r" horiz-adv-x="641" 
d="M49 -2l2.00195 28.999c33.333 6.66699 56.333 13.334 69 20.001s23.667 22.334 33 47.001s15.5 61.667 18.5 111s4.5 125 4.5 227c0 80.667 -4.33301 134.334 -13 161.001s-30.334 40 -65.001 40c-20.667 0 -41.667 -2.66699 -63 -8l4 32l258 150
c2.66699 -41.333 4 -98 4 -170l107 61l14 9c7.33301 4 15.666 8.83301 24.999 14.5l48 29l54 33.5l8 -4c4 -4 8.66699 -7.33301 14 -10c20 -9.33301 35.667 -20 47 -32s17 -29.333 17 -52c0 -26 -10.667 -47.333 -32 -64s-47 -26.667 -77 -30c0 22.667 -5.33301 40 -16 52
s-25.667 18 -45 18c-20 0 -43.667 -7.16699 -71 -21.5s-48 -27.833 -62 -40.5c-16.667 -14.667 -26.5 -26.834 -29.5 -36.501s-4.83301 -33.5 -5.5 -71.5c-4 -112.667 -6 -172.334 -6 -179.001c0 -130 6.66699 -210.333 20 -241c6 -10.667 12.667 -17.167 20 -19.5
s20 -3.5 38 -3.5l26 2l119 2l-2 -41c-3.33301 0 -24.333 -0.666992 -63 -2s-64.667 -2 -78 -2z" />
    <glyph glyph-name="s" unicode="s" horiz-adv-x="662" 
d="M55 225l35 -2.00391c0 -12.667 10.833 -33.334 32.5 -62.001s50.834 -54.5 87.501 -77.5s76.667 -34.5 120 -34.5c31.333 0 62.666 6.66699 93.999 20s47 42.333 47 87c0 46.667 -16.333 84.334 -49 113.001c-32.667 28 -69.667 52.333 -111 73l-75 35
c-44 22.667 -79 46.667 -105 72c-26 24.667 -39 56.667 -39 96c0 30.667 11 62.834 33 96.501s53.833 61.5 95.5 83.5s88.834 33 141.501 33c32 0 85.333 -5 160 -15l33 -170h-35c-6 23.333 -19.833 45.5 -41.5 66.5s-47 38.833 -76 53.5s-53.833 22 -74.5 22
c-35.333 0 -64 -11 -86 -33s-33 -50 -33 -84c0 -27.333 8 -49 24 -65c16 -16.667 46.333 -36 91 -58l61 -29c55.333 -26 102.666 -56.333 141.999 -91c39.333 -35.333 59 -84 59 -146c0 -23.333 -4.83301 -48.166 -14.5 -74.499s-24.167 -45.166 -43.5 -56.499
c-55.333 -35.333 -101 -58.166 -137 -68.499s-72.667 -15.5 -110 -15.5c-13.333 0 -32.333 1.66699 -57 5s-42 6 -52 8s-27.333 6.66699 -52 14s-40.667 12 -48 14c5.33301 26.667 8 45.667 8 57c0 16.667 -2.83301 39.5 -8.5 68.5s-11.167 50.5 -16.5 64.5z" />
    <glyph glyph-name="t" unicode="t" horiz-adv-x="598" 
d="M145 287l4.99902 389.002c-30.667 4 -66.334 6 -107.001 6c1.33301 5.33301 2 13.666 2 24.999c58 35.333 103.333 69 136 101s71.334 77.333 116.001 136l-10 -180c57.333 -5.33301 120 -8 188 -8c32.667 0 68.334 0.666992 107.001 2l-2 -62
c-34.667 -4 -70.334 -6 -107.001 -6c-3.33301 0 -16.333 0.5 -39 1.5l-106 4.5c-12.667 0 -22.167 -1.16699 -28.5 -3.5s-10.666 -6.83301 -12.999 -13.5s-4 -19.334 -5 -38.001s-1.83301 -38.334 -2.5 -59.001l-5 -312c-1.33301 -60 5.5 -109.5 20.5 -148.5
s51.167 -58.5 108.5 -58.5c22 0 49.167 4.83301 81.5 14.5s69.5 24.167 111.5 43.5c1.33301 -5.33301 2.16602 -9.33301 2.49902 -12s0.833008 -5.66699 1.5 -9c-23.333 -25.333 -66.166 -50.333 -128.499 -75s-118.5 -37 -168.5 -37c-43.333 0 -80.5 14.833 -111.5 44.5
s-46.5 80.834 -46.5 153.501v101z" />
    <glyph glyph-name="u" unicode="u" horiz-adv-x="938" 
d="M20 606l-0.00195312 41.001l222 123l20 8c9.33301 0 14 -6 14 -18l-12 -172c-8 -136 -12 -220 -12 -252c0 -75.333 10 -137.833 30 -187.5s66.667 -74.5 140 -74.5c23.333 0 47.5 3.83301 72.5 11.5s54 19.334 87 35.001l77.5 37.5c0 50 1 82.667 3 98l6 205
c2 62 0 105.833 -6 131.5s-17.5 42.167 -34.5 49.5s-45.167 11.666 -84.5 12.999l-2 37l266 62c-3.33301 -60 -6.83301 -117.167 -10.5 -171.5s-7 -112.5 -10 -174.5s-4.5 -108 -4.5 -138c0 -97.333 6.33301 -165.333 19 -204c34.667 1.33301 72 9.33301 112 24v-45
c-75.333 -20.667 -151.666 -45.334 -228.999 -74.001c-11.333 37.333 -20.333 84.666 -27 141.999c-163.333 -83.333 -276.666 -125 -339.999 -125c-42.667 0 -85.334 20.333 -128.001 61s-62 119.334 -58 236.001l8 225c1.33301 40 -0.166992 70.5 -4.5 91.5
s-17.166 31.5 -38.499 31.5c-12 0 -37.333 -9 -76 -27z" />
    <glyph glyph-name="v" unicode="v" horiz-adv-x="811" 
d="M412 -47l-30.999 -0.00292969c-18 76 -45.833 166.667 -83.5 272s-75.834 203.833 -114.501 295.5s-62 140.834 -70 147.501s-19.5 13.834 -34.5 21.501l-37.5 19.5v24c22 -1.33301 57.333 -2 106 -2c73.333 0 158.666 2.66699 255.999 8l-4 -34
c-47.333 -5.33301 -77.166 -10.666 -89.499 -15.999s-18.5 -13.666 -18.5 -24.999c0 -31.333 20 -107.5 60 -228.5s71.667 -207.5 95 -259.5c44.667 71.333 86.334 154.833 125.001 250.5s58 163.167 58 202.5c0 30.667 -9.66699 50.667 -29 60s-45.333 14.666 -78 15.999
l4 32l70 2c36 -4 67.333 -6 94 -6c42 0 80.333 4 115 12v-30c-30.667 -12.667 -56.834 -35.334 -78.501 -68.001s-37.167 -62 -46.5 -88c-2 -3.33301 -7.66699 -16.166 -17 -38.499s-16 -36.833 -20 -43.5l-180 -397z" />
    <glyph glyph-name="w" unicode="w" horiz-adv-x="1260" 
d="M377 -37l-32.999 -1.99805c-11.333 90 -56.333 258 -135 504c-22.667 66.667 -41 114.667 -55 144s-28.167 49.833 -42.5 61.5s-35.833 23.167 -64.5 34.5v24c18 2.66699 43.333 4 76 4c80 0 135 0.666992 165 2s63 4 99 8l-6 -38c-34 -4 -57.167 -9.33301 -69.5 -16
s-18.5 -18 -18.5 -34c0 -34.667 12 -91.334 36 -170.001s53 -166 87 -262l12 -28c5.33301 14.667 8.66602 24 9.99902 28c10.667 18.667 27.667 50.834 51 96.501s46.666 94 69.999 145s40.333 94.167 51 129.5c-16.667 42.667 -32.334 69.667 -47.001 81
s-40.667 19.666 -78 24.999l4 33l99 -2c10.667 0 73.334 2.66699 188.001 8l64 2l-2 -32c-67.333 -4 -101 -22 -101 -54c0 -10 10.833 -53.5 32.5 -130.5s56.5 -191.167 104.5 -342.5l88.5 174c27.667 56 52.667 111.833 75 167.5s33.5 96.167 33.5 121.5
c0 20 -3.83301 34.833 -11.5 44.5s-16 15.667 -25 18s-24.167 4.16602 -45.5 5.49902l2 28c38.667 -2.66699 80.334 -4 125.001 -4c39.333 0 85 1.33301 137 4c0 -12 -0.666992 -20.667 -2 -26c-23.333 -5.33301 -45.333 -22.833 -66 -52.5s-62.667 -105.167 -126 -226.5
l-129 -256c-8 -11.333 -17.833 -29.666 -29.5 -54.999s-24.667 -56.333 -39 -93s-22.833 -60.334 -25.5 -71.001h-31c-2 12.667 -6 30.167 -12 52.5l-17 62.5l-82 276l-20.5 62.5l-32.5 97.5l-201 -416c-37.333 -84 -58.333 -128.333 -63 -133z" />
    <glyph glyph-name="x" unicode="x" horiz-adv-x="831" 
d="M33 0l2.00195 36.999c26 4 45.5 9.83301 58.5 17.5s29.5 24.167 49.5 49.5c16 18 26 29.5 30 34.5s23.333 27.167 58 66.5l140 157c-32.667 67.333 -67.334 131.833 -104.001 193.5s-66.334 101.167 -89.001 118.5c-10.667 8.66699 -26.167 15 -46.5 19s-46.5 8 -78.5 12
l4 36l84 -2c11.333 0 24.333 -0.166992 39 -0.5s31.667 -0.833008 51 -1.5c66.667 0 123.334 3.66699 170.001 11l9 -39c-20 -1.33301 -35.333 -4 -46 -8s-16 -13 -16 -27c0 -21.333 35.667 -93.666 107 -216.999c26.667 26.667 57.5 61.5 92.5 104.5s52.5 76.5 52.5 100.5
c0 24.667 -32.667 41 -98 49l12 32c20.667 -1.33301 48 -3.33301 82 -6c18 -1.33301 44.667 -2 80 -2s75 2.66699 119 8v-32c-32.667 -2 -70.5 -25.167 -113.5 -69.5s-107.167 -119.5 -192.5 -225.5l-8 -10l109 -203c40.667 -74 73.667 -120.333 99 -139
s60.666 -29.667 105.999 -33v-35c-30.667 4 -91 6 -181 6c-83.333 0 -137 -2 -161 -6l-7 39c38 2 60.833 3.83301 68.5 5.5s11.5 6.5 11.5 14.5l-80 166l-49 94c-54 -54 -96.833 -104 -128.5 -150s-47.5 -75.667 -47.5 -89c0 -11.333 6.5 -19.666 19.5 -24.999
s37.167 -10 72.5 -14l4 -37c-32 3.33301 -59.5 5.16602 -82.5 5.49902s-44.5 0.5 -64.5 0.5c-49.333 0 -95 -2 -137 -6z" />
    <glyph glyph-name="y" unicode="y" horiz-adv-x="831" 
d="M23 698l-0.00292969 31.001c32.667 -4 78.334 -6 137.001 -6c68.667 0 137 4 205 12l-3 -37c-27.333 -5.33301 -47 -11.5 -59 -18.5s-18 -20.5 -18 -40.5c0 -32 14.333 -101.333 43 -208s62.667 -212.667 102 -318l66 118c28.667 49.333 62.667 118 102 206
s59 148.333 59 181c0 46.667 -46.333 75.667 -139 87l14 32c79.333 -8 148.333 -12 207 -12c43.333 0 76.333 2 99 6l-2 -33c-18 -2.66699 -34.167 -9.5 -48.5 -20.5s-27.666 -26.333 -39.999 -46s-25.833 -44.5 -40.5 -74.5l-109 -225
c-1.33301 -3.33301 -26.666 -52.666 -75.999 -147.999c-71.333 -140 -124.833 -251.333 -160.5 -334s-61.667 -151.334 -78 -206.001s-35.166 -127 -56.499 -217h-213v34c44 10 79.333 25.5 106 46.5s50.667 49.667 72 86s48 91.166 80 164.499l78 174
c-38 143.333 -73 269.333 -105 378s-62.333 197 -91 265c-13.333 34.667 -26.833 60.5 -40.5 77.5s-26.334 27.667 -38.001 32s-29.167 8.83301 -52.5 13.5z" />
    <glyph glyph-name="z" unicode="z" horiz-adv-x="831" 
d="M41 -12l-14.001 27.9971c64.667 62.667 132.334 134.834 203.001 216.501s135.167 160.334 193.5 236.001l166.5 221.5h-236c-78.667 1.33301 -142.5 -6.5 -191.5 -23.5s-80.5 -47.5 -94.5 -91.5h-39c21.333 42 36.666 78.167 45.999 108.5s13.666 59.833 12.999 88.5
c19.333 -10 33.166 -16.5 41.499 -19.5s23.833 -6 46.5 -9s46 -4.83301 70 -5.5s67 -1 129 -1l235 -2c29.333 0.666992 57 1.16699 83 1.5s63.333 0.5 112 0.5c-29.333 -40.667 -52.666 -71.334 -69.999 -92.001l-157 -188l-123 -144
c-11.333 -11.333 -47.333 -54.666 -108 -129.999s-93.667 -118.666 -99 -129.999c56 -5.33301 120 -8 192 -8c64.667 0 117.834 3.66699 159.501 11s78.334 24.333 110.001 51s54.5 66 68.5 118h31c-6.66699 -60 -27 -139.667 -61 -239c-11.333 0 -18.333 1.33301 -21 4
c-37.333 6.66699 -83 10 -137 10l-365 -2c-82 0 -143.333 -3.33301 -184 -10z" />
    <glyph glyph-name="braceleft" unicode="{" horiz-adv-x="1044" 
d="M244 344l-0.00292969 36.998c41.333 4.66699 79.833 17 115.5 37s63.5 45.167 83.5 75.5s30 62.5 30 96.5c0 16.667 -6.66699 68.334 -20 155.001c-14 86.667 -21 140.667 -21 162c0 63.333 15.833 122.833 47.5 178.5s76 101.834 133 138.501
s119.833 59.334 188.5 68.001v-35c-49.333 -10.667 -91.666 -27.834 -126.999 -51.501s-61.333 -51 -78 -82s-25 -62.833 -25 -95.5c0 -8 1.83301 -25.167 5.5 -51.5s8.33398 -57.833 14.001 -94.5l16 -107c5 -34.667 7.5 -57.334 7.5 -68.001
c0 -38.667 -6.33301 -74.834 -19 -108.501s-31.167 -65 -55.5 -94s-54.5 -55.5 -90.5 -79.5s-77 -44 -123 -60v-5c90.667 -30 161.334 -75.5 212.001 -136.5s76 -129.5 76 -205.5c0 -14 -6.66699 -67 -20 -159c-15.333 -86.667 -23 -140.667 -23 -162
c0 -52 19.667 -99.167 59 -141.5s96.333 -71.5 171 -87.5v-35c-68.667 8.66699 -131.5 31.334 -188.5 68.001s-101.333 82.834 -133 138.501s-47.5 115.167 -47.5 178.5c0 14.667 6.83301 66 20.5 154s20.5 142.333 20.5 163c0 34 -10 66.167 -30 96.5
s-47.833 55.5 -83.5 75.5s-74.167 32.333 -115.5 37z" />
    <glyph glyph-name="bar" unicode="|" horiz-adv-x="1087" 
d="M496 -295v1815h96v-1815h-96z" />
    <glyph glyph-name="braceright" unicode="}" horiz-adv-x="1044" 
d="M801 381v-36.998c-66 -8 -120.833 -31.833 -164.5 -71.5s-65.5 -85.5 -65.5 -137.5c0 -12 7 -63.667 21 -155c13.333 -90.667 20 -144.667 20 -162c0 -62.667 -15.667 -122 -47 -178s-75.333 -102.333 -132 -139s-119.667 -59.334 -189 -68.001v35
c75.333 16 132.333 45.167 171 87.5s58 89.5 58 141.5c0 15.333 -7.16699 69.5 -21.5 162.5s-21.5 145.833 -21.5 158.5c0 50 11.333 97.167 34 141.5s55.667 83.833 99 118.5s95.333 62 156 82v5c-60.667 20 -112.667 47.333 -156 82s-76.333 74.167 -99 118.5
s-34 91.5 -34 141.5c0 18 7 71 21 159c14.667 100 22 154 22 162c0 52 -19.333 99.167 -58 141.5s-95.667 71.5 -171 87.5v35c69.333 -8.66699 132.333 -31.334 189 -68.001s100.667 -83 132 -139s47 -115.333 47 -178c0 -18.667 -6.83301 -71.667 -20.5 -159
s-20.5 -140 -20.5 -158c0 -52 21.833 -97.833 65.5 -137.5s98.5 -63.5 164.5 -71.5z" />
    <glyph glyph-name="asciitilde" unicode="~" 
d="M160 557l-44.998 -0.00292969c4.66699 86.667 24.167 151.834 58.5 195.501s68.666 70.834 102.999 81.501s62.833 16 85.5 16c30 0 71.5 -7.5 124.5 -22.5s146.833 -51.833 281.5 -110.5c46.667 -20.667 85.667 -36.167 117 -46.5s55 -16.833 71 -19.5s32.667 -4 50 -4
c28 0 56 5.66699 84 17s52.667 31.833 74 61.5s34.666 69.834 39.999 120.501h47c-0.666992 -58.667 -13 -110.167 -37 -154.5s-55.5 -78.166 -94.5 -101.499s-81.833 -35 -128.5 -35c-28.667 0 -52.667 2.16699 -72 6.5s-52 15.166 -98 32.499l-227 90
c-65.333 27.333 -115 45.5 -149 54.5s-63 13.5 -87 13.5c-105.333 0 -171.333 -65 -198 -195z" />
    <glyph glyph-name="nonbreakingspace" unicode="&#xa0;" horiz-adv-x="502" 
 />
    <glyph glyph-name="exclamdown" unicode="&#xa1;" horiz-adv-x="426" 
d="M197 434l41.001 -6c-6 -135.333 -9 -302 -9 -500c0 -80.667 1.33301 -134.334 4 -161.001c4 -26.667 13 -44 27 -52c15.333 -11.333 23 -19.333 23 -24c0 -9.33301 -7 -15 -21 -17c-20.667 -7.33301 -81.334 -30.333 -182.001 -69c-8 0 -12 4.66699 -12 14
c0 6.66699 0.666992 13 2 19l94 571c4 22.667 13.667 90.334 29 203.001c2.66699 2.66699 4 10 4 22zM348.001 678c0 -9.33301 -8.66602 -19.6699 -25.999 -31.0029c-29.333 -15.333 -54.666 -42.666 -75.999 -81.999c-7.33301 -10.667 -16.333 -16 -27 -16
s-19.167 5.5 -25.5 16.5s-9.5 18.5 -9.5 22.5c-26 34.667 -47.667 56.334 -65 65.001c-13.333 8 -20.833 13 -22.5 15s-2.5 6.66699 -2.5 14c0 10 5.66699 18.333 17 25c29.333 13.333 55.666 39 78.999 77c9.33301 15.333 19 23 29 23c11.333 0 21.666 -7 30.999 -21
c13.333 -23.333 24.333 -39.666 33 -48.999s23 -19.333 43 -30c14.667 -9.33301 22 -19 22 -29z" />
    <glyph glyph-name="cent" unicode="&#xa2;" horiz-adv-x="768" 
d="M532 1090l61.999 203.999l45 -14l-59 -201c103.333 -24 155 -47 155 -69c0 -7.33301 -9.33301 -25 -28 -53s-33.667 -42 -45 -42l-117 54l-168 -557c52 -28.667 101.667 -43 149 -43c50.667 0 114.334 21.667 191.001 65l14 -28c-90.667 -74 -182 -111 -274 -111
c-29.333 0 -66.333 5.33301 -111 16l-84 -284l-43 12l84 285c-67.333 24.667 -120 59.334 -158 104.001s-57 117.667 -57 219c0 66.667 14.5 128.667 43.5 186s66.5 106.333 112.5 147s95 70.667 147 90s99 26 141 20zM337.999 437.999l164 543
c-42 9.33301 -72.667 14 -92 14c-67.333 0 -118 -22 -152 -66s-51 -110 -51 -198c0 -127.333 43.667 -225 131 -293z" />
    <glyph glyph-name="sterling" unicode="&#xa3;" horiz-adv-x="1004" 
d="M57 635l27.0029 53.0049c21.333 -8 41 -12 59 -12c29.333 0 49 0.166992 59 0.5s24.667 1 44 2s36.333 2.16699 51 3.5c0.666992 104.667 5.83398 186.5 15.501 245.5s22.5 103.167 38.5 132.5s37 57 63 83c58.667 61.333 118.834 103.333 180.501 126
s112.834 34 153.501 34c42.667 0 91.667 -16 147 -48c10 -6.66699 17.667 -10 23 -10c7.33301 0 18.666 6.33301 33.999 19l25 -25c-4.66699 -8 -25 -28.333 -61 -61s-56 -52 -60 -58c-31.333 31.333 -68 57.666 -110 78.999s-81.667 32 -119 32
c-20 0 -44.833 -9.33301 -74.5 -28s-52.834 -41.334 -69.501 -68.001c-18 -29.333 -31 -79.5 -39 -150.5s-12 -138.5 -12 -202.5l2 -94l166 4c121.333 4 211.333 12.333 270 25c6 -19.333 -0.666992 -39.333 -20 -60c-273.333 -9.33301 -414 -14 -422 -14
c2 -100 -1.5 -176.167 -10.5 -228.5s-26.167 -98.333 -51.5 -138s-68 -92.167 -128 -157.5c48 -0.666992 90.167 -1.33398 126.5 -2.00098s62 -1.5 77 -2.5s30 -2.16699 45 -3.5s39.167 -4.33301 72.5 -9c60 -5.33301 103 -8 129 -8c33.333 0 58.666 1.83301 75.999 5.5
s30.833 9.33398 40.5 17.001s20.834 19.5 33.501 35.5l57 71l37 -18c-3.33301 -10 -21 -36.333 -53 -79s-48 -66.334 -48 -71.001c-14.667 -24.667 -32.334 -43.334 -53.001 -56.001s-44.334 -19 -71.001 -19c-20.667 0 -49.334 3.33301 -86.001 10l-80 14
c-54.667 9.33301 -110.667 14 -168 14c-51.333 0 -104.333 -3.66699 -159 -11s-95.334 -20 -122.001 -38l-8 -4l-31 25c49.333 44.667 109.333 110 180 196c24 28.667 41.333 68 52 118s16 120.667 16 212l-2 121c-12.667 1.33301 -42.5 0.666016 -89.5 -2.00098
s-75.167 -4 -84.5 -4c4 0 -18.667 1.33301 -68 4z" />
    <glyph glyph-name="currency" unicode="&#xa4;" horiz-adv-x="1468" 
d="M301 1200l133.004 -131.003c44.667 32 89.5 57.833 134.5 77.5s100.5 29.5 166.5 29.5c66.667 0 123.167 -10.333 169.5 -31s90.166 -46.667 131.499 -78l133 133l66 -67l-133 -132c29.333 -38 54.333 -81 75 -129s31 -106.667 31 -176c0 -65.333 -9.33301 -120 -28 -164
s-44.667 -88.333 -78 -133l133 -133l-66 -65l-133 133c-36 -25.333 -64.5 -44.166 -85.5 -56.499s-50 -24.166 -87 -35.499s-79.833 -17 -128.5 -17c-49.333 0 -92.5 5.66699 -129.5 17s-67.833 24.333 -92.5 39s-51 32.334 -79 53.001l-133 -133l-68 65l136 133
c-20.667 28 -38.334 54.333 -53.001 79s-27.667 55.5 -39 92.5s-17 80.167 -17 129.5c0 48.667 5.66699 91.5 17 128.5s23.166 66 35.499 87s31.166 49.5 56.499 85.5l-136 132zM1114 699.997c0 67.333 -17 130.333 -51 189s-80.333 105 -139 139s-121.667 51 -189 51
s-130.333 -17 -189 -51s-105 -80.333 -139 -139s-51 -121.667 -51 -189s17 -130.166 51 -188.499s80.333 -104.5 139 -138.5s121.667 -51 189 -51s130.333 17 189 51s105 80.167 139 138.5s51 121.166 51 188.499z" />
    <glyph glyph-name="yen" unicode="&#xa5;" 
d="M51 1249l-6 35.0039h98c11.333 0 21.333 -0.166992 30 -0.5l38 -1.5c16.667 -0.666992 33.334 -1.5 50.001 -2.5s28 -1.5 34 -1.5c17.333 0 41.333 0.666992 72 2s68 2.66602 112 3.99902l47 -2l-4 -39c-46.667 -4 -78.5 -8 -95.5 -12s-25.5 -13 -25.5 -27
c0 -10 12.5 -36.667 37.5 -80s52.833 -88.833 83.5 -136.5l123 -187c51.333 -77 81.333 -123.167 90 -138.5c20 30.667 43.333 69.334 70 116.001l76 133l60 100c21.333 35.333 39.833 68.5 55.5 99.5s23.5 54.833 23.5 71.5c0 48 -45 69.667 -135 65l4 39l84 -4
c6.66699 0 28.667 -0.666992 66 -2s59 -2 65 -2c9.33301 0 41.666 0.666992 96.999 2s88.333 2 99 2l-2 -41c-46.667 -2 -85 -9 -115 -21s-63.5 -40.667 -100.5 -86s-80.5 -112.666 -130.5 -201.999l-90 -162l-37 -70c-6 -10.667 -14.167 -26.334 -24.5 -47.001
s-21.833 -42.334 -34.5 -65.001h438v-60h-438l2 -166h436v-59h-436v-29c0 -80 1.16699 -133.167 3.5 -159.5s7.83301 -43.833 16.5 -52.5s26 -16.334 52 -23.001c20 -4.66699 39.167 -9.5 57.5 -14.5s34.5 -9.16699 48.5 -12.5l-2 -26c5.33301 0 -20 2 -76 6l-61 4
c-28 2.66699 -50 4 -66 4c-16.667 0 -67 -2.66699 -151 -8c-40 -2.66699 -72.5 -5 -97.5 -7s-37.5 7.66699 -37.5 29c57.333 3.33301 97.333 12.666 120 27.999s36.667 39.5 42 72.5s8.66602 95.833 9.99902 188.5h-424v59h424v166h-424v60h422l-72 119l-85 144
c-39.333 68 -67.666 112 -84.999 132c-78 95.333 -131 158.166 -159 188.499s-53 50.333 -75 60s-54.667 15.5 -98 17.5z" />
    <glyph glyph-name="brokenbar" unicode="&#xa6;" horiz-adv-x="1087" 
d="M554 1479h134v-603h-134v603zM554 322h134v-603h-134v603z" />
    <glyph glyph-name="section" unicode="&#xa7;" horiz-adv-x="897" 
d="M467 12l-89.9971 104.998c-73.333 81.333 -129.333 148.333 -168 201s-66.167 99.667 -82.5 141s-24.5 84.333 -24.5 129c0 46.667 11 93.667 33 141s63 100 123 158c-32.667 45.333 -49 93.666 -49 144.999c0 56 14.167 110.5 42.5 163.5s67.666 96.333 117.999 130
s105.5 50.5 165.5 50.5c23.333 0 54.666 -4.66699 93.999 -14s59 -27 59 -53c0 -19.333 -5.33301 -38.166 -16 -56.499s-25.667 -27.5 -45 -27.5c-6 0 -35.167 8.5 -87.5 25.5s-83.5 25.5 -93.5 25.5c-31.333 0 -58.666 -6.83301 -81.999 -20.5s-41.333 -31.667 -54 -54
s-19 -44.5 -19 -66.5c0 -38 15.5 -79.833 46.5 -125.5s90.5 -120.834 178.5 -225.501c101.333 -115.333 173.166 -209 215.499 -281s63.5 -142 63.5 -210c0 -69.333 -13.167 -125 -39.5 -167s-62.5 -86 -108.5 -132c46.667 -67.333 70 -134.333 70 -201
c0 -58.667 -20.167 -116.667 -60.5 -174s-89.5 -103.333 -147.5 -138s-111 -52 -159 -52c-50 0 -98.333 11 -145 33s-70 42.333 -70 61c0 14.667 9 33.334 27 56.001s37.667 34 59 34c17.333 0 35.666 -7.66699 54.999 -23c42 -28 73.167 -46.5 93.5 -55.5
s41.833 -13.5 64.5 -13.5c35.333 0 66.5 9.33301 93.5 28s47.5 43.334 61.5 74.001s21 64.334 21 101.001c0 39.333 -9.66699 81.333 -29 126s-57.333 98.667 -114 162zM395.003 302.998l74 -86.001l37.5 -45.5l70 -85c27 -33 41.833 -51.5 44.5 -55.5
c26.667 28 45.834 52.333 57.501 73s17.5 53 17.5 97c0 50.667 -9.83301 98.834 -29.5 144.501s-49.834 95.5 -90.501 149.5s-101.667 130 -183 228c-62.667 70 -98.667 113 -108 129c-30 -30 -54 -59.167 -72 -87.5s-27 -63.5 -27 -105.5c0 -34 8 -68.5 24 -103.5
s40.167 -73.333 72.5 -115s69.833 -87.5 112.5 -137.5z" />
    <glyph glyph-name="dieresis" unicode="&#xa8;" horiz-adv-x="682" 
d="M424 1014c0 21.333 7.66602 39.668 22.999 55.001s33 23 53 23c22 0 40.5 -7.83301 55.5 -23.5s22.5 -33.834 22.5 -54.501c0 -20 -7.66699 -37.667 -23 -53s-33.666 -23 -54.999 -23c-20.667 0 -38.5 7.5 -53.5 22.5s-22.5 32.833 -22.5 53.5zM105.999 1014
c0 20.667 7.49902 38.834 22.499 54.501s33.5 23.5 55.5 23.5c22.667 0 41 -7.83301 55 -23.5s21 -33.834 21 -54.501c0 -19.333 -7.16699 -36.833 -21.5 -52.5s-32.5 -23.5 -54.5 -23.5c-21.333 0 -39.666 7.66699 -54.999 23s-23 33 -23 53z" />
    <glyph glyph-name="copyright" unicode="&#xa9;" horiz-adv-x="1665" 
d="M1163 1210l43 -0.000976562l21 -299h-41c-50 168 -158 252 -324 252c-68 0 -128 -16.5 -180 -49.5s-92 -80.667 -120 -143s-42 -136.5 -42 -222.5c0 -36 2.5 -75 7.5 -117s18.667 -88.667 41 -140s58 -94.833 107 -130.5s114.5 -53.5 196.5 -53.5
c140 0 251.333 57.333 334 172l41 -18c-99.333 -144.667 -235.666 -217 -408.999 -217c-73.333 0 -140.5 12.667 -201.5 38s-113.5 60 -157.5 104s-77.833 94.667 -101.5 152s-35.5 117 -35.5 179c0 64.667 12.5 127 37.5 187s61 113 108 159s103.167 82 168.5 108
s138 39 218 39c36.667 0 67.667 -2.66699 93 -8s60.666 -15.666 105.999 -30.999c15.333 -5.33301 28.333 -8 39 -8c22.667 0 39.667 15.667 51 47zM831 1481c135.333 0 261.333 -33.668 378 -101.001s209.167 -159 277.5 -275s102.5 -243.333 102.5 -382
c0 -138 -34 -264.667 -102 -380s-160.167 -206.833 -276.5 -274.5s-242.833 -101.5 -379.5 -101.5c-136 0 -262 33.833 -378 101.5s-207.833 159.334 -275.5 275.001s-101.5 242.167 -101.5 379.5c0 138 34 265 102 381s160.167 207.833 276.5 275.5
s241.833 101.5 376.5 101.5zM831 1415c-122.667 0 -237.332 -30.833 -343.999 -92.5s-191 -145.5 -253 -251.5s-93 -222 -93 -348c0 -124 30.833 -239.167 92.5 -345.5s145.167 -190.333 250.5 -252s221 -92.5 347 -92.5c125.333 0 241.166 30.833 347.499 92.5
s190.5 145.5 252.5 251.5s93 221.333 93 346c0 126.667 -31.333 243 -94 349s-147 189.667 -253 251s-221.333 92 -346 92z" />
    <glyph glyph-name="ordfeminine" unicode="&#xaa;" horiz-adv-x="492" 
d="M164 1204l-85.999 -34.998c-4 14 -6 25 -6 33c0 29.333 27.167 56.166 81.5 80.499s93.833 36.5 118.5 36.5c11.333 0 26.5 -4 45.5 -12s37 -24.667 54 -50s25.5 -61.333 25.5 -108v-31c0 -12.667 -0.666992 -28.334 -2 -47.001c0 -4.66699 -0.666992 -20.334 -2 -47.001
s-2 -41.667 -2 -45c0 -53.333 10.333 -80 31 -80c20 0 43.333 6.33301 70 19l-3 -31c-7.33301 -3.33301 -17.333 -7.5 -30 -12.5s-22.334 -9.16699 -29.001 -12.5c-38.667 -13.333 -60.334 -20 -65.001 -20c-12 0 -23.333 6.33301 -34 19s-18 25.334 -22 38.001
c-76 -38 -134.667 -57 -176 -57c-27.333 0 -47.833 7.16699 -61.5 21.5s-20.5 35.833 -20.5 64.5c0 44.667 11 74 33 88c56.667 28.667 130.334 48.334 221.001 59.001l4 68c2 45.333 -7.66699 77.666 -29 96.999c-21.333 18.667 -44.333 28 -69 28
c-12.667 0 -25 -3.5 -37 -10.5s-18 -15.167 -18 -24.5c0 -6 2.66699 -15.667 8 -29zM303.001 930.002c-0.666992 9.33301 -0.167969 25.1699 1.49902 47.5029s2.5 41.166 2.5 56.499c-36.667 2 -68.5 -0.666992 -95.5 -8s-47.167 -17.333 -60.5 -30s-20 -25.334 -20 -38.001
c0 -16.667 5.16699 -32.334 15.5 -47.001s22.833 -22 37.5 -22c28.667 0 68.334 13.667 119.001 41z" />
    <glyph glyph-name="guillemotleft" unicode="&#xab;" horiz-adv-x="938" 
d="M674 381l203 -385h-33l-360 390l364 386h29zM256 381l203 -385h-33l-363 389l361 387h35z" />
    <glyph glyph-name="logicalnot" unicode="&#xac;" 
d="M111 915v95h1146v-615h-92v520h-1054z" />
    <glyph glyph-name="registered" unicode="&#xae;" horiz-adv-x="1665" 
d="M414 1151v38.9961h411c98 0 175.5 -22.167 232.5 -66.5s85.5 -102.166 85.5 -173.499c0 -120 -79.333 -199 -238 -237l223 -318c19.333 -27.333 36.833 -47.833 52.5 -61.5s28.167 -22.167 37.5 -25.5s22.333 -5.66602 39 -6.99902v-35h-196l-313 432h-82v-252
c0 -44.667 2 -76 6 -94s14.5 -31 31.5 -39s46.833 -12 89.5 -12v-35h-392v35c35.333 0 61 4.83301 77 14.5s25.667 23.834 29 42.501s5 49 5 91v559c0 59.333 -4.83301 97.833 -14.5 115.5s-37.5 26.834 -83.5 27.501zM666 1126v-382.998c90 0 163.333 13.667 220 41
s85 78.666 85 153.999c0 28 -4.66699 54.167 -14 78.5s-23.833 46.166 -43.5 65.499s-42.5 34.333 -68.5 45s-55.667 16 -89 16c-27.333 0 -57.333 -5.66699 -90 -17zM831 1481c135.333 0 261.333 -33.668 378 -101.001s209.167 -159 277.5 -275s102.5 -243.333 102.5 -382
c0 -138 -34 -264.667 -102 -380s-160.167 -206.833 -276.5 -274.5s-242.833 -101.5 -379.5 -101.5c-136 0 -262 33.833 -378 101.5s-207.833 159.334 -275.5 275.001s-101.5 242.167 -101.5 379.5c0 138 34 265 102 381s160.167 207.833 276.5 275.5
s241.833 101.5 376.5 101.5zM831 1415c-122.667 0 -237.332 -30.833 -343.999 -92.5s-191 -145.5 -253 -251.5s-93 -222 -93 -348c0 -124 30.833 -239.167 92.5 -345.5s145.167 -190.333 250.5 -252s221 -92.5 347 -92.5c125.333 0 241.166 30.833 347.499 92.5
s190.5 145.5 252.5 251.5s93 221.333 93 346c0 126.667 -31.333 243 -94 349s-147 189.667 -253 251s-221.333 92 -346 92z" />
    <glyph glyph-name="degree" unicode="&#xb0;" horiz-adv-x="874" 
d="M438 1280c44 0 86.332 -8.50293 126.999 -25.5029s75.834 -40.167 105.501 -69.5s53 -64 70 -104s25.5 -83 25.5 -129c0 -45.333 -8.33301 -87.666 -25 -126.999s-40.5 -74.166 -71.5 -104.499s-66.333 -53.833 -106 -70.5s-81.5 -25 -125.5 -25
c-58.667 0 -113.334 14.5 -164.001 43.5s-90.834 68.333 -120.501 118s-44.5 104.834 -44.5 165.501c0 60 14.833 115.167 44.5 165.5s69.834 90 120.501 119s105.334 43.5 164.001 43.5zM435.999 1192c-64.667 0 -120.332 -23.333 -166.999 -70s-70 -102.667 -70 -168
c0 -64.667 23.167 -120.667 69.5 -168s102.166 -71 167.499 -71s121.333 23.333 168 70s70 103 70 169c0 43.333 -10.833 83.333 -32.5 120s-51.167 65.5 -88.5 86.5s-76.333 31.5 -117 31.5z" />
    <glyph glyph-name="plusminus" unicode="&#xb1;" 
d="M111 862v94h524v527h94v-527h528v-94h-528v-524h-94v524h-524zM111 0v94h1146v-94h-1146z" />
    <glyph glyph-name="twosuperior" unicode="&#xb2;" horiz-adv-x="641" 
d="M39 608l-14 18.999l94 84c195.333 170 293 297 293 381c0 37.333 -13.167 66.333 -39.5 87s-58.5 31 -96.5 31c-37.333 0 -66.5 -5.66699 -87.5 -17s-42.167 -26.666 -63.5 -45.999l-37 29c72.667 70.667 150.667 106 234 106c37.333 0 71.333 -6.66699 102 -20
s54.667 -32.333 72 -57s26 -53 26 -85c0 -46 -15.5 -89.333 -46.5 -130s-85.167 -96.334 -162.5 -167.001l-143 -131l166 -2c55.333 0 94 1.66699 116 5s41 11.833 57 25.5s34.667 38.5 56 74.5l41 -21l-69 -115c-23.333 -39.333 -38.333 -63 -45 -71h-37
c-2.66699 10.667 -6.66699 17.334 -12 20.001s-17 4 -35 4h-279c-34 0 -64 -1.33301 -90 -4z" />
    <glyph glyph-name="threesuperior" unicode="&#xb3;" horiz-adv-x="641" 
d="M143 1167l-30.002 31.001c74.667 54.667 145 82 211 82c34 0 64 -5.16699 90 -15.5s46.5 -25 61.5 -44s22.5 -40.833 22.5 -65.5c0 -29.333 -8.33301 -55.333 -25 -78s-39 -46.334 -67 -71.001c40 -21.333 74.167 -45.666 102.5 -72.999s42.5 -62.666 42.5 -105.999
c0 -34.667 -11.333 -69.5 -34 -104.5s-55.5 -63.167 -98.5 -84.5s-91.167 -32 -144.5 -32c-30.667 0 -66.334 5.83301 -107.001 17.5s-78 37.834 -112 78.501c10 12 23.5 31.167 40.5 57.5l25.5 39.5l43 -23c-11.333 -16 -17 -26.333 -17 -31c0 -16 19.333 -36 58 -60
s75.334 -36 110.001 -36c38.667 0 72.334 12.667 101.001 38s43 57 43 95c0 37.333 -12.667 68.166 -38 92.499s-59.333 47.5 -102 69.5l-40 -24l-29 30c50 33.333 86.667 62.166 110 86.499s35 52.166 35 83.499c0 29.333 -11.167 53.5 -33.5 72.5
s-49.166 28.5 -80.499 28.5c-41.333 0 -87.333 -18 -138 -54z" />
    <glyph glyph-name="acute" unicode="&#xb4;" horiz-adv-x="682" 
d="M190 889l197 356h139l-288 -356h-48z" />
    <glyph glyph-name="mu" unicode="&#xb5;" horiz-adv-x="1024" 
d="M109 785l135.003 0.000976562v-479c0 -77.333 10.667 -131.333 32 -162c28.667 -42 73.667 -63 135 -63c35.333 0 70.166 8.66699 104.499 26s83.833 56.333 148.5 117v561h132v-505c0 -95.333 7.66699 -154.833 23 -178.5s35.666 -35.5 60.999 -35.5
c20 0 37.333 7.66699 52 23s29 52.333 43 111h43c-6 -72.667 -22.333 -125.667 -49 -159c-38 -48.667 -86 -73 -144 -73c-43.333 0 -79.166 14.5 -107.499 43.5s-46.166 79.5 -53.499 151.5c-58.667 -63.333 -114.834 -111 -168.501 -143s-104.834 -48 -153.501 -48
c-45.333 0 -82.333 10.167 -111 30.5s-52.667 50.833 -72 91.5v-40c0 -78 2.66699 -145.333 8 -202c1.33301 -14.667 7.66602 -42.334 18.999 -83.001c14.667 -54 22 -92.333 22 -115c0 -29.333 -8 -52.833 -24 -70.5s-34.333 -26.5 -55 -26.5
c-21.333 0 -40.333 8.83301 -57 26.5s-25 40.5 -25 68.5c0 20.667 7 57.334 21 110.001c10.667 40 17.667 71.667 21 95c8 65.333 13.333 132.666 16 201.999l4 301v425z" />
    <glyph glyph-name="paragraph" unicode="&#xb6;" horiz-adv-x="981" 
d="M805 -184l-6.00098 -52.001c-102 12 -188.667 32 -260 60s-126 58.333 -164 91s-71 68.667 -99 108c-47.333 68 -87 140.333 -119 217s-48 133.334 -48 170.001c0 25.333 13.667 73 41 143s65 141 113 213s101.667 126.667 161 164
c115.333 71.333 301 115.666 557 132.999l-6 -53c-6.66699 -1.33301 -36 -5 -88 -11c-72.667 -6.66699 -124.667 -12.667 -156 -18s-64.666 -13.666 -99.999 -24.999l-23 -1097c13.333 -4.66699 79 -19 197 -43zM554.999 -119.001l20 1057c-41.333 -10.667 -73 -27 -95 -49
s-39.333 -52 -52 -90c-14 -46.667 -23 -118.667 -27 -216s-6 -209 -6 -335c0 -91.333 4.83301 -160 14.5 -206s24.667 -78.5 45 -97.5s53.833 -40.167 100.5 -63.5z" />
    <glyph glyph-name="cedilla" unicode="&#xb8;" horiz-adv-x="682" 
d="M377 20l51 0.000976562l-51 -96c95.333 -30.667 143 -83 143 -157c0 -43.333 -15.5 -81.5 -46.5 -114.5s-74.167 -58 -129.5 -75s-115.333 -23.5 -180 -19.5v41c104 2.66699 172 18 204 46s48 56.333 48 85c0 65.333 -52.667 100.666 -158 105.999
c73.333 110 113 171.333 119 184z" />
    <glyph glyph-name="onesuperior" unicode="&#xb9;" horiz-adv-x="641" 
d="M137 608l-2.00098 36.999c36 -0.666992 62.167 1.5 78.5 6.5s27.833 14.5 34.5 28.5c6 10.667 10.5 40.667 13.5 90s4.83301 97.5 5.5 144.5s1 92.5 1 136.5c0 96.667 -3.33301 149 -10 157c-8 10 -47 15 -117 15l-2 32c18 1.33301 43.5 2.66602 76.5 3.99902
s60.667 3 83 5s50 5.16699 83 9.5l93.5 12.5l10 -33c-43.333 -9.33301 -70.166 -16.666 -80.499 -21.999s-16.833 -15.666 -19.5 -30.999c-10.667 -64 -16 -173.333 -16 -328c0 -120.667 4.66699 -188.667 14 -204c6.66699 -12 47.667 -20.333 123 -25l-2 -35
c-72 4 -116.333 6 -133 6c-80 0 -158 -2 -234 -6z" />
    <glyph glyph-name="ordmasculine" unicode="&#xba;" horiz-adv-x="641" 
d="M63 1077c0 48 12.168 90.167 36.501 126.5s57.166 64 98.499 83s85.333 28.5 132 28.5c45.333 0 86.833 -10.333 124.5 -31s67.667 -48.167 90 -82.5s33.5 -72.5 33.5 -114.5c0 -63.333 -23.5 -119 -70.5 -167s-108.167 -72 -183.5 -72c-66 0 -126 19.667 -180 59
s-81 96 -81 170zM154.001 1112c0 -56 17.333 -108.169 52 -156.502s76 -72.5 124 -72.5c44.667 0 81.667 16.333 111 49s44 75.667 44 129c0 36.667 -8.33301 71.334 -25 104.001s-39.167 59.334 -67.5 80.001s-59.5 31 -93.5 31c-42.667 0 -77.5 -15.833 -104.5 -47.5
s-40.5 -70.5 -40.5 -116.5z" />
    <glyph glyph-name="guillemotright" unicode="&#xbb;" horiz-adv-x="938" 
d="M70 -4l200 387l-200 389h30l361 -387l-359 -389h-32zM483 -4l203 385l-203 391h35l361 -387l-363 -389h-33z" />
    <glyph glyph-name="onequarter" unicode="&#xbc;" horiz-adv-x="1409" 
d="M948 -4l-1.99805 37c47.333 0 78.666 4.66699 93.999 14c6.66699 2.66699 10.667 9.5 12 20.5s3.66602 46.5 6.99902 106.5v29h-119c-4.66699 0 -71.667 -2.66699 -201 -8l-12 18c92 97.333 167.333 179.833 226 247.5s113.667 139.5 165 215.5
c13.333 2.66699 31 7.33398 53 14.001c-2.66699 -32.667 -4.16699 -75.167 -4.5 -127.5s-0.833008 -101.833 -1.5 -148.5l-2 -154c43.333 2 70.833 4.5 82.5 7.5s25.167 11.5 40.5 25.5l35 -12l-45 -84c-18 1.33301 -55.667 2.66602 -113 3.99902
c-0.666992 -50.667 0.5 -87.5 3.5 -110.5s9.33301 -37.833 19 -44.5s26.167 -11.667 49.5 -15l-2 -31c-152.667 0 -247.667 -1.33301 -285 -4zM926.002 356l-88 -95.999h223l2 84c1.33301 41.333 2 98.666 2 171.999l-42.5 -49.5l-50 -57.5zM127.002 608.001l-1.99707 37
c36 -0.666992 62.167 1.66602 78.5 6.99902s27.833 14.666 34.5 27.999c13.333 28.667 20 152.334 20 371.001c0 96.667 -3.33301 149 -10 157c-8 10 -47.667 15 -119 15v32c121.333 3.33301 223.666 12.333 306.999 27c2 0 6.66699 0.666992 14 2s11.666 2 12.999 2l12 -33
c-44.667 -9.33301 -72 -16.666 -82 -21.999s-16 -15.666 -18 -30.999c-11.333 -84 -17 -193.333 -17 -328c0 -122.667 5 -190.667 15 -204c6.66699 -12 47.667 -20.333 123 -25l-2 -35c-72 4 -116.667 6 -134 6c-50.667 0 -90.334 -0.333008 -119.001 -1
s-66.667 -2.33398 -114 -5.00098zM285.005 -89.999l-28.998 12.0029c35.333 51.333 95.666 150.666 180.999 297.999l292 522.5l324 619.5c31.333 2 62.666 8 93.999 18l-67 -120l-96 -164l-85.5 -146l-77.5 -139l-217 -408c-12 -21.333 -53.333 -100.833 -124 -238.5
s-107 -208.834 -109 -213.501c-32 -6.66699 -60.667 -20.334 -86 -41.001z" />
    <glyph glyph-name="onehalf" unicode="&#xbd;" horiz-adv-x="1409" 
d="M285 -90l-28.998 12.0029c35.333 51.333 95.666 150.666 180.999 297.999l292 522.5l324 619.5c31.333 2 62.666 8 93.999 18l-67 -119.5l-96 -163.5l-90 -154l-73 -132l-217 -408c-12 -21.333 -53.333 -100.833 -124 -238.5s-107 -208.834 -109 -213.501
c-32 -6.66699 -60.667 -20.334 -86 -41.001zM129.002 608.003l-2 37.001c36 -0.666992 62.167 1.66602 78.5 6.99902s27.833 14.666 34.5 27.999c6 10.667 10.5 40.667 13.5 90s4.83301 97.5 5.5 144.5s1 92.5 1 136.5c0 96.667 -3.33301 149 -10 157c-8 10 -47 15 -117 15
l-2 32c19.333 1.33301 44.833 2.66602 76.5 3.99902s58.834 3 81.501 5s51 5.16699 85 9.5s65 8.5 93 12.5l10 -33c-43.333 -9.33301 -70.166 -16.666 -80.499 -21.999s-16.833 -15.666 -19.5 -30.999c-8.66699 -45.333 -13.667 -92.333 -15 -141s-2 -111 -2 -187
c0 -28 1.16699 -66.667 3.5 -116s6.16602 -78.666 11.499 -87.999c6.66699 -12 47.667 -20.333 123 -25l-2 -35c-72 4 -116.667 6 -134 6c-50.667 0 -89.834 -0.333008 -117.501 -1s-66.167 -2.33398 -115.5 -5.00098zM795.002 -5.99609l-14.998 18.002l94 84
c82 72.667 151.333 142.167 208 208.5s85 123.833 85 172.5c0 38.667 -12.833 68.167 -38.5 88.5s-57.834 30.5 -96.501 30.5c-60 0 -110.333 -21.333 -151 -64l-37 29c29.333 29.333 62 54.5 98 75.5s81 31.5 135 31.5c57.333 0 105.166 -14.833 143.499 -44.5
s57.5 -68.834 57.5 -117.501c0 -46 -15.5 -89.333 -46.5 -130s-85.167 -96.334 -162.5 -167.001l-143 -131l166 -2c55.333 0 94 1.5 116 4.5s41.167 11.667 57.5 26s34.833 38.833 55.5 73.5l41 -20l-70 -115c-18.667 -32.667 -33.667 -56.667 -45 -72h-37
c-2 11.333 -6.66699 19 -14 23c-4 1.33301 -15 2 -33 2h-278c-34 0 -64 -1.33301 -90 -4z" />
    <glyph glyph-name="threequarters" unicode="&#xbe;" horiz-adv-x="1409" 
d="M948 -4l-1.99805 37c47.333 0 78.666 4.66699 93.999 14c6.66699 2.66699 10.667 9.5 12 20.5s3.66602 46.5 6.99902 106.5v29h-119c-4.66699 0 -71.667 -2.66699 -201 -8l-12 18c92 97.333 167.333 179.833 226 247.5s113.667 139.5 165 215.5
c13.333 2.66699 31 7.33398 53 14.001c-2.66699 -32.667 -4.16699 -75.167 -4.5 -127.5s-0.833008 -101.833 -1.5 -148.5l-2 -154c43.333 2 70.833 4.5 82.5 7.5s25.167 11.5 40.5 25.5l35 -12l-45 -84c-18 1.33301 -55.667 2.66602 -113 3.99902
c-0.666992 -50.667 0.5 -87.5 3.5 -110.5s9.33301 -37.833 19 -44.5s26.167 -11.667 49.5 -15l-2 -31c-152.667 0 -247.667 -1.33301 -285 -4zM926.002 356l-88 -95.999h223l2 84c1.33301 41.333 2 98.666 2 171.999l-42.5 -49.5l-50 -57.5zM133.002 1167l-30.998 31.001
c76.667 54.667 147 82 211 82c33.333 0 63.166 -5.16699 89.499 -15.5s47 -25 62 -44s22.5 -40.833 22.5 -65.5c0 -46 -30.667 -95.667 -92 -149c41.333 -22 76 -46.5 104 -73.5s42 -62.167 42 -105.5c0 -34.667 -11.333 -69.5 -34 -104.5s-55.5 -63.167 -98.5 -84.5
s-91.167 -32 -144.5 -32c-30.667 0 -66.334 5.83301 -107.001 17.5s-78 37.834 -112 78.501l33.5 51.5c8.33301 13 15.5 22.5 21.5 28.5c2 2 3.83301 4.5 5.5 7.5l5.5 9.5l43 -23c-11.333 -15.333 -17 -25.666 -17 -30.999c0 -16 19 -36 57 -60s75 -36 111 -36
c38.667 0 72.334 12.667 101.001 38s43 57 43 95c0 37.333 -12.667 68.166 -38 92.499s-59.333 47.5 -102 69.5l-41 -24l-28 30c50 33.333 86.667 62.166 110 86.499s35 52.166 35 83.499c0 29.333 -11.333 53.5 -34 72.5s-50.334 28.5 -83.001 28.5
c-39.333 0 -84.333 -18 -135 -54zM285.004 -89.998l-28.998 12.0029c35.333 51.333 95.666 150.666 180.999 297.999l292 522.5l324 619.5c31.333 2 62.666 8 93.999 18l-67 -120l-96 -164l-85.5 -146l-77.5 -139l-217 -408c-12 -21.333 -53.333 -100.833 -124 -238.5
s-107 -208.834 -109 -213.501c-32 -6.66699 -60.667 -20.334 -86 -41.001z" />
    <glyph glyph-name="questiondown" unicode="&#xbf;" horiz-adv-x="575" 
d="M473 -432l-28.998 -2.00195c-9.33301 40 -20.333 64.833 -33 74.5s-37 16.834 -73 21.501c-36.667 4.66699 -75.667 18 -117 40s-76.833 55.333 -106.5 100s-44.5 101.667 -44.5 171c0 43.333 6 86.166 18 128.499s30.167 80.5 54.5 114.5s54.5 61.667 90.5 83
c20 11.333 34.5 21 43.5 29s15.667 18.667 20 32s7.83301 34 10.5 62c0.666992 16 2.16699 26.167 4.5 30.5s7.83301 6.5 16.5 6.5c13.333 0 20 -9 20 -27l-10 -176c-1.33301 -21.333 -7 -34.833 -17 -40.5s-35.667 -12.5 -77 -20.5
c-37.333 -7.33301 -64.333 -18.666 -81 -33.999s-26.834 -33.666 -30.501 -54.999s-5.5 -53.333 -5.5 -96c0 -44 8.5 -81 25.5 -111s46.5 -54.333 88.5 -73s97 -31.667 165 -39c28 -3.33301 49.333 -7.5 64 -12.5s22 -15.833 22 -32.5c0 -4.66699 -6.33301 -34.667 -19 -90
c-0.666992 -4 -0.833984 -15 -0.500977 -33s0.5 -35 0.5 -51zM465.002 675.998c0 -9.33301 -9.00098 -19.6709 -27.001 -31.0039c-27.333 -14.667 -52.666 -42 -75.999 -82c-7.33301 -10.667 -16 -16 -26 -16c-10.667 0 -19.167 5.5 -25.5 16.5s-9.5 18.5 -9.5 22.5
c-26 34.667 -47.667 56.334 -65 65.001c-13.333 8 -20.833 13 -22.5 15s-2.5 6.66699 -2.5 14c0 10 5.33301 18.333 16 25c14.667 6 27.834 14.167 39.501 24.5s25.167 27.833 40.5 52.5c8 15.333 17.667 23 29 23c10.667 0 21 -7 31 -21
c13.333 -23.333 24.166 -39.666 32.499 -48.999s22.5 -19.333 42.5 -30c6.66699 -3.33301 12.167 -7.16602 16.5 -11.499s6.5 -10.166 6.5 -17.499z" />
    <glyph glyph-name="Agrave" unicode="&#xc0;" horiz-adv-x="1280" 
d="M864 -4l-0.00195312 32.9971c30.667 5.33301 55.167 12.333 73.5 21s27.5 23.334 27.5 44.001c0 19.333 -6 47.333 -18 84s-21 62 -27 76l-74 201c-38.667 5.33301 -101.667 8 -189 8h-79c-79.333 2.66699 -149 -1.33301 -209 -12l-74 -185
c-32.667 -77.333 -49 -125.666 -49 -144.999c0 -23.333 10.5 -42.833 31.5 -58.5s63.833 -28.167 128.5 -37.5v-33c-78 9.33301 -144.333 14 -199 14c-56 0 -116.667 -2.66699 -182 -8v29c40 10 70.667 25.667 92 47c16 14 37.167 47.167 63.5 99.5s53 109.333 80 171
s46.5 109.834 58.5 144.501l160 383l61.5 144.5c21 50.333 40.833 100.833 59.5 151.5s32.334 91.334 41.001 122.001c0 8.66699 2 15 6 19l33 2c20.667 -74 43.334 -145 68.001 -213l210 -563l122.5 -311.5c27.667 -67 51.834 -114.833 72.501 -143.5
c17.333 -24.667 53 -39.667 107 -45v-35c-54.667 5.33301 -107.334 8 -158.001 8c-40 0 -77.167 -1 -111.5 -3s-61.5 -3.83301 -81.5 -5.5s-35 -2.83398 -45 -3.50098zM546.998 896.997l-113.001 -291c-15.333 -41.333 -25.666 -67.333 -30.999 -78
c50.667 -8 109 -12 175 -12l92 2c55.333 0 105 1.33301 149 4c-23.333 68 -38.333 108.333 -45 121l-72 184l-45.5 109c-22.333 52.667 -38.5 88.667 -48.5 108c-12.667 -28 -23.5 -53.5 -32.5 -76.5zM588.997 1738l196 -356h-47l-289 356h140z" />
    <glyph glyph-name="Aacute" unicode="&#xc1;" horiz-adv-x="1280" 
d="M864 -4l-0.00195312 32.9971c30.667 5.33301 55.167 12.333 73.5 21s27.5 23.334 27.5 44.001c0 19.333 -6 47.333 -18 84s-21 62 -27 76l-74 201c-38.667 5.33301 -101.667 8 -189 8h-79c-79.333 2.66699 -149 -1.33301 -209 -12l-74 -185
c-32.667 -77.333 -49 -125.666 -49 -144.999c0 -23.333 10.5 -42.833 31.5 -58.5s63.833 -28.167 128.5 -37.5v-33c-78 9.33301 -144.333 14 -199 14c-56 0 -116.667 -2.66699 -182 -8v29c40 10 70.667 25.667 92 47c16 14 37.167 47.167 63.5 99.5s53 109.333 80 171
s46.5 109.834 58.5 144.501l160 383l61.5 144.5c21 50.333 40.833 100.833 59.5 151.5s32.334 91.334 41.001 122.001c0 8.66699 2 15 6 19l33 2c20.667 -74 43.334 -145 68.001 -213l210 -563l122.5 -311.5c27.667 -67 51.834 -114.833 72.501 -143.5
c17.333 -24.667 53 -39.667 107 -45v-35c-54.667 5.33301 -107.334 8 -158.001 8c-40 0 -77.167 -1 -111.5 -3s-61.5 -3.83301 -81.5 -5.5s-35 -2.83398 -45 -3.50098zM546.998 896.997l-113.001 -291c-15.333 -41.333 -25.666 -67.333 -30.999 -78
c50.667 -8 109 -12 175 -12l92 2c55.333 0 105 1.33301 149 4c-23.333 68 -38.333 108.333 -45 121l-72 184l-45.5 109c-22.333 52.667 -38.5 88.667 -48.5 108c-12.667 -28 -23.5 -53.5 -32.5 -76.5zM551.997 1382l197 356h139l-288 -356h-48z" />
    <glyph glyph-name="Acircumflex" unicode="&#xc2;" horiz-adv-x="1280" 
d="M864 -4l-0.00195312 32.9971c30.667 5.33301 55.167 12.333 73.5 21s27.5 23.334 27.5 44.001c0 19.333 -6 47.333 -18 84s-21 62 -27 76l-74 201c-38.667 5.33301 -101.667 8 -189 8h-79c-79.333 2.66699 -149 -1.33301 -209 -12l-74 -185
c-32.667 -77.333 -49 -125.666 -49 -144.999c0 -23.333 10.5 -42.833 31.5 -58.5s63.833 -28.167 128.5 -37.5v-33c-78 9.33301 -144.333 14 -199 14c-56 0 -116.667 -2.66699 -182 -8v29c40 10 70.667 25.667 92 47c16 14 37.167 47.167 63.5 99.5s53 109.333 80 171
s46.5 109.834 58.5 144.501l160 383l61.5 144.5c21 50.333 40.833 100.833 59.5 151.5s32.334 91.334 41.001 122.001c0 8.66699 2 15 6 19l33 2c20.667 -74 43.334 -145 68.001 -213l210 -563l122.5 -311.5c27.667 -67 51.834 -114.833 72.501 -143.5
c17.333 -24.667 53 -39.667 107 -45v-35c-54.667 5.33301 -107.334 8 -158.001 8c-40 0 -77.167 -1 -111.5 -3s-61.5 -3.83301 -81.5 -5.5s-35 -2.83398 -45 -3.50098zM546.998 896.997l-113.001 -291c-15.333 -41.333 -25.666 -67.333 -30.999 -78
c50.667 -8 109 -12 175 -12l92 2c55.333 0 105 1.33301 149 4c-23.333 68 -38.333 108.333 -45 121l-72 184l-45.5 109c-22.333 52.667 -38.5 88.667 -48.5 108c-12.667 -28 -23.5 -53.5 -32.5 -76.5zM615.997 1739h90l199 -356h-47l-195 215l-199 -215h-47z" />
    <glyph glyph-name="Atilde" unicode="&#xc3;" horiz-adv-x="1280" 
d="M864 -4l-0.00195312 32.9971c30.667 5.33301 55.167 12.333 73.5 21s27.5 23.334 27.5 44.001c0 19.333 -6 47.333 -18 84s-21 62 -27 76l-74 201c-38.667 5.33301 -101.667 8 -189 8h-79c-79.333 2.66699 -149 -1.33301 -209 -12l-74 -185
c-32.667 -77.333 -49 -125.666 -49 -144.999c0 -23.333 10.5 -42.833 31.5 -58.5s63.833 -28.167 128.5 -37.5v-33c-78 9.33301 -144.333 14 -199 14c-56 0 -116.667 -2.66699 -182 -8v29c40 10 70.667 25.667 92 47c16 14 37.167 47.167 63.5 99.5s53 109.333 80 171
s46.5 109.834 58.5 144.501l160 383l61.5 144.5c21 50.333 40.833 100.833 59.5 151.5s32.334 91.334 41.001 122.001c0 8.66699 2 15 6 19l33 2c20.667 -74 43.334 -145 68.001 -213l210 -563l122.5 -311.5c27.667 -67 51.834 -114.833 72.501 -143.5
c17.333 -24.667 53 -39.667 107 -45v-35c-54.667 5.33301 -107.334 8 -158.001 8c-40 0 -77.167 -1 -111.5 -3s-61.5 -3.83301 -81.5 -5.5s-35 -2.83398 -45 -3.50098zM546.998 896.997l-113.001 -291c-15.333 -41.333 -25.666 -67.333 -30.999 -78
c50.667 -8 109 -12 175 -12l92 2c55.333 0 105 1.33301 149 4c-23.333 68 -38.333 108.333 -45 121l-72 184l-45.5 109c-22.333 52.667 -38.5 88.667 -48.5 108c-12.667 -28 -23.5 -53.5 -32.5 -76.5zM919.997 1620l41.001 -0.00195312
c-2 -83.333 -21.833 -137.166 -59.5 -161.499s-72.5 -36.5 -104.5 -36.5c-25.333 0 -47.833 4 -67.5 12s-53.834 26.333 -102.501 55c-26 16 -44.5 26.5 -55.5 31.5s-23.833 7.5 -38.5 7.5c-24 0 -45 -8.83301 -63 -26.5s-26.667 -44.167 -26 -79.5h-41
c11.333 132 66.666 198 165.999 198c26 0 48.667 -4.5 68 -13.5s46.666 -24.833 81.999 -47.5c32.667 -20 54.834 -32.833 66.501 -38.5s25.5 -8.5 41.5 -8.5c24 0 45.333 9.33301 64 28s28.334 45.334 29.001 80.001z" />
    <glyph glyph-name="Adieresis" unicode="&#xc4;" horiz-adv-x="1280" 
d="M864 -4l-0.00195312 32.9971c30.667 5.33301 55.167 12.333 73.5 21s27.5 23.334 27.5 44.001c0 19.333 -6 47.333 -18 84s-21 62 -27 76l-74 201c-38.667 5.33301 -101.667 8 -189 8h-79c-79.333 2.66699 -149 -1.33301 -209 -12l-74 -185
c-32.667 -77.333 -49 -125.666 -49 -144.999c0 -23.333 10.5 -42.833 31.5 -58.5s63.833 -28.167 128.5 -37.5v-33c-78 9.33301 -144.333 14 -199 14c-56 0 -116.667 -2.66699 -182 -8v29c40 10 70.667 25.667 92 47c16 14 37.167 47.167 63.5 99.5s53 109.333 80 171
s46.5 109.834 58.5 144.501l160 383l61.5 144.5c21 50.333 40.833 100.833 59.5 151.5s32.334 91.334 41.001 122.001c0 8.66699 2 15 6 19l33 2c20.667 -74 43.334 -145 68.001 -213l210 -563l122.5 -311.5c27.667 -67 51.834 -114.833 72.501 -143.5
c17.333 -24.667 53 -39.667 107 -45v-35c-54.667 5.33301 -107.334 8 -158.001 8c-40 0 -77.167 -1 -111.5 -3s-61.5 -3.83301 -81.5 -5.5s-35 -2.83398 -45 -3.50098zM546.998 896.997l-113.001 -291c-15.333 -41.333 -25.666 -67.333 -30.999 -78
c50.667 -8 109 -12 175 -12l92 2c55.333 0 105 1.33301 149 4c-23.333 68 -38.333 108.333 -45 121l-72 184l-45.5 109c-22.333 52.667 -38.5 88.667 -48.5 108c-12.667 -28 -23.5 -53.5 -32.5 -76.5zM763.997 1416c0 21.333 7.66602 39.668 22.999 55.001s33 23 53 23
c22 0 40.5 -7.83301 55.5 -23.5s22.5 -33.834 22.5 -54.501c0 -20 -7.66699 -37.667 -23 -53s-33.666 -23 -54.999 -23c-20.667 0 -38.5 7.5 -53.5 22.5s-22.5 32.833 -22.5 53.5zM445.996 1416c0 20.667 7.49902 38.834 22.499 54.501s33.5 23.5 55.5 23.5
c22.667 0 41 -7.83301 55 -23.5s21 -33.834 21 -54.501c0 -19.333 -7.16699 -36.833 -21.5 -52.5s-32.5 -23.5 -54.5 -23.5c-21.333 0 -39.666 7.66699 -54.999 23s-23 33 -23 53z" />
    <glyph glyph-name="Aring" unicode="&#xc5;" horiz-adv-x="1280" 
d="M864 -4l-0.00195312 32.9971c30.667 5.33301 55.167 12.333 73.5 21s27.5 23.334 27.5 44.001c0 19.333 -6 47.333 -18 84s-21 62 -27 76l-74 201c-38.667 5.33301 -101.667 8 -189 8h-79c-79.333 2.66699 -149 -1.33301 -209 -12l-74 -185
c-32.667 -77.333 -49 -125.666 -49 -144.999c0 -23.333 10.5 -42.833 31.5 -58.5s63.833 -28.167 128.5 -37.5v-33c-78 9.33301 -144.333 14 -199 14c-56 0 -116.667 -2.66699 -182 -8v29c40 10 70.667 25.667 92 47c16 14 37.167 47.167 63.5 99.5s53 109.333 80 171
s46.5 109.834 58.5 144.501l160 383l61.5 144.5c21 50.333 40.833 100.833 59.5 151.5s32.334 91.334 41.001 122.001c0 8.66699 2 15 6 19l33 2c20.667 -74 43.334 -145 68.001 -213l210 -563l122.5 -311.5c27.667 -67 51.834 -114.833 72.501 -143.5
c17.333 -24.667 53 -39.667 107 -45v-35c-54.667 5.33301 -107.334 8 -158.001 8c-40 0 -77.167 -1 -111.5 -3s-61.5 -3.83301 -81.5 -5.5s-35 -2.83398 -45 -3.50098zM546.998 896.997l-113.001 -291c-15.333 -41.333 -25.666 -67.333 -30.999 -78
c50.667 -8 109 -12 175 -12l92 2c55.333 0 105 1.33301 149 4c-23.333 68 -38.333 108.333 -45 121l-72 184l-45.5 109c-22.333 52.667 -38.5 88.667 -48.5 108c-12.667 -28 -23.5 -53.5 -32.5 -76.5zM490.997 1564c0 44 15.667 81.333 47 112s69 46 113 46
c44.667 0 82.5 -15.5 113.5 -46.5s46.5 -68.167 46.5 -111.5c0 -28.667 -7 -55.167 -21 -79.5s-33.167 -43.833 -57.5 -58.5s-51.5 -22 -81.5 -22c-44 0 -81.667 15.667 -113 47s-47 69 -47 113zM541.997 1564c0 -28.667 10.833 -53.833 32.5 -75.5s47.167 -32.5 76.5 -32.5
s54.833 10.5 76.5 31.5s32.5 46.5 32.5 76.5c0 29.333 -10.5 54.833 -31.5 76.5s-46.833 32.5 -77.5 32.5c-31.333 0 -57.333 -10.667 -78 -32s-31 -47 -31 -77z" />
    <glyph glyph-name="AE" unicode="&#xc6;" horiz-adv-x="2005" 
d="M786 1272l-0.000976562 39.001c64.667 -8 138.667 -13 222 -15c52.667 -2.66699 127.667 -4 225 -4l450 2l183 2c9.33301 0 14 -4 14 -12c0 -14 -5.66699 -54.667 -17 -122s-22.666 -108 -33.999 -122l-12.5 5c-5 2 -9.83301 3.33301 -14.5 4
c6.66699 28.667 10 53.667 10 75c0 42.667 -23.167 73.167 -69.5 91.5s-120.5 27.5 -222.5 27.5c-38 0 -89.667 -1.66699 -155 -5s-125 -8.33301 -179 -15c-13.333 -68 -21 -184.333 -23 -349v-104c0 -38 0.666992 -60.667 2 -68c60 -5.33301 129.667 -8 209 -8l166 2
c61.333 0 103.166 2 125.499 6s38.666 14.333 48.999 31s19.833 48.667 28.5 96h37c0 -72.667 -0.166992 -148 -0.5 -226s-0.166016 -126 0.500977 -144h-37c-3.33301 62.667 -12 105.167 -26 127.5s-40.833 36.333 -80.5 42s-114.834 8.5 -225.501 8.5h-100l-144 -2
c-2.66699 -20.667 -4 -86.334 -4 -197.001c0 -150 6.33301 -268 19 -354c76 -19.333 177.667 -29 305 -29c152.667 0 256.334 20 311.001 60s97.667 102.667 129 188l33 2c-7.33301 -96.667 -34.666 -199 -81.999 -307c-80 5.33301 -171.333 8 -274 8h-129
c-94 0 -192.5 -1.5 -295.5 -4.5s-205.5 -8.16699 -307.5 -15.5l-2 34c33.333 6 58 12.333 74 19s27.833 15.334 35.5 26.001s14.167 24.334 19.5 41.001c18 59.333 27 151.666 27 276.999l-2 70c-45.333 4 -97.166 6.66699 -155.499 8s-108.166 2 -149.499 2l-72 -2
c-63.333 0 -112.333 -2.66699 -147 -8l-103 -170c-35.333 -56.667 -57.833 -95.334 -67.5 -116.001s-14.5 -38 -14.5 -52c0 -47.333 48 -76.666 144 -87.999v-37c-10.667 0.666992 -38.667 2.16699 -84 4.5s-84.333 3.5 -117 3.5h-88c-35.333 0 -58.333 -0.166992 -69 -0.5
s-24.167 -1 -40.5 -2s-31.833 -2.16699 -46.5 -3.5v37c36 8 65.333 17.167 88 27.5s50.667 31.5 84 63.5s76.166 84.167 128.499 156.5s114.166 165.833 185.499 280.5l194 315l77.5 126.5l56.5 95l87 147.5c-60 17.333 -103 27.666 -129 30.999zM910.999 1133l-43 -70.001
l-321 -537c51.333 -4 110 -6 176 -6h96l90 2c6.66699 0 26.667 0.666992 60 2s53 2 59 2c1.33301 16 1.33301 42 0 78l-6 346c0 12 -0.833008 32.833 -2.5 62.5s-4 61.334 -7 95.001s-7.33301 62 -13 85s-12.5 34.5 -20.5 34.5c-5.33301 0 -28 -31.333 -68 -94z" />
    <glyph glyph-name="Ccedilla" unicode="&#xc7;" horiz-adv-x="1280" 
d="M1204 201c-3.33301 -8.66699 -17.666 -58 -42.999 -148c-72 -21.333 -137.333 -37.833 -196 -49.5s-122.334 -17.5 -191.001 -17.5c-82.667 0 -165.334 14.667 -248.001 44s-157 72.833 -223 130.5s-118.333 128 -157 211s-58 177.5 -58 283.5
c0 145.333 35.833 268 107.5 368s163 173.667 274 221s225.5 71 343.5 71c92.667 0 182 -16.333 268 -49c40 -12.667 70 -19 90 -19c9.33301 2 16.166 3.33301 20.499 4s9.83301 1.33398 16.5 2.00098c4 0 8.33301 -2.66699 13 -8l-15 -57
c-14 -50 -26.333 -113.667 -37 -191c-12 2 -20 6.16699 -24 12.5s-6 16.5 -6 30.5c-1.33301 42 -7 70.667 -17 86c-18 29.333 -63 59.333 -135 90s-144.333 46 -217 46c-96 0 -182.833 -23.833 -260.5 -71.5s-139 -117.5 -184 -209.5s-67.5 -200 -67.5 -324
c0 -114 19.833 -212.167 59.5 -294.5s89.334 -147.5 149.001 -195.5s120.334 -82.667 182.001 -104s115.167 -32 160.5 -32c72 0 131.667 11.833 179 35.5s84.5 52 111.5 85s53.167 72.5 78.5 118.5c10 19.333 18.667 29 26 29c12.667 0 19 -6 19 -18
c0 -8.66699 -6.33301 -35.334 -19 -80.001zM696 20l51 0.000976562l-51 -96c95.333 -30.667 143 -83 143 -157c0 -43.333 -15.5 -81.5 -46.5 -114.5s-74.167 -58 -129.5 -75s-115.333 -23.5 -180 -19.5v41c104 2.66699 172 18 204 46s48 56.333 48 85
c0 65.333 -52.667 100.666 -158 105.999c73.333 110 113 171.333 119 184z" />
    <glyph glyph-name="Egrave" unicode="&#xc8;" horiz-adv-x="1153" 
d="M1075 293l30.999 -0.00488281c-10.667 -69.333 -22.334 -126.833 -35.001 -172.5s-29 -89.167 -49 -130.5c-22 2 -52 3.5 -90 4.5s-91.333 1.5 -160 1.5c-41.333 0 -85.666 0.666992 -132.999 2s-67.666 2 -60.999 2c-43.333 0 -93.833 -0.5 -151.5 -1.5
s-127.167 -2.83301 -208.5 -5.5s-141 -5 -179 -7l2 34c20.667 4.66699 41.667 9.83398 63 15.501s35.833 11.834 43.5 18.501s13.167 14.834 16.5 24.501s6.66602 27.167 9.99902 52.5c4 25.333 7.83301 71.166 11.5 137.499s6.66699 140.833 9 223.5
s3.16602 134.334 2.49902 155.001l-7 318c-2 98.667 -5.83301 165.334 -11.5 200.001s-16.5 57.667 -32.5 69s-46.333 21.333 -91 30c0 10.667 0.666992 19.334 2 26.001h641c72 0 180.667 2.66699 326 8c-3.33301 -57.333 -9.33301 -114.666 -18 -171.999
s-19.667 -86 -33 -86c-16.667 0 -25 5 -25 15c0 4 1.33301 16.667 4 38s4 33.666 4 36.999c0 48.667 -29.167 79.667 -87.5 93s-128.166 20 -209.499 20c-98 0 -200.333 -6.66699 -307 -20c-12 -110.667 -18 -203.667 -18 -279c0 -49.333 0.333008 -106 1 -170s1 -94 1 -90
c16 -1.33301 65 -2 147 -2c141.333 0 238.333 2.66699 291 8c30 3.33301 50.167 7.33301 60.5 12s20.166 16.5 29.499 35.5s19.666 48.167 30.999 87.5l29 -2c0 -69.333 -0.166992 -131.333 -0.5 -186s-0.833008 -117.334 -1.5 -188.001h-35
c-2 61.333 -11.167 104 -27.5 128s-47.833 39.333 -94.5 46s-129.667 10 -249 10c-76.667 0 -136.667 -3.33301 -180 -10l-4 -142c-4.66699 -173.333 1.33301 -307 18 -401c12 -3.33301 26.333 -7 43 -11s32.5 -7.16699 47.5 -9.5s36.5 -4.66602 64.5 -6.99902
s63 -3.5 105 -3.5c104.667 0 186.834 7.66699 246.501 23s105.334 40 137.001 74s58.834 83 81.501 147zM508.999 1738l196 -356h-47l-289 356h140z" />
    <glyph glyph-name="Eacute" unicode="&#xc9;" horiz-adv-x="1153" 
d="M1075 293l30.999 -0.00488281c-10.667 -69.333 -22.334 -126.833 -35.001 -172.5s-29 -89.167 -49 -130.5c-22 2 -52 3.5 -90 4.5s-91.333 1.5 -160 1.5c-41.333 0 -85.666 0.666992 -132.999 2s-67.666 2 -60.999 2c-43.333 0 -93.833 -0.5 -151.5 -1.5
s-127.167 -2.83301 -208.5 -5.5s-141 -5 -179 -7l2 34c20.667 4.66699 41.667 9.83398 63 15.501s35.833 11.834 43.5 18.501s13.167 14.834 16.5 24.501s6.66602 27.167 9.99902 52.5c4 25.333 7.83301 71.166 11.5 137.499s6.66699 140.833 9 223.5
s3.16602 134.334 2.49902 155.001l-7 318c-2 98.667 -5.83301 165.334 -11.5 200.001s-16.5 57.667 -32.5 69s-46.333 21.333 -91 30c0 10.667 0.666992 19.334 2 26.001h641c72 0 180.667 2.66699 326 8c-3.33301 -57.333 -9.33301 -114.666 -18 -171.999
s-19.667 -86 -33 -86c-16.667 0 -25 5 -25 15c0 4 1.33301 16.667 4 38s4 33.666 4 36.999c0 48.667 -29.167 79.667 -87.5 93s-128.166 20 -209.499 20c-98 0 -200.333 -6.66699 -307 -20c-12 -110.667 -18 -203.667 -18 -279c0 -49.333 0.333008 -106 1 -170s1 -94 1 -90
c16 -1.33301 65 -2 147 -2c141.333 0 238.333 2.66699 291 8c30 3.33301 50.167 7.33301 60.5 12s20.166 16.5 29.499 35.5s19.666 48.167 30.999 87.5l29 -2c0 -69.333 -0.166992 -131.333 -0.5 -186s-0.833008 -117.334 -1.5 -188.001h-35
c-2 61.333 -11.167 104 -27.5 128s-47.833 39.333 -94.5 46s-129.667 10 -249 10c-76.667 0 -136.667 -3.33301 -180 -10l-4 -142c-4.66699 -173.333 1.33301 -307 18 -401c12 -3.33301 26.333 -7 43 -11s32.5 -7.16699 47.5 -9.5s36.5 -4.66602 64.5 -6.99902
s63 -3.5 105 -3.5c104.667 0 186.834 7.66699 246.501 23s105.334 40 137.001 74s58.834 83 81.501 147zM475.999 1382l197 356h139l-288 -356h-48z" />
    <glyph glyph-name="Ecircumflex" unicode="&#xca;" horiz-adv-x="1153" 
d="M1075 293l30.999 -0.00488281c-10.667 -69.333 -22.334 -126.833 -35.001 -172.5s-29 -89.167 -49 -130.5c-22 2 -52 3.5 -90 4.5s-91.333 1.5 -160 1.5c-41.333 0 -85.666 0.666992 -132.999 2s-67.666 2 -60.999 2c-43.333 0 -93.833 -0.5 -151.5 -1.5
s-127.167 -2.83301 -208.5 -5.5s-141 -5 -179 -7l2 34c20.667 4.66699 41.667 9.83398 63 15.501s35.833 11.834 43.5 18.501s13.167 14.834 16.5 24.501s6.66602 27.167 9.99902 52.5c4 25.333 7.83301 71.166 11.5 137.499s6.66699 140.833 9 223.5
s3.16602 134.334 2.49902 155.001l-7 318c-2 98.667 -5.83301 165.334 -11.5 200.001s-16.5 57.667 -32.5 69s-46.333 21.333 -91 30c0 10.667 0.666992 19.334 2 26.001h641c72 0 180.667 2.66699 326 8c-3.33301 -57.333 -9.33301 -114.666 -18 -171.999
s-19.667 -86 -33 -86c-16.667 0 -25 5 -25 15c0 4 1.33301 16.667 4 38s4 33.666 4 36.999c0 48.667 -29.167 79.667 -87.5 93s-128.166 20 -209.499 20c-98 0 -200.333 -6.66699 -307 -20c-12 -110.667 -18 -203.667 -18 -279c0 -49.333 0.333008 -106 1 -170s1 -94 1 -90
c16 -1.33301 65 -2 147 -2c141.333 0 238.333 2.66699 291 8c30 3.33301 50.167 7.33301 60.5 12s20.166 16.5 29.499 35.5s19.666 48.167 30.999 87.5l29 -2c0 -69.333 -0.166992 -131.333 -0.5 -186s-0.833008 -117.334 -1.5 -188.001h-35
c-2 61.333 -11.167 104 -27.5 128s-47.833 39.333 -94.5 46s-129.667 10 -249 10c-76.667 0 -136.667 -3.33301 -180 -10l-4 -142c-4.66699 -173.333 1.33301 -307 18 -401c12 -3.33301 26.333 -7 43 -11s32.5 -7.16699 47.5 -9.5s36.5 -4.66602 64.5 -6.99902
s63 -3.5 105 -3.5c104.667 0 186.834 7.66699 246.501 23s105.334 40 137.001 74s58.834 83 81.501 147zM542.999 1739h90l199 -356h-47l-195 215l-199 -215h-47z" />
    <glyph glyph-name="Edieresis" unicode="&#xcb;" horiz-adv-x="1153" 
d="M1075 293l30.999 -0.00488281c-10.667 -69.333 -22.334 -126.833 -35.001 -172.5s-29 -89.167 -49 -130.5c-22 2 -52 3.5 -90 4.5s-91.333 1.5 -160 1.5c-41.333 0 -85.666 0.666992 -132.999 2s-67.666 2 -60.999 2c-43.333 0 -93.833 -0.5 -151.5 -1.5
s-127.167 -2.83301 -208.5 -5.5s-141 -5 -179 -7l2 34c20.667 4.66699 41.667 9.83398 63 15.501s35.833 11.834 43.5 18.501s13.167 14.834 16.5 24.501s6.66602 27.167 9.99902 52.5c4 25.333 7.83301 71.166 11.5 137.499s6.66699 140.833 9 223.5
s3.16602 134.334 2.49902 155.001l-7 318c-2 98.667 -5.83301 165.334 -11.5 200.001s-16.5 57.667 -32.5 69s-46.333 21.333 -91 30c0 10.667 0.666992 19.334 2 26.001h641c72 0 180.667 2.66699 326 8c-3.33301 -57.333 -9.33301 -114.666 -18 -171.999
s-19.667 -86 -33 -86c-16.667 0 -25 5 -25 15c0 4 1.33301 16.667 4 38s4 33.666 4 36.999c0 48.667 -29.167 79.667 -87.5 93s-128.166 20 -209.499 20c-98 0 -200.333 -6.66699 -307 -20c-12 -110.667 -18 -203.667 -18 -279c0 -49.333 0.333008 -106 1 -170s1 -94 1 -90
c16 -1.33301 65 -2 147 -2c141.333 0 238.333 2.66699 291 8c30 3.33301 50.167 7.33301 60.5 12s20.166 16.5 29.499 35.5s19.666 48.167 30.999 87.5l29 -2c0 -69.333 -0.166992 -131.333 -0.5 -186s-0.833008 -117.334 -1.5 -188.001h-35
c-2 61.333 -11.167 104 -27.5 128s-47.833 39.333 -94.5 46s-129.667 10 -249 10c-76.667 0 -136.667 -3.33301 -180 -10l-4 -142c-4.66699 -173.333 1.33301 -307 18 -401c12 -3.33301 26.333 -7 43 -11s32.5 -7.16699 47.5 -9.5s36.5 -4.66602 64.5 -6.99902
s63 -3.5 105 -3.5c104.667 0 186.834 7.66699 246.501 23s105.334 40 137.001 74s58.834 83 81.501 147zM669.999 1508c0 21.333 7.66602 39.668 22.999 55.001s33 23 53 23c22 0 40.5 -7.83301 55.5 -23.5s22.5 -33.834 22.5 -54.501c0 -20 -7.66699 -37.667 -23 -53
s-33.666 -23 -54.999 -23c-20.667 0 -38.5 7.5 -53.5 22.5s-22.5 32.833 -22.5 53.5zM351.998 1508c0 20.667 7.49902 38.834 22.499 54.501s33.5 23.5 55.5 23.5c22.667 0 41 -7.83301 55 -23.5s21 -33.834 21 -54.501c0 -19.333 -7.16699 -36.833 -21.5 -52.5
s-32.5 -23.5 -54.5 -23.5c-21.333 0 -39.666 7.66699 -54.999 23s-23 33 -23 53z" />
    <glyph glyph-name="Igrave" unicode="&#xcc;" horiz-adv-x="641" 
d="M41 1253l0.00195312 42.999c75.333 -4 122.333 -6.66699 141 -8c68 -2.66699 113.667 -4 137 -4c8 0 42.667 1.33301 104 4s119 5.33398 173 8.00098v-47c-58.667 0 -98.667 -3.16699 -120 -9.5s-37.333 -18.833 -48 -37.5c-22 -42 -33 -202.333 -33 -481
c0 -192 0.166992 -313.5 0.5 -364.5s1.5 -105.5 3.5 -163.5c1.33301 -46.667 5 -79.667 11 -99s22.333 -33.833 49 -43.5s69.667 -14.834 129 -15.501l-4 -39c-9.33301 0 -27.833 0.5 -55.5 1.5s-56.334 1.83301 -86.001 2.5l-68.5 1.5c-16 0.333008 -34.333 0.5 -55 0.5
c-29.333 0 -53.833 -0.166992 -73.5 -0.5s-45.834 -0.833008 -78.501 -1.5s-62.167 -1.5 -88.5 -2.5s-42.166 -1.5 -47.499 -1.5l-2 37c72 4 120.667 12.333 146 25s42.666 33 51.999 61c13.333 36 21.833 104.167 25.5 204.5s5.5 206.166 5.5 317.499
c0 100.667 -3.33301 245.334 -10 434.001c-2 52 -7.16699 89.167 -15.5 111.5s-27 38.833 -56 49.5s-74.167 16.334 -135.5 17.001zM280.002 1738l196 -356h-47l-289 356h140z" />
    <glyph glyph-name="Iacute" unicode="&#xcd;" horiz-adv-x="641" 
d="M41 1253l0.00195312 42.999c75.333 -4 122.333 -6.66699 141 -8c68 -2.66699 113.667 -4 137 -4c8 0 42.667 1.33301 104 4s119 5.33398 173 8.00098v-47c-58.667 0 -98.667 -3.16699 -120 -9.5s-37.333 -18.833 -48 -37.5c-22 -42 -33 -202.333 -33 -481
c0 -192 0.166992 -313.5 0.5 -364.5s1.5 -105.5 3.5 -163.5c1.33301 -46.667 5 -79.667 11 -99s22.333 -33.833 49 -43.5s69.667 -14.834 129 -15.501l-4 -39c-9.33301 0 -27.833 0.5 -55.5 1.5s-56.334 1.83301 -86.001 2.5l-68.5 1.5c-16 0.333008 -34.333 0.5 -55 0.5
c-29.333 0 -53.833 -0.166992 -73.5 -0.5s-45.834 -0.833008 -78.501 -1.5s-62.167 -1.5 -88.5 -2.5s-42.166 -1.5 -47.499 -1.5l-2 37c72 4 120.667 12.333 146 25s42.666 33 51.999 61c13.333 36 21.833 104.167 25.5 204.5s5.5 206.166 5.5 317.499
c0 100.667 -3.33301 245.334 -10 434.001c-2 52 -7.16699 89.167 -15.5 111.5s-27 38.833 -56 49.5s-74.167 16.334 -135.5 17.001zM180.002 1382l197 356h139l-288 -356h-48z" />
    <glyph glyph-name="Icircumflex" unicode="&#xce;" horiz-adv-x="641" 
d="M41 1253l0.00195312 42.999c75.333 -4 122.333 -6.66699 141 -8c68 -2.66699 113.667 -4 137 -4c8 0 42.667 1.33301 104 4s119 5.33398 173 8.00098v-47c-58.667 0 -98.667 -3.16699 -120 -9.5s-37.333 -18.833 -48 -37.5c-22 -42 -33 -202.333 -33 -481
c0 -192 0.166992 -313.5 0.5 -364.5s1.5 -105.5 3.5 -163.5c1.33301 -46.667 5 -79.667 11 -99s22.333 -33.833 49 -43.5s69.667 -14.834 129 -15.501l-4 -39c-9.33301 0 -27.833 0.5 -55.5 1.5s-56.334 1.83301 -86.001 2.5l-68.5 1.5c-16 0.333008 -34.333 0.5 -55 0.5
c-29.333 0 -53.833 -0.166992 -73.5 -0.5s-45.834 -0.833008 -78.501 -1.5s-62.167 -1.5 -88.5 -2.5s-42.166 -1.5 -47.499 -1.5l-2 37c72 4 120.667 12.333 146 25s42.666 33 51.999 61c13.333 36 21.833 104.167 25.5 204.5s5.5 206.166 5.5 317.499
c0 100.667 -3.33301 245.334 -10 434.001c-2 52 -7.16699 89.167 -15.5 111.5s-27 38.833 -56 49.5s-74.167 16.334 -135.5 17.001zM277.002 1739h90l199 -356h-47l-195 215l-199 -215h-47z" />
    <glyph glyph-name="Idieresis" unicode="&#xcf;" horiz-adv-x="641" 
d="M41 1253l0.00195312 42.999c75.333 -4 122.333 -6.66699 141 -8c68 -2.66699 113.667 -4 137 -4c8 0 42.667 1.33301 104 4s119 5.33398 173 8.00098v-47c-58.667 0 -98.667 -3.16699 -120 -9.5s-37.333 -18.833 -48 -37.5c-22 -42 -33 -202.333 -33 -481
c0 -192 0.166992 -313.5 0.5 -364.5s1.5 -105.5 3.5 -163.5c1.33301 -46.667 5 -79.667 11 -99s22.333 -33.833 49 -43.5s69.667 -14.834 129 -15.501l-4 -39c-9.33301 0 -27.833 0.5 -55.5 1.5s-56.334 1.83301 -86.001 2.5l-68.5 1.5c-16 0.333008 -34.333 0.5 -55 0.5
c-29.333 0 -53.833 -0.166992 -73.5 -0.5s-45.834 -0.833008 -78.501 -1.5s-62.167 -1.5 -88.5 -2.5s-42.166 -1.5 -47.499 -1.5l-2 37c72 4 120.667 12.333 146 25s42.666 33 51.999 61c13.333 36 21.833 104.167 25.5 204.5s5.5 206.166 5.5 317.499
c0 100.667 -3.33301 245.334 -10 434.001c-2 52 -7.16699 89.167 -15.5 111.5s-27 38.833 -56 49.5s-74.167 16.334 -135.5 17.001zM404.002 1508c0 21.333 7.66602 39.668 22.999 55.001s33 23 53 23c22 0 40.5 -7.83301 55.5 -23.5s22.5 -33.834 22.5 -54.501
c0 -20 -7.66699 -37.667 -23 -53s-33.666 -23 -54.999 -23c-20.667 0 -38.5 7.5 -53.5 22.5s-22.5 32.833 -22.5 53.5zM86.001 1508c0 20.667 7.49902 38.834 22.499 54.501s33.5 23.5 55.5 23.5c22.667 0 41 -7.83301 55 -23.5s21 -33.834 21 -54.501
c0 -19.333 -7.16699 -36.833 -21.5 -52.5s-32.5 -23.5 -54.5 -23.5c-21.333 0 -39.666 7.66699 -54.999 23s-23 33 -23 53z" />
    <glyph glyph-name="Eth" unicode="&#xd0;" horiz-adv-x="1473" 
d="M41 4l-0.00292969 37.0029c40 0 69.833 4 89.5 12s32.5 19.167 38.5 33.5s10.333 36.166 13 65.499c6.66699 48.667 10.5 103.167 11.5 163.5s1.5 162.833 1.5 307.5h-154v59h154c-1.33301 164 -3.33301 281.333 -6 352s-9.66699 120.667 -21 150
c-13.333 38.667 -52.333 57 -117 55l-2 37c178.667 0 329 7.33301 451 22c47.333 6 95 9 143 9c97.333 0 191.833 -14.667 283.5 -44s172.334 -71.833 242.001 -127.5s124.834 -124.334 165.501 -206.001s61 -171.834 61 -270.501c0 -90.667 -17.833 -176.167 -53.5 -256.5
s-86.167 -149.833 -151.5 -208.5s-145 -105 -239 -139s-198.667 -51 -314 -51c-8 0 -33.667 0.666992 -77 2s-69 2 -77 2c-25.333 0 -48.166 -0.166992 -68.499 -0.5l-87.5 -1.5c-38 -0.666992 -74.833 -1.5 -110.5 -2.5s-60.167 -1.5 -73.5 -1.5zM695.997 682.003v-59.0029
h-362c0 -18.667 0.5 -55.167 1.5 -109.5s1.83301 -110.333 2.5 -168s1.16699 -102.167 1.5 -133.5s0.5 -66.666 0.5 -105.999c67.333 -21.333 119 -36.166 155 -44.499s81.333 -12.5 136 -12.5c201.333 0 350 60.5 446 181.5s144 263.833 144 428.5
c0 126 -30 234.5 -90 325.5s-136.667 159.667 -230 206s-189 69.5 -287 69.5c-96 0 -182.667 -17.333 -260 -52c-6 -33.333 -10.833 -109.666 -14.5 -228.999s-5.5 -218.333 -5.5 -297h362z" />
    <glyph glyph-name="Ntilde" unicode="&#xd1;" horiz-adv-x="1579" 
d="M33 1255l-0.00292969 41.001c60 -4 98.333 -6.5 115 -7.5s36.334 -1.16699 59.001 -0.5l86 2c40 -50.667 87 -104.334 141 -161.001l181.5 -182.5l113.5 -110.5l590 -560c5.33301 83.333 8 209.666 8 378.999v193c0 102.667 -2.5 180 -7.5 232s-14.5 90.333 -28.5 115
s-32.333 41.167 -55 49.5s-60.667 16.833 -114 25.5l11 28c9.33301 1.33301 25.666 2 48.999 2c20.667 0 41.334 -0.333008 62.001 -1s45 -2.33398 73 -5.00098c16.667 -1.33301 34 -2 52 -2h44l127 2l2 -34c-40 -6 -68.667 -15.333 -86 -28s-29.666 -33.667 -36.999 -63
c-12 -54.667 -20.5 -161.667 -25.5 -321s-7.5 -311 -7.5 -455c0 -56.667 0.5 -111 1.5 -163s2.16699 -98.667 3.5 -140s3.33301 -79.666 6 -114.999l-41 2c-46 99.333 -184.667 256.666 -416 471.999l-375 350c-12.667 9.33301 -43.5 37 -92.5 83l-185.5 173l-13 -613
c-3.33301 -126 -0.666016 -214.167 8.00098 -264.5s27.667 -83.666 57 -99.999s85 -32.5 167 -48.5c0 -14 -1.33301 -26.333 -4 -37c-10.667 0 -42.667 1.33301 -96 4c-54.667 2.66699 -87.667 4 -99 4c-10.667 0 -47.334 -1.33301 -110.001 -4
c-10.667 -0.666992 -25 -1.66699 -43 -3l-70 -5c-9.33301 0 -16.166 1.83301 -20.499 5.5s-6.5 9.83398 -6.5 18.501c0 10 1.66699 16 5 18s10.666 3.66699 21.999 5c29.333 3.33301 50.5 8.66602 63.5 15.999s23.5 21.333 31.5 42s13.833 53.5 17.5 98.5
s5.83398 102.833 6.50098 173.5l6 477c1.33301 104.667 -0.5 182.334 -5.5 233.001s-19.833 91.667 -44.5 123s-66.667 50.333 -126 57zM1029 1620l41.001 -0.00195312c-2 -83.333 -21.833 -137.166 -59.5 -161.499s-72.5 -36.5 -104.5 -36.5c-25.333 0 -47.833 4 -67.5 12
s-53.834 26.333 -102.501 55c-26 16 -44.5 26.5 -55.5 31.5s-23.833 7.5 -38.5 7.5c-24 0 -45 -8.83301 -63 -26.5s-26.667 -44.167 -26 -79.5h-41c11.333 132 66.666 198 165.999 198c26 0 48.667 -4.5 68 -13.5s46.666 -24.833 81.999 -47.5
c32.667 -20 54.834 -32.833 66.501 -38.5s25.5 -8.5 41.5 -8.5c24 0 45.333 9.33301 64 28s28.334 45.334 29.001 80.001z" />
    <glyph glyph-name="Ograve" unicode="&#xd2;" horiz-adv-x="1516" 
d="M84 645c0 121.333 32.168 233.333 96.501 336s149.833 184 256.5 244s219.667 90 339 90c81.333 0 161.666 -16 240.999 -48s150.333 -76.833 213 -134.5s112.667 -128.167 150 -211.5s56 -174 56 -272c0 -119.333 -29.667 -230.833 -89 -334.5
s-141.833 -186.167 -247.5 -247.5s-225.167 -92 -358.5 -92c-102 0 -194 20 -276 60s-151.833 94 -209.5 162s-100.667 140.833 -129 218.5s-42.5 154.167 -42.5 229.5zM233.001 721c0 -116.667 27.332 -227 81.999 -331s128 -187.167 220 -249.5s189.333 -93.5 292 -93.5
c76 0 148.833 18.833 218.5 56.5s126.834 95.834 171.501 174.501s67 175.667 67 291c0 92 -14.833 179.333 -44.5 262s-71 155.167 -124 217.5s-114.167 110.666 -183.5 144.999s-142.333 51.5 -219 51.5c-84 0 -162.667 -20.833 -236 -62.5s-132.333 -102.5 -177 -182.5
s-67 -173 -67 -279zM706 1738l196 -356h-47l-289 356h140z" />
    <glyph glyph-name="Oacute" unicode="&#xd3;" horiz-adv-x="1516" 
d="M84 645c0 121.333 32.168 233.333 96.501 336s149.833 184 256.5 244s219.667 90 339 90c81.333 0 161.666 -16 240.999 -48s150.333 -76.833 213 -134.5s112.667 -128.167 150 -211.5s56 -174 56 -272c0 -119.333 -29.667 -230.833 -89 -334.5
s-141.833 -186.167 -247.5 -247.5s-225.167 -92 -358.5 -92c-102 0 -194 20 -276 60s-151.833 94 -209.5 162s-100.667 140.833 -129 218.5s-42.5 154.167 -42.5 229.5zM233.001 721c0 -116.667 27.332 -227 81.999 -331s128 -187.167 220 -249.5s189.333 -93.5 292 -93.5
c76 0 148.833 18.833 218.5 56.5s126.834 95.834 171.501 174.501s67 175.667 67 291c0 92 -14.833 179.333 -44.5 262s-71 155.167 -124 217.5s-114.167 110.666 -183.5 144.999s-142.333 51.5 -219 51.5c-84 0 -162.667 -20.833 -236 -62.5s-132.333 -102.5 -177 -182.5
s-67 -173 -67 -279zM628 1382l197 356h139l-288 -356h-48z" />
    <glyph glyph-name="Ocircumflex" unicode="&#xd4;" horiz-adv-x="1516" 
d="M84 645c0 121.333 32.168 233.333 96.501 336s149.833 184 256.5 244s219.667 90 339 90c81.333 0 161.666 -16 240.999 -48s150.333 -76.833 213 -134.5s112.667 -128.167 150 -211.5s56 -174 56 -272c0 -119.333 -29.667 -230.833 -89 -334.5
s-141.833 -186.167 -247.5 -247.5s-225.167 -92 -358.5 -92c-102 0 -194 20 -276 60s-151.833 94 -209.5 162s-100.667 140.833 -129 218.5s-42.5 154.167 -42.5 229.5zM233.001 721c0 -116.667 27.332 -227 81.999 -331s128 -187.167 220 -249.5s189.333 -93.5 292 -93.5
c76 0 148.833 18.833 218.5 56.5s126.834 95.834 171.501 174.501s67 175.667 67 291c0 92 -14.833 179.333 -44.5 262s-71 155.167 -124 217.5s-114.167 110.666 -183.5 144.999s-142.333 51.5 -219 51.5c-84 0 -162.667 -20.833 -236 -62.5s-132.333 -102.5 -177 -182.5
s-67 -173 -67 -279zM715 1739h90l199 -356h-47l-195 215l-199 -215h-47z" />
    <glyph glyph-name="Otilde" unicode="&#xd5;" horiz-adv-x="1516" 
d="M84 645c0 121.333 32.168 233.333 96.501 336s149.833 184 256.5 244s219.667 90 339 90c81.333 0 161.666 -16 240.999 -48s150.333 -76.833 213 -134.5s112.667 -128.167 150 -211.5s56 -174 56 -272c0 -119.333 -29.667 -230.833 -89 -334.5
s-141.833 -186.167 -247.5 -247.5s-225.167 -92 -358.5 -92c-102 0 -194 20 -276 60s-151.833 94 -209.5 162s-100.667 140.833 -129 218.5s-42.5 154.167 -42.5 229.5zM233.001 721c0 -116.667 27.332 -227 81.999 -331s128 -187.167 220 -249.5s189.333 -93.5 292 -93.5
c76 0 148.833 18.833 218.5 56.5s126.834 95.834 171.501 174.501s67 175.667 67 291c0 92 -14.833 179.333 -44.5 262s-71 155.167 -124 217.5s-114.167 110.666 -183.5 144.999s-142.333 51.5 -219 51.5c-84 0 -162.667 -20.833 -236 -62.5s-132.333 -102.5 -177 -182.5
s-67 -173 -67 -279zM998 1620l41.001 -0.00195312c-2 -83.333 -21.833 -137.166 -59.5 -161.499s-72.5 -36.5 -104.5 -36.5c-25.333 0 -47.833 4 -67.5 12s-53.834 26.333 -102.501 55c-26 16 -44.5 26.5 -55.5 31.5s-23.833 7.5 -38.5 7.5c-24 0 -45 -8.83301 -63 -26.5
s-26.667 -44.167 -26 -79.5h-41c11.333 132 66.666 198 165.999 198c26 0 48.667 -4.5 68 -13.5s46.666 -24.833 81.999 -47.5c32.667 -20 54.834 -32.833 66.501 -38.5s25.5 -8.5 41.5 -8.5c24 0 45.333 9.33301 64 28s28.334 45.334 29.001 80.001z" />
    <glyph glyph-name="Odieresis" unicode="&#xd6;" horiz-adv-x="1516" 
d="M84 645c0 121.333 32.168 233.333 96.501 336s149.833 184 256.5 244s219.667 90 339 90c81.333 0 161.666 -16 240.999 -48s150.333 -76.833 213 -134.5s112.667 -128.167 150 -211.5s56 -174 56 -272c0 -119.333 -29.667 -230.833 -89 -334.5
s-141.833 -186.167 -247.5 -247.5s-225.167 -92 -358.5 -92c-102 0 -194 20 -276 60s-151.833 94 -209.5 162s-100.667 140.833 -129 218.5s-42.5 154.167 -42.5 229.5zM233.001 721c0 -116.667 27.332 -227 81.999 -331s128 -187.167 220 -249.5s189.333 -93.5 292 -93.5
c76 0 148.833 18.833 218.5 56.5s126.834 95.834 171.501 174.501s67 175.667 67 291c0 92 -14.833 179.333 -44.5 262s-71 155.167 -124 217.5s-114.167 110.666 -183.5 144.999s-142.333 51.5 -219 51.5c-84 0 -162.667 -20.833 -236 -62.5s-132.333 -102.5 -177 -182.5
s-67 -173 -67 -279zM842 1508c0 21.333 7.66602 39.668 22.999 55.001s33 23 53 23c22 0 40.5 -7.83301 55.5 -23.5s22.5 -33.834 22.5 -54.501c0 -20 -7.66699 -37.667 -23 -53s-33.666 -23 -54.999 -23c-20.667 0 -38.5 7.5 -53.5 22.5s-22.5 32.833 -22.5 53.5z
M523.999 1508c0 20.667 7.49902 38.834 22.499 54.501s33.5 23.5 55.5 23.5c22.667 0 41 -7.83301 55 -23.5s21 -33.834 21 -54.501c0 -19.333 -7.16699 -36.833 -21.5 -52.5s-32.5 -23.5 -54.5 -23.5c-21.333 0 -39.666 7.66699 -54.999 23s-23 33 -23 53z" />
    <glyph glyph-name="multiply" unicode="&#xd7;" 
d="M208 1200l413 -413l413 413l94 -94l-413 -413l412 -413l-94 -94l-412 413l-412 -412l-94 94l412 412l-413 413z" />
    <glyph glyph-name="Oslash" unicode="&#xd8;" horiz-adv-x="1516" 
d="M1219 1141l186 183.997l43 -43l-186 -182c116 -126.667 174 -277 174 -451c0 -89.333 -17.167 -175.166 -51.5 -257.499s-82.833 -154.833 -145.5 -217.5s-136.667 -111.5 -222 -146.5s-176.666 -52.5 -273.999 -52.5c-56.667 0 -110 6.33301 -160 19
s-93.333 28.5 -130 47.5s-65.834 37 -87.501 54s-43.834 35.833 -66.501 56.5l-182 -181l-37 41l180 178c-68 79.333 -114.333 160 -139 242s-37 154.333 -37 217c0 116.667 31.5 226.334 94.5 329.001s147.5 184.5 253.5 245.5s220.667 91.5 344 91.5
c93.333 0 176.833 -16.667 250.5 -50s137.834 -74.666 192.501 -123.999zM369 298.997l751.002 742.999c-42 49.333 -96.167 95.5 -162.5 138.5s-147.833 64.5 -244.5 64.5c-64.667 0 -125.834 -12.167 -183.501 -36.5s-108.834 -59.333 -153.501 -105
s-79.667 -100.5 -105 -164.5s-38 -135.333 -38 -214c0 -66 11.333 -137.167 34 -213.5s56.667 -147.166 102 -212.499zM1157 994.996l-751.001 -738.998c40 -45.333 82.667 -83.333 128 -114s92.833 -54.167 142.5 -70.5s99.834 -24.5 150.501 -24.5
c75.333 0 147.833 19 217.5 57s127 96.167 172 174.5s67.5 175.166 67.5 290.499c0 69.333 -10.167 141.166 -30.5 215.499s-52.5 144.5 -96.5 210.5z" />
    <glyph glyph-name="Ugrave" unicode="&#xd9;" horiz-adv-x="1473" 
d="M43 1245l4.00293 36.9971c31.333 -1.33301 79 -2 143 -2c113.333 0 224.666 2.66699 333.999 8l11 -33c-62 -7.33301 -103.833 -16.333 -125.5 -27s-37.5 -25.334 -47.5 -44.001c-20 -37.333 -30 -193.666 -30 -468.999c0 -94.667 1.33301 -178 4 -250s8 -128 16 -168
c22 -100.667 75.667 -167.5 161 -200.5s165 -49.5 239 -49.5c42 0 92.333 6 151 18s114.334 33.667 167.001 65s88 74 106 128c36.667 106.667 55 316.334 55 629.001c0 93.333 -2.83301 163.5 -8.5 210.5s-14.834 81 -27.501 102s-28.667 33.833 -48 38.5s-50 7 -92 7
l-4 35c30 4 63.333 6 100 6c143.333 0 239.666 -0.666992 288.999 -2v-41c-46 -2 -77.5 -7 -94.5 -15s-27.333 -22.333 -31 -43s-6.16699 -64.667 -7.5 -132c-2 -126 -5 -237.833 -9 -335.5s-9 -178 -15 -241s-14.5 -119.167 -25.5 -168.5s-24.5 -89.333 -40.5 -120
c-30.667 -56.667 -78.334 -100.667 -143.001 -132s-130 -51.833 -196 -61.5s-126 -14.5 -180 -14.5c-90 0 -173 13.5 -249 40.5s-138.167 71.833 -186.5 134.5s-72.5 143.334 -72.5 242.001c0 24 0.833008 89.667 2.5 197s2.5 187.333 2.5 240
c0 184.667 -9 307.334 -27 368.001c-4.66699 15.333 -12.5 24.833 -23.5 28.5s-44.833 8.5 -101.5 14.5zM695.003 1738l196 -356h-47l-289 356h140z" />
    <glyph glyph-name="Uacute" unicode="&#xda;" horiz-adv-x="1473" 
d="M43 1245l4.00293 36.9971c31.333 -1.33301 79 -2 143 -2c113.333 0 224.666 2.66699 333.999 8l11 -33c-62 -7.33301 -103.833 -16.333 -125.5 -27s-37.5 -25.334 -47.5 -44.001c-20 -37.333 -30 -193.666 -30 -468.999c0 -94.667 1.33301 -178 4 -250s8 -128 16 -168
c22 -100.667 75.667 -167.5 161 -200.5s165 -49.5 239 -49.5c42 0 92.333 6 151 18s114.334 33.667 167.001 65s88 74 106 128c36.667 106.667 55 316.334 55 629.001c0 93.333 -2.83301 163.5 -8.5 210.5s-14.834 81 -27.501 102s-28.667 33.833 -48 38.5s-50 7 -92 7
l-4 35c30 4 63.333 6 100 6c143.333 0 239.666 -0.666992 288.999 -2v-41c-46 -2 -77.5 -7 -94.5 -15s-27.333 -22.333 -31 -43s-6.16699 -64.667 -7.5 -132c-2 -126 -5 -237.833 -9 -335.5s-9 -178 -15 -241s-14.5 -119.167 -25.5 -168.5s-24.5 -89.333 -40.5 -120
c-30.667 -56.667 -78.334 -100.667 -143.001 -132s-130 -51.833 -196 -61.5s-126 -14.5 -180 -14.5c-90 0 -173 13.5 -249 40.5s-138.167 71.833 -186.5 134.5s-72.5 143.334 -72.5 242.001c0 24 0.833008 89.667 2.5 197s2.5 187.333 2.5 240
c0 184.667 -9 307.334 -27 368.001c-4.66699 15.333 -12.5 24.833 -23.5 28.5s-44.833 8.5 -101.5 14.5zM659.003 1382l197 356h139l-288 -356h-48z" />
    <glyph glyph-name="Ucircumflex" unicode="&#xdb;" horiz-adv-x="1473" 
d="M43 1245l4.00293 36.9971c31.333 -1.33301 79 -2 143 -2c113.333 0 224.666 2.66699 333.999 8l11 -33c-62 -7.33301 -103.833 -16.333 -125.5 -27s-37.5 -25.334 -47.5 -44.001c-20 -37.333 -30 -193.666 -30 -468.999c0 -94.667 1.33301 -178 4 -250s8 -128 16 -168
c22 -100.667 75.667 -167.5 161 -200.5s165 -49.5 239 -49.5c42 0 92.333 6 151 18s114.334 33.667 167.001 65s88 74 106 128c36.667 106.667 55 316.334 55 629.001c0 93.333 -2.83301 163.5 -8.5 210.5s-14.834 81 -27.501 102s-28.667 33.833 -48 38.5s-50 7 -92 7
l-4 35c30 4 63.333 6 100 6c143.333 0 239.666 -0.666992 288.999 -2v-41c-46 -2 -77.5 -7 -94.5 -15s-27.333 -22.333 -31 -43s-6.16699 -64.667 -7.5 -132c-2 -126 -5 -237.833 -9 -335.5s-9 -178 -15 -241s-14.5 -119.167 -25.5 -168.5s-24.5 -89.333 -40.5 -120
c-30.667 -56.667 -78.334 -100.667 -143.001 -132s-130 -51.833 -196 -61.5s-126 -14.5 -180 -14.5c-90 0 -173 13.5 -249 40.5s-138.167 71.833 -186.5 134.5s-72.5 143.334 -72.5 242.001c0 24 0.833008 89.667 2.5 197s2.5 187.333 2.5 240
c0 184.667 -9 307.334 -27 368.001c-4.66699 15.333 -12.5 24.833 -23.5 28.5s-44.833 8.5 -101.5 14.5zM749.003 1739h90l199 -356h-47l-195 215l-199 -215h-47z" />
    <glyph glyph-name="Udieresis" unicode="&#xdc;" horiz-adv-x="1473" 
d="M43 1245l4.00293 36.9971c31.333 -1.33301 79 -2 143 -2c113.333 0 224.666 2.66699 333.999 8l11 -33c-62 -7.33301 -103.833 -16.333 -125.5 -27s-37.5 -25.334 -47.5 -44.001c-20 -37.333 -30 -193.666 -30 -468.999c0 -94.667 1.33301 -178 4 -250s8 -128 16 -168
c22 -100.667 75.667 -167.5 161 -200.5s165 -49.5 239 -49.5c42 0 92.333 6 151 18s114.334 33.667 167.001 65s88 74 106 128c36.667 106.667 55 316.334 55 629.001c0 93.333 -2.83301 163.5 -8.5 210.5s-14.834 81 -27.501 102s-28.667 33.833 -48 38.5s-50 7 -92 7
l-4 35c30 4 63.333 6 100 6c143.333 0 239.666 -0.666992 288.999 -2v-41c-46 -2 -77.5 -7 -94.5 -15s-27.333 -22.333 -31 -43s-6.16699 -64.667 -7.5 -132c-2 -126 -5 -237.833 -9 -335.5s-9 -178 -15 -241s-14.5 -119.167 -25.5 -168.5s-24.5 -89.333 -40.5 -120
c-30.667 -56.667 -78.334 -100.667 -143.001 -132s-130 -51.833 -196 -61.5s-126 -14.5 -180 -14.5c-90 0 -173 13.5 -249 40.5s-138.167 71.833 -186.5 134.5s-72.5 143.334 -72.5 242.001c0 24 0.833008 89.667 2.5 197s2.5 187.333 2.5 240
c0 184.667 -9 307.334 -27 368.001c-4.66699 15.333 -12.5 24.833 -23.5 28.5s-44.833 8.5 -101.5 14.5zM859.003 1508c0 21.333 7.66602 39.668 22.999 55.001s33 23 53 23c22 0 40.5 -7.83301 55.5 -23.5s22.5 -33.834 22.5 -54.501c0 -20 -7.66699 -37.667 -23 -53
s-33.666 -23 -54.999 -23c-20.667 0 -38.5 7.5 -53.5 22.5s-22.5 32.833 -22.5 53.5zM541.002 1508c0 20.667 7.49902 38.834 22.499 54.501s33.5 23.5 55.5 23.5c22.667 0 41 -7.83301 55 -23.5s21 -33.834 21 -54.501c0 -19.333 -7.16699 -36.833 -21.5 -52.5
s-32.5 -23.5 -54.5 -23.5c-21.333 0 -39.666 7.66699 -54.999 23s-23 33 -23 53z" />
    <glyph glyph-name="Yacute" unicode="&#xdd;" 
d="M18 1249l-5.99805 35.002h99l107.5 -4.5c23 -1 36.167 -1.5 39.5 -1.5c18.667 0 43.667 0.666992 75 2s69 2.66602 113 3.99902l48 -2l-5 -39c-46.667 -4 -78.334 -8 -95.001 -12s-25 -13 -25 -27c0 -14.667 24.833 -57.667 74.5 -129s107 -149.666 172 -234.999
s111.167 -144 138.5 -176l90 129l76 114c26.667 38.667 56.5 87.5 89.5 146.5s49.5 100.5 49.5 124.5c0 48 -45 69.667 -135 65l4 39l84 -4c6.66699 0 28.667 -0.666992 66 -2s59 -2 65 -2c10 0 42.667 0.666992 98 2s88 2 98 2l-2 -41c-44 -2 -79.667 -9.5 -107 -22.5
s-58.666 -40.833 -93.999 -83.5s-83.666 -110.334 -144.999 -203.001l-110 -166l-105 -164l4 -324c0 -80 1.16699 -133.167 3.5 -159.5s7.83301 -43.833 16.5 -52.5s26 -16.334 52 -23.001c22.667 -4.66699 58 -13.667 106 -27l-2 -26c5.33301 0 -19.667 2 -75 6l-62 4
c-26.667 2.66699 -48.334 4 -65.001 4h-43c-10 -0 -50.333 -2.66699 -121 -8c-56.667 -6.66699 -97.667 -10 -123 -10v32c69.333 2.66699 115.666 16.334 138.999 41.001c10.667 9.33301 18 22 22 38s6.83301 51.667 8.5 107s2.5 143.666 2.5 264.999
c0 66.667 -0.666992 107.667 -2 123l-82 121l-116 161c-36.667 49.333 -66.334 87 -89.001 113c-71.333 90 -122.333 151.5 -153 184.5s-57 54.333 -79 64s-55.333 15.5 -100 17.5zM606.002 1382l197 356h139l-288 -356h-48z" />
    <glyph glyph-name="Thorn" unicode="&#xde;" horiz-adv-x="1087" 
d="M98 -18l-28 0.000976562v30c52 14 85.667 25.667 101 35s24.666 23 27.999 41c0.666992 4 1.66699 14.5 3 31.5s2.66602 44.5 3.99902 82.5s2.16602 70 2.49902 96s0.5 65.333 0.5 118c0 161.333 -0.666992 270.666 -2 327.999s-4.66602 156 -9.99902 296
c-2 84 -10.667 139.333 -26 166s-56 40.334 -122 41.001c-1.33301 6.66699 -2 13.667 -2 21c0 6.66699 0.666992 12.667 2 18c10.667 0 45.334 -0.666992 104.001 -2s93.667 -2 105 -2c42 0 84.333 0.5 127 1.5s79 2.5 109 4.5c1.33301 -5.33301 2 -11.333 2 -18
c0 -8.66699 -1.33301 -16.334 -4 -23.001c-44.667 -4.66699 -75.5 -10.5 -92.5 -17.5s-29.333 -22 -37 -45s-13.167 -62.167 -16.5 -117.5c58 4 97.667 6 119 6c93.333 0 176 -12.833 248 -38.5s131.167 -59.5 177.5 -101.5s80.833 -87.667 103.5 -137s34 -98.333 34 -147
c0 -50.667 -15.5 -107 -46.5 -169s-89 -116.833 -174 -164.5s-202.5 -71.5 -352.5 -71.5c-21.333 0 -41 0.666992 -59 2l-52 4c2.66699 -67.333 5.33398 -112 8.00098 -134s9.5 -39.833 20.5 -53.5s28.333 -22.834 52 -27.501s60.5 -8.66699 110.5 -12v-41
c-27.333 2 -50.333 3.83301 -69 5.5s-41 3.16699 -67 4.5c-22.667 1.33301 -56 2 -100 2c-22 0 -54.667 -2 -98 -6c-29.333 -1.33301 -52.833 -2.66602 -70.5 -3.99902s-28.5 -2 -32.5 -2zM344 317.001c55.333 -13.333 108.667 -20 160 -20c117.333 0 207.333 32.5 270 97.5
s94 146.5 94 244.5c0 38 -8.5 86 -25.5 144s-54.167 112.333 -111.5 163s-140 76 -248 76c-52 0 -98.333 -7.66699 -139 -23c-2 -32 -3.5 -77.333 -4.5 -136s-1.5 -124.334 -1.5 -197.001c0 -115.333 2 -231.666 6 -348.999z" />
    <glyph glyph-name="germandbls" unicode="&#xdf;" horiz-adv-x="1004" 
d="M614 750l-0.000976562 -4.99902c48.667 -12.667 94.334 -30.334 137.001 -53.001s80.667 -60.667 114 -114s50 -124.333 50 -213c0 -68 -10 -127.167 -30 -177.5s-46 -90.833 -78 -121.5s-65.333 -53.167 -100 -67.5s-68.334 -21.5 -101.001 -21.5
c-57.333 0 -86 20.667 -86 62c0 39.333 16.333 59 49 59c8 0 31 -7.5 69 -22.5s61 -22.5 69 -22.5c24.667 0 46.5 22 65.5 66s28.5 91.667 28.5 143c0 50 -9.33301 107.667 -28 173s-53 124.333 -103 177c-36.667 38.667 -72.334 64.834 -107.001 78.501
s-75.667 24.5 -123 32.5l-2 43c67.333 -1.33301 124.666 6.33398 171.999 23.001s83.166 45.334 107.499 86.001s36.5 95.667 36.5 165c0 94.667 -21.167 166.5 -63.5 215.5s-92.833 73.5 -151.5 73.5c-68.667 0 -116.667 -23.833 -144 -71.5
s-45.666 -109.834 -54.999 -186.501c-5.33301 -45.333 -9.33301 -107.333 -12 -186s-4.33398 -157.5 -5.00098 -236.5s-1 -162.833 -1 -251.5c0 -203.333 2.66699 -313.666 8 -330.999c3.33301 -6.66699 23.5 -14.5 60.5 -23.5s57.167 -14.167 60.5 -15.5v-33
c-28 2.66699 -57.667 4 -89 4l-321 2v27c8 0 14.667 1.33301 20 4c51.333 8 83.333 14.667 96 20s21.667 17.666 27 36.999c7.33301 23.333 12.333 62.5 15 117.5s4 114.833 4 179.5c0 96 -1.33301 163.667 -4 203s-6.16699 63.666 -10.5 72.999s-11.833 15 -22.5 17
c-76.667 8.66699 -115 14.667 -115 18c0 20.667 6 33 18 37s47 6 105 6c12.667 0 21 2 25 6s6 13 6 27c0 77.333 5.33301 151.333 16 222s28.834 134.667 54.501 192s62.334 103.666 110.001 138.999s106.834 53 177.501 53c66.667 0 124.334 -14.5 173.001 -43.5
s85.667 -67.5 111 -115.5s38 -100 38 -156c0 -67.333 -20.333 -131 -61 -191s-110.667 -100.667 -210 -122z" />
    <glyph glyph-name="agrave" unicode="&#xe0;" horiz-adv-x="768" 
d="M246 590l-123 -54.999c-5.33301 21.333 -8 37 -8 47c0 34 20.833 65.5 62.5 94.5s88.667 52.5 141 70.5s88.833 27 109.5 27c18 0 40.333 -8 67 -24s48 -32 64 -48c14 -13.333 24.833 -26.5 32.5 -39.5s14.5 -33.5 20.5 -61.5s9 -63.667 9 -107
c0 -12.667 -1.66699 -57.334 -5 -134.001l-4 -75c-2.66699 -36 -4 -64.667 -4 -86c0 -27.333 3.66699 -56.666 11 -87.999c6.66699 -32 21.667 -48 45 -48c26 0 60.667 9.66699 104 29v-41l-147 -59c-29.333 -10 -46 -15 -50 -15c-15.333 0 -30.5 10.167 -45.5 30.5
s-27.167 44.5 -36.5 72.5c-123.333 -68.667 -218 -103 -284 -103c-40.667 0 -71.334 11.833 -92.001 35.5s-31 59.167 -31 106.5c0 45.333 5.5 79 16.5 101s28.833 39.333 53.5 52c50 25.333 103 44.166 159 56.499s114.667 22.833 176 31.5l5 123v33
c0 56.667 -16.167 101.5 -48.5 134.5s-70.166 49.5 -113.499 49.5c-20.667 0 -41.5 -5.83301 -62.5 -17.5s-31.5 -28.167 -31.5 -49.5c0 -10.667 3.33301 -25 10 -43zM483 117.001c-2 22 0 84.666 6 187.999c-88 6 -158.667 -4.66699 -212 -32s-80 -61.666 -80 -102.999
c0 -30 8.16699 -58.333 24.5 -85s38.833 -40 67.5 -40c32 0 96.667 24 194 72zM353 1245l196 -356h-47l-289 356h140z" />
    <glyph glyph-name="aacute" unicode="&#xe1;" horiz-adv-x="768" 
d="M246 590l-123 -54.999c-5.33301 21.333 -8 37 -8 47c0 34 20.833 65.5 62.5 94.5s88.667 52.5 141 70.5s88.833 27 109.5 27c18 0 40.333 -8 67 -24s48 -32 64 -48c14 -13.333 24.833 -26.5 32.5 -39.5s14.5 -33.5 20.5 -61.5s9 -63.667 9 -107
c0 -12.667 -1.66699 -57.334 -5 -134.001l-4 -75c-2.66699 -36 -4 -64.667 -4 -86c0 -27.333 3.66699 -56.666 11 -87.999c6.66699 -32 21.667 -48 45 -48c26 0 60.667 9.66699 104 29v-41l-147 -59c-29.333 -10 -46 -15 -50 -15c-15.333 0 -30.5 10.167 -45.5 30.5
s-27.167 44.5 -36.5 72.5c-123.333 -68.667 -218 -103 -284 -103c-40.667 0 -71.334 11.833 -92.001 35.5s-31 59.167 -31 106.5c0 45.333 5.5 79 16.5 101s28.833 39.333 53.5 52c50 25.333 103 44.166 159 56.499s114.667 22.833 176 31.5l5 123v33
c0 56.667 -16.167 101.5 -48.5 134.5s-70.166 49.5 -113.499 49.5c-20.667 0 -41.5 -5.83301 -62.5 -17.5s-31.5 -28.167 -31.5 -49.5c0 -10.667 3.33301 -25 10 -43zM483 117.001c-2 22 0 84.666 6 187.999c-88 6 -158.667 -4.66699 -212 -32s-80 -61.666 -80 -102.999
c0 -30 8.16699 -58.333 24.5 -85s38.833 -40 67.5 -40c32 0 96.667 24 194 72zM243 889l197 356h139l-288 -356h-48z" />
    <glyph glyph-name="acircumflex" unicode="&#xe2;" horiz-adv-x="768" 
d="M246 590l-123 -54.999c-5.33301 21.333 -8 37 -8 47c0 34 20.833 65.5 62.5 94.5s88.667 52.5 141 70.5s88.833 27 109.5 27c18 0 40.333 -8 67 -24s48 -32 64 -48c14 -13.333 24.833 -26.5 32.5 -39.5s14.5 -33.5 20.5 -61.5s9 -63.667 9 -107
c0 -12.667 -1.66699 -57.334 -5 -134.001l-4 -75c-2.66699 -36 -4 -64.667 -4 -86c0 -27.333 3.66699 -56.666 11 -87.999c6.66699 -32 21.667 -48 45 -48c26 0 60.667 9.66699 104 29v-41l-147 -59c-29.333 -10 -46 -15 -50 -15c-15.333 0 -30.5 10.167 -45.5 30.5
s-27.167 44.5 -36.5 72.5c-123.333 -68.667 -218 -103 -284 -103c-40.667 0 -71.334 11.833 -92.001 35.5s-31 59.167 -31 106.5c0 45.333 5.5 79 16.5 101s28.833 39.333 53.5 52c50 25.333 103 44.166 159 56.499s114.667 22.833 176 31.5l5 123v33
c0 56.667 -16.167 101.5 -48.5 134.5s-70.166 49.5 -113.499 49.5c-20.667 0 -41.5 -5.83301 -62.5 -17.5s-31.5 -28.167 -31.5 -49.5c0 -10.667 3.33301 -25 10 -43zM483 117.001c-2 22 0 84.666 6 187.999c-88 6 -158.667 -4.66699 -212 -32s-80 -61.666 -80 -102.999
c0 -30 8.16699 -58.333 24.5 -85s38.833 -40 67.5 -40c32 0 96.667 24 194 72zM360 1245h90l199 -356h-47l-195 215l-199 -215h-47z" />
    <glyph glyph-name="atilde" unicode="&#xe3;" horiz-adv-x="768" 
d="M246 590l-123 -54.999c-5.33301 21.333 -8 37 -8 47c0 34 20.833 65.5 62.5 94.5s88.667 52.5 141 70.5s88.833 27 109.5 27c18 0 40.333 -8 67 -24s48 -32 64 -48c14 -13.333 24.833 -26.5 32.5 -39.5s14.5 -33.5 20.5 -61.5s9 -63.667 9 -107
c0 -12.667 -1.66699 -57.334 -5 -134.001l-4 -75c-2.66699 -36 -4 -64.667 -4 -86c0 -27.333 3.66699 -56.666 11 -87.999c6.66699 -32 21.667 -48 45 -48c26 0 60.667 9.66699 104 29v-41l-147 -59c-29.333 -10 -46 -15 -50 -15c-15.333 0 -30.5 10.167 -45.5 30.5
s-27.167 44.5 -36.5 72.5c-123.333 -68.667 -218 -103 -284 -103c-40.667 0 -71.334 11.833 -92.001 35.5s-31 59.167 -31 106.5c0 45.333 5.5 79 16.5 101s28.833 39.333 53.5 52c50 25.333 103 44.166 159 56.499s114.667 22.833 176 31.5l5 123v33
c0 56.667 -16.167 101.5 -48.5 134.5s-70.166 49.5 -113.499 49.5c-20.667 0 -41.5 -5.83301 -62.5 -17.5s-31.5 -28.167 -31.5 -49.5c0 -10.667 3.33301 -25 10 -43zM483 117.001c-2 22 0 84.666 6 187.999c-88 6 -158.667 -4.66699 -212 -32s-80 -61.666 -80 -102.999
c0 -30 8.16699 -58.333 24.5 -85s38.833 -40 67.5 -40c32 0 96.667 24 194 72zM622 1126l41.001 -0.00195312c-2 -83.333 -21.833 -137.166 -59.5 -161.499s-72.5 -36.5 -104.5 -36.5c-25.333 0 -47.833 4 -67.5 12s-53.834 26.333 -102.501 55
c-26 16 -44.5 26.5 -55.5 31.5s-23.833 7.5 -38.5 7.5c-24 0 -45 -8.83301 -63 -26.5s-26.667 -44.167 -26 -79.5h-41c11.333 132 66.666 198 165.999 198c26 0 48.667 -4.5 68 -13.5s46.666 -24.833 81.999 -47.5c32.667 -20 54.834 -32.833 66.501 -38.5
s25.5 -8.5 41.5 -8.5c24 0 45.333 9.33301 64 28s28.334 45.334 29.001 80.001z" />
    <glyph glyph-name="adieresis" unicode="&#xe4;" horiz-adv-x="768" 
d="M246 590l-123 -54.999c-5.33301 21.333 -8 37 -8 47c0 34 20.833 65.5 62.5 94.5s88.667 52.5 141 70.5s88.833 27 109.5 27c18 0 40.333 -8 67 -24s48 -32 64 -48c14 -13.333 24.833 -26.5 32.5 -39.5s14.5 -33.5 20.5 -61.5s9 -63.667 9 -107
c0 -12.667 -1.66699 -57.334 -5 -134.001l-4 -75c-2.66699 -36 -4 -64.667 -4 -86c0 -27.333 3.66699 -56.666 11 -87.999c6.66699 -32 21.667 -48 45 -48c26 0 60.667 9.66699 104 29v-41l-147 -59c-29.333 -10 -46 -15 -50 -15c-15.333 0 -30.5 10.167 -45.5 30.5
s-27.167 44.5 -36.5 72.5c-123.333 -68.667 -218 -103 -284 -103c-40.667 0 -71.334 11.833 -92.001 35.5s-31 59.167 -31 106.5c0 45.333 5.5 79 16.5 101s28.833 39.333 53.5 52c50 25.333 103 44.166 159 56.499s114.667 22.833 176 31.5l5 123v33
c0 56.667 -16.167 101.5 -48.5 134.5s-70.166 49.5 -113.499 49.5c-20.667 0 -41.5 -5.83301 -62.5 -17.5s-31.5 -28.167 -31.5 -49.5c0 -10.667 3.33301 -25 10 -43zM483 117.001c-2 22 0 84.666 6 187.999c-88 6 -158.667 -4.66699 -212 -32s-80 -61.666 -80 -102.999
c0 -30 8.16699 -58.333 24.5 -85s38.833 -40 67.5 -40c32 0 96.667 24 194 72zM467 1014c0 21.333 7.66602 39.668 22.999 55.001s33 23 53 23c22 0 40.5 -7.83301 55.5 -23.5s22.5 -33.834 22.5 -54.501c0 -20 -7.66699 -37.667 -23 -53s-33.666 -23 -54.999 -23
c-20.667 0 -38.5 7.5 -53.5 22.5s-22.5 32.833 -22.5 53.5zM148.999 1014c0 20.667 7.49902 38.834 22.499 54.501s33.5 23.5 55.5 23.5c22.667 0 41 -7.83301 55 -23.5s21 -33.834 21 -54.501c0 -19.333 -7.16699 -36.833 -21.5 -52.5s-32.5 -23.5 -54.5 -23.5
c-21.333 0 -39.666 7.66699 -54.999 23s-23 33 -23 53z" />
    <glyph glyph-name="aring" unicode="&#xe5;" horiz-adv-x="768" 
d="M246 590l-123 -54.999c-5.33301 21.333 -8 37 -8 47c0 34 20.833 65.5 62.5 94.5s88.667 52.5 141 70.5s88.833 27 109.5 27c18 0 40.333 -8 67 -24s48 -32 64 -48c14 -13.333 24.833 -26.5 32.5 -39.5s14.5 -33.5 20.5 -61.5s9 -63.667 9 -107
c0 -12.667 -1.66699 -57.334 -5 -134.001l-4 -75c-2.66699 -36 -4 -64.667 -4 -86c0 -27.333 3.66699 -56.666 11 -87.999c6.66699 -32 21.667 -48 45 -48c26 0 60.667 9.66699 104 29v-41l-147 -59c-29.333 -10 -46 -15 -50 -15c-15.333 0 -30.5 10.167 -45.5 30.5
s-27.167 44.5 -36.5 72.5c-123.333 -68.667 -218 -103 -284 -103c-40.667 0 -71.334 11.833 -92.001 35.5s-31 59.167 -31 106.5c0 45.333 5.5 79 16.5 101s28.833 39.333 53.5 52c50 25.333 103 44.166 159 56.499s114.667 22.833 176 31.5l5 123v33
c0 56.667 -16.167 101.5 -48.5 134.5s-70.166 49.5 -113.499 49.5c-20.667 0 -41.5 -5.83301 -62.5 -17.5s-31.5 -28.167 -31.5 -49.5c0 -10.667 3.33301 -25 10 -43zM483 117.001c-2 22 0 84.666 6 187.999c-88 6 -158.667 -4.66699 -212 -32s-80 -61.666 -80 -102.999
c0 -30 8.16699 -58.333 24.5 -85s38.833 -40 67.5 -40c32 0 96.667 24 194 72zM233 1071c0 44 15.667 81.333 47 112s69 46 113 46c44.667 0 82.5 -15.5 113.5 -46.5s46.5 -68.167 46.5 -111.5c0 -28.667 -7 -55.167 -21 -79.5s-33.167 -43.833 -57.5 -58.5
s-51.5 -22 -81.5 -22c-44 0 -81.667 15.667 -113 47s-47 69 -47 113zM284 1071c0 -28.667 10.833 -53.833 32.5 -75.5s47.167 -32.5 76.5 -32.5s54.833 10.5 76.5 31.5s32.5 46.5 32.5 76.5c0 29.333 -10.5 54.833 -31.5 76.5s-46.833 32.5 -77.5 32.5
c-31.333 0 -57.333 -10.667 -78 -32s-31 -47 -31 -77z" />
    <glyph glyph-name="ae" unicode="&#xe6;" horiz-adv-x="1130" 
d="M252 580l-120.998 -50.001c-9.33301 29.333 -14 48.666 -14 57.999c0 22 17.5 47.167 52.5 75.5s76.667 52.5 125 72.5s91.5 30 129.5 30c32 0 60.5 -10.667 85.5 -32s49.167 -47 72.5 -77c48.667 46 86.5 76 113.5 90s54.5 21 82.5 21c63.333 0 121.333 -19.667 174 -59
c52 -39.333 87.667 -93.333 107 -162c2 -10 5 -17 9 -21s13.333 -8.66699 28 -14v-31c-62.667 -8 -147.667 -22.5 -255 -43.5s-188.333 -40.5 -243 -58.5c-0.666992 -114 30.666 -194.667 93.999 -242s121.333 -71 174 -71c33.333 0 75.666 15.667 126.999 47
c34 21.333 53.333 32 58 32c12 0 18 -6.66699 18 -20c0 -10 -16.333 -26.333 -49 -49s-73.334 -43 -122.001 -61s-96 -27 -142 -27c-53.333 0 -99.333 13.833 -138 41.5s-68.667 60.167 -90 97.5c-88.667 -51.333 -154.167 -86 -196.5 -104s-87.166 -27 -134.499 -27
c-41.333 0 -72.5 11.333 -93.5 34s-31.5 56.334 -31.5 101.001c0 46.667 10.667 91.667 32 135c54 24.667 109.333 46.5 166 65.5s125.667 34.167 207 45.5v84c0 76 -12.333 132.833 -37 170.5s-62 56.5 -112 56.5c-28 0 -49 -5.16699 -63 -15.5s-21 -26.166 -21 -47.499
c0 -14 2.66699 -29 8 -45zM598.002 427.999l322 70c17.333 2.66699 26 10 26 22c0 15.333 -8.16699 38.333 -24.5 69s-40.333 58 -72 82s-69.167 36 -112.5 36c-38 0 -70.833 -25 -98.5 -75s-41.167 -118 -40.5 -204zM406.002 105.999l103.997 57.999
c-6 18.667 -10.667 35.334 -14 50.001s-7.66602 47 -12.999 97c-13.333 1.33301 -33 2 -59 2c-79.333 0 -137.666 -12.833 -174.999 -38.5s-56 -60.5 -56 -104.5c0 -21.333 5.83301 -44 17.5 -68s32.834 -36 63.501 -36c36 0 80 13.333 132 40z" />
    <glyph glyph-name="ccedilla" unicode="&#xe7;" horiz-adv-x="768" 
d="M717 125l14 -28.998c-88.667 -73.333 -180 -110 -274 -110c-54 0 -109.833 11.167 -167.5 33.5s-102.834 51.166 -135.501 86.499c-20.667 24.667 -36.834 59.167 -48.501 103.5s-17.5 87.166 -17.5 128.499c0 83.333 22.333 159.166 67 227.499s99.5 121.5 164.5 159.5
s125.833 57 182.5 57c34 0 81.333 -9.5 142 -28.5s91 -36.833 91 -53.5c0 -6.66699 -9.33301 -24 -28 -52s-33.667 -42 -45 -42c-5.33301 0 -12.833 2.66699 -22.5 8l-49.5 27c-72.667 30 -132.667 45 -180 45c-67.333 0 -118 -22 -152 -66s-51 -110 -51 -198
c0 -80.667 17.667 -148.667 53 -204s77.833 -95.666 127.5 -120.999s95.167 -38 136.5 -38c34.667 0 66.834 6 96.501 18s61.834 28 96.501 48zM402 20.002l51 0.000976562l-51 -96c95.333 -30.667 143 -83 143 -157c0 -43.333 -15.5 -81.5 -46.5 -114.5
s-74.167 -58 -129.5 -75s-115.333 -23.5 -180 -19.5v41c104 2.66699 172 18 204 46s48 56.333 48 85c0 65.333 -52.667 100.666 -158 105.999c73.333 110 113 171.333 119 184z" />
    <glyph glyph-name="egrave" unicode="&#xe8;" horiz-adv-x="748" 
d="M707 520l-500.002 -108.001c3.33301 -62.667 9.5 -111.167 18.5 -145.5s26.833 -69.166 53.5 -104.499c51.333 -67.333 113.333 -101 186 -101c30 0 62 5.66699 96 17s71.667 31.666 113 60.999l18 -24c-116 -83.333 -219 -125 -309 -125
c-95.333 0 -169.666 36 -222.999 108s-80 154.667 -80 248c0 95.333 20.333 174.5 61 237.5s86.334 108.833 137.001 137.5s89 43 115 43c30 0 61.167 -4.83301 93.5 -14.5s64 -28.167 95 -55.5s56.833 -64.666 77.5 -111.999c6 -10 11.667 -16.667 17 -20s15 -5 29 -5z
M208.998 450.999l131 28.001c5.33301 2.66699 25.5 8 60.5 16s58.5 13 70.5 15c34.667 8 56.667 13.667 66 17s14 8.66602 14 15.999c0 10.667 -8 28.834 -24 54.501s-38.833 49.167 -68.5 70.5s-64.5 32 -104.5 32c-50 0 -85.5 -26.333 -106.5 -79
s-33.833 -109.334 -38.5 -170.001zM342.998 1245l196 -356h-47l-289 356h140z" />
    <glyph glyph-name="eacute" unicode="&#xe9;" horiz-adv-x="748" 
d="M707 520l-500.002 -108.001c3.33301 -62.667 9.5 -111.167 18.5 -145.5s26.833 -69.166 53.5 -104.499c51.333 -67.333 113.333 -101 186 -101c30 0 62 5.66699 96 17s71.667 31.666 113 60.999l18 -24c-116 -83.333 -219 -125 -309 -125
c-95.333 0 -169.666 36 -222.999 108s-80 154.667 -80 248c0 95.333 20.333 174.5 61 237.5s86.334 108.833 137.001 137.5s89 43 115 43c30 0 61.167 -4.83301 93.5 -14.5s64 -28.167 95 -55.5s56.833 -64.666 77.5 -111.999c6 -10 11.667 -16.667 17 -20s15 -5 29 -5z
M208.998 450.999l131 28.001c5.33301 2.66699 25.5 8 60.5 16s58.5 13 70.5 15c34.667 8 56.667 13.667 66 17s14 8.66602 14 15.999c0 10.667 -8 28.834 -24 54.501s-38.833 49.167 -68.5 70.5s-64.5 32 -104.5 32c-50 0 -85.5 -26.333 -106.5 -79
s-33.833 -109.334 -38.5 -170.001zM285.998 889l197 356h139l-288 -356h-48z" />
    <glyph glyph-name="ecircumflex" unicode="&#xea;" horiz-adv-x="748" 
d="M707 520l-500.002 -108.001c3.33301 -62.667 9.5 -111.167 18.5 -145.5s26.833 -69.166 53.5 -104.499c51.333 -67.333 113.333 -101 186 -101c30 0 62 5.66699 96 17s71.667 31.666 113 60.999l18 -24c-116 -83.333 -219 -125 -309 -125
c-95.333 0 -169.666 36 -222.999 108s-80 154.667 -80 248c0 95.333 20.333 174.5 61 237.5s86.334 108.833 137.001 137.5s89 43 115 43c30 0 61.167 -4.83301 93.5 -14.5s64 -28.167 95 -55.5s56.833 -64.666 77.5 -111.999c6 -10 11.667 -16.667 17 -20s15 -5 29 -5z
M208.998 450.999l131 28.001c5.33301 2.66699 25.5 8 60.5 16s58.5 13 70.5 15c34.667 8 56.667 13.667 66 17s14 8.66602 14 15.999c0 10.667 -8 28.834 -24 54.501s-38.833 49.167 -68.5 70.5s-64.5 32 -104.5 32c-50 0 -85.5 -26.333 -106.5 -79
s-33.833 -109.334 -38.5 -170.001zM349.998 1245h90l199 -356h-47l-195 215l-199 -215h-47z" />
    <glyph glyph-name="edieresis" unicode="&#xeb;" horiz-adv-x="748" 
d="M707 520l-500.002 -108.001c3.33301 -62.667 9.5 -111.167 18.5 -145.5s26.833 -69.166 53.5 -104.499c51.333 -67.333 113.333 -101 186 -101c30 0 62 5.66699 96 17s71.667 31.666 113 60.999l18 -24c-116 -83.333 -219 -125 -309 -125
c-95.333 0 -169.666 36 -222.999 108s-80 154.667 -80 248c0 95.333 20.333 174.5 61 237.5s86.334 108.833 137.001 137.5s89 43 115 43c30 0 61.167 -4.83301 93.5 -14.5s64 -28.167 95 -55.5s56.833 -64.666 77.5 -111.999c6 -10 11.667 -16.667 17 -20s15 -5 29 -5z
M208.998 450.999l131 28.001c5.33301 2.66699 25.5 8 60.5 16s58.5 13 70.5 15c34.667 8 56.667 13.667 66 17s14 8.66602 14 15.999c0 10.667 -8 28.834 -24 54.501s-38.833 49.167 -68.5 70.5s-64.5 32 -104.5 32c-50 0 -85.5 -26.333 -106.5 -79
s-33.833 -109.334 -38.5 -170.001zM496.998 1014c0 21.333 7.66602 39.668 22.999 55.001s33 23 53 23c22 0 40.5 -7.83301 55.5 -23.5s22.5 -33.834 22.5 -54.501c0 -20 -7.66699 -37.667 -23 -53s-33.666 -23 -54.999 -23c-20.667 0 -38.5 7.5 -53.5 22.5
s-22.5 32.833 -22.5 53.5zM178.997 1014c0 20.667 7.49902 38.834 22.499 54.501s33.5 23.5 55.5 23.5c22.667 0 41 -7.83301 55 -23.5s21 -33.834 21 -54.501c0 -19.333 -7.16699 -36.833 -21.5 -52.5s-32.5 -23.5 -54.5 -23.5c-21.333 0 -39.666 7.66699 -54.999 23
s-23 33 -23 53z" />
    <glyph glyph-name="igrave" unicode="&#xec;" horiz-adv-x="492" 
d="M66 -4l4.00195 30.9971c56.667 5.33301 88.667 15.333 96 30c3.33301 6 6.33301 29.833 9 71.5s4.83398 91.334 6.50098 149.001s2.5 90.167 2.5 97.5c0 94.667 -1.5 155.334 -4.5 182.001s-8.83301 45 -17.5 55c-2.66699 3.33301 -19.334 6.66602 -50.001 9.99902
s-46 7.66602 -46 12.999c0 10.667 6 17.334 18 20.001c79.333 24.667 157 68.334 233 131.001c4.66699 0 11 -1.33301 19 -4c-6.66699 -27.333 -12.334 -67.333 -17.001 -120s-8.5 -108 -11.5 -166s-4.5 -109.333 -4.5 -154c0 -33.333 1.16699 -81.166 3.5 -143.499
s6.5 -104.5 12.5 -126.5c5.33301 -12 12 -19.667 20 -23s24 -6 48 -8c23.333 -0.666992 46.666 -2.66699 69.999 -6l12 -29zM176.002 1245l196 -356h-47l-289 356h140z" />
    <glyph glyph-name="iacute" unicode="&#xed;" horiz-adv-x="492" 
d="M66 -4l4.00195 30.9971c56.667 5.33301 88.667 15.333 96 30c3.33301 6 6.33301 29.833 9 71.5s4.83398 91.334 6.50098 149.001s2.5 90.167 2.5 97.5c0 94.667 -1.5 155.334 -4.5 182.001s-8.83301 45 -17.5 55c-2.66699 3.33301 -19.334 6.66602 -50.001 9.99902
s-46 7.66602 -46 12.999c0 10.667 6 17.334 18 20.001c79.333 24.667 157 68.334 233 131.001c4.66699 0 11 -1.33301 19 -4c-6.66699 -27.333 -12.334 -67.333 -17.001 -120s-8.5 -108 -11.5 -166s-4.5 -109.333 -4.5 -154c0 -33.333 1.16699 -81.166 3.5 -143.499
s6.5 -104.5 12.5 -126.5c5.33301 -12 12 -19.667 20 -23s24 -6 48 -8c23.333 -0.666992 46.666 -2.66699 69.999 -6l12 -29zM96.002 888.997l197 356h139l-288 -356h-48z" />
    <glyph glyph-name="icircumflex" unicode="&#xee;" horiz-adv-x="492" 
d="M65 -4l4.00195 30.9971c56.667 5.33301 88.667 15.333 96 30c3.33301 6 6.33301 29.833 9 71.5s4.83398 91.334 6.50098 149.001s2.5 90.167 2.5 97.5c0 94.667 -1.5 155.334 -4.5 182.001s-8.83301 45 -17.5 55c-2.66699 3.33301 -19.334 6.66602 -50.001 9.99902
s-46 7.66602 -46 12.999c0 10.667 6 17.334 18 20.001c79.333 24.667 157 68.334 233 131.001c4.66699 0 11 -1.33301 19 -4c-6.66699 -27.333 -12.334 -67.333 -17.001 -120s-8.5 -108 -11.5 -166s-4.5 -109.333 -4.5 -154c0 -33.333 1.16699 -81.166 3.5 -143.499
s6.5 -104.5 12.5 -126.5c5.33301 -12 12 -19.667 20 -23s24 -6 48 -8c23.333 -0.666992 46.666 -2.66699 69.999 -6l12 -29zM203.002 1245h90l199 -356h-47l-195 215l-199 -215h-47z" />
    <glyph glyph-name="idieresis" unicode="&#xef;" horiz-adv-x="492" 
d="M66 -4l4.00195 30.9971c56.667 5.33301 88.667 15.333 96 30c3.33301 6 6.33301 29.833 9 71.5s4.83398 91.334 6.50098 149.001s2.5 90.167 2.5 97.5c0 94.667 -1.5 155.334 -4.5 182.001s-8.83301 45 -17.5 55c-2.66699 3.33301 -19.334 6.66602 -50.001 9.99902
s-46 7.66602 -46 12.999c0 10.667 6 17.334 18 20.001c79.333 24.667 157 68.334 233 131.001c4.66699 0 11 -1.33301 19 -4c-6.66699 -27.333 -12.334 -67.333 -17.001 -120s-8.5 -108 -11.5 -166s-4.5 -109.333 -4.5 -154c0 -33.333 1.16699 -81.166 3.5 -143.499
s6.5 -104.5 12.5 -126.5c5.33301 -12 12 -19.667 20 -23s24 -6 48 -8c23.333 -0.666992 46.666 -2.66699 69.999 -6l12 -29zM330.002 1014c0 21.333 7.66602 39.668 22.999 55.001s33 23 53 23c22 0 40.5 -7.83301 55.5 -23.5s22.5 -33.834 22.5 -54.501
c0 -20 -7.66699 -37.667 -23 -53s-33.666 -23 -54.999 -23c-20.667 0 -38.5 7.5 -53.5 22.5s-22.5 32.833 -22.5 53.5zM12.001 1014c0 20.667 7.49902 38.834 22.499 54.501s33.5 23.5 55.5 23.5c22.667 0 41 -7.83301 55 -23.5s21 -33.834 21 -54.501
c0 -19.333 -7.16699 -36.833 -21.5 -52.5s-32.5 -23.5 -54.5 -23.5c-21.333 0 -39.666 7.66699 -54.999 23s-23 33 -23 53z" />
    <glyph glyph-name="eth" unicode="&#xf0;" horiz-adv-x="1044" 
d="M569 1085l-278 -104l-17 41l269 100c-18.667 23.333 -39.5 47 -62.5 71s-52.667 49 -89 75s-81.5 52.667 -135.5 80l23 38c88.667 -40.667 159.667 -80.5 213 -119.5s97 -77.5 131 -115.5l215 82l16 -41l-201 -74c76 -86.667 140.5 -187.667 193.5 -303
s79.5 -241 79.5 -377c0 -106 -20.167 -192.667 -60.5 -260s-91.333 -115.833 -153 -145.5s-125.167 -44.5 -190.5 -44.5s-129 15.167 -191 45.5s-112.5 74.666 -151.5 132.999s-58.5 125.833 -58.5 202.5c0 88 20.5 162 61.5 222s91.167 104.167 150.5 132.5
s117 42.5 173 42.5c86 0 165 -32.667 237 -98l5 4c-14.667 83.333 -41.5 163.833 -80.5 241.5s-71.833 134.834 -98.5 171.501zM252 438c0 -50 6.99805 -98.6689 20.998 -146.002s34.5 -91.333 61.5 -132s57.833 -72 92.5 -94s72.667 -33 114 -33
c72.667 0 132 30.167 178 90.5s69 133.833 69 220.5c0 58.667 -12.667 117.5 -38 176.5s-61.166 107.167 -107.499 144.5s-98.166 56 -155.499 56c-44.667 0 -85 -12.667 -121 -38s-64 -59.666 -84 -102.999s-30 -90.666 -30 -141.999z" />
    <glyph glyph-name="ntilde" unicode="&#xf1;" horiz-adv-x="961" 
d="M37 14l-2.00195 28.998c36 6.66699 62.333 13.667 79 21s27.667 15.666 33 24.999s9 22 11 38c5.33301 36.667 9 81.667 11 135s3 107.333 3 162c0 76 -2.5 127.833 -7.5 155.5s-15.667 45.334 -32 53.001s-46.833 13.834 -91.5 18.501c0 8.66699 -0.666992 15 -2 19
c28.667 7.33301 66.834 21.5 114.501 42.5s72.834 32.833 75.501 35.5c25.333 13.333 40.333 20 45 20c10 0 16.333 -9.66699 19 -29s4 -51.333 4 -96c73.333 41.333 133.666 70.833 180.999 88.5s92.666 26.5 135.999 26.5c64.667 0 111.834 -14.167 141.501 -42.5
s48 -62.666 55 -102.999s10.5 -93.5 10.5 -159.5v-238c0 -94 4.33301 -145.333 13 -154c4.66699 -4.66699 21.667 -10.334 51 -17.001s46.333 -11 51 -13l2 -31c-50 8 -108 12 -174 12c-56 0 -123 -4 -201 -12v29c60.667 12 98.334 31 113.001 57
c10 22 16.833 68.5 20.5 139.5s5.5 126.167 5.5 165.5c0 58.667 -2.5 106.834 -7.5 144.501s-18.833 69.834 -41.5 96.501s-58 40 -106 40c-21.333 0 -53.666 -4.33301 -96.999 -13s-94.333 -28.334 -153 -59.001l-6 -266c-1.33301 -113.333 0 -188.333 4 -225
c1.33301 -16 4.5 -28 9.5 -36s16.167 -15.167 33.5 -21.5s46.666 -11.833 87.999 -16.5l-2 -31c-14.667 1.33301 -35.667 3 -63 5s-62.333 3.66699 -105 5h-219zM718.998 1126l41.001 -0.00195312c-2 -83.333 -21.833 -137.166 -59.5 -161.499s-72.5 -36.5 -104.5 -36.5
c-25.333 0 -47.833 4 -67.5 12s-53.834 26.333 -102.501 55c-26 16 -44.5 26.5 -55.5 31.5s-23.833 7.5 -38.5 7.5c-24 0 -45 -8.83301 -63 -26.5s-26.667 -44.167 -26 -79.5h-41c11.333 132 66.666 198 165.999 198c26 0 48.667 -4.5 68 -13.5s46.666 -24.833 81.999 -47.5
c32.667 -20 54.834 -32.833 66.501 -38.5s25.5 -8.5 41.5 -8.5c24 0 45.333 9.33301 64 28s28.334 45.334 29.001 80.001z" />
    <glyph glyph-name="ograve" unicode="&#xf2;" horiz-adv-x="961" 
d="M78 375c0 58.667 10.834 111.83 32.501 159.497s51.5 88.834 89.5 123.501s82.333 61.334 133 80.001s105 28 163 28c52.667 0 102.5 -9.66699 149.5 -29s88.167 -46 123.5 -80s63.166 -74.167 83.499 -120.5s30.5 -96.166 30.5 -149.499
c0 -69.333 -16.5 -134.333 -49.5 -195s-79.667 -109.5 -140 -146.5s-129.833 -55.5 -208.5 -55.5c-59.333 0 -120.5 13 -183.5 39s-116 67.833 -159 125.5s-64.5 131.167 -64.5 220.5zM209.001 429.996c0 -62 12.333 -123.669 37 -185.002s59.167 -111.666 103.5 -150.999
s93.166 -59 146.499 -59c46.667 0 89 12.833 127 38.5s68.333 62.167 91 109.5s34 101 34 161c0 60.667 -13.167 119.834 -39.5 177.501s-62.666 104.667 -108.999 141s-97.5 54.5 -153.5 54.5c-45.333 0 -86 -12.333 -122 -37s-64.167 -59 -84.5 -103s-30.5 -93 -30.5 -147
zM429.001 1244.99l196 -356h-47l-289 356h140z" />
    <glyph glyph-name="oacute" unicode="&#xf3;" horiz-adv-x="961" 
d="M78 375c0 58.667 10.834 111.83 32.501 159.497s51.5 88.834 89.5 123.501s82.333 61.334 133 80.001s105 28 163 28c52.667 0 102.5 -9.66699 149.5 -29s88.167 -46 123.5 -80s63.166 -74.167 83.499 -120.5s30.5 -96.166 30.5 -149.499
c0 -69.333 -16.5 -134.333 -49.5 -195s-79.667 -109.5 -140 -146.5s-129.833 -55.5 -208.5 -55.5c-59.333 0 -120.5 13 -183.5 39s-116 67.833 -159 125.5s-64.5 131.167 -64.5 220.5zM209.001 429.996c0 -62 12.333 -123.669 37 -185.002s59.167 -111.666 103.5 -150.999
s93.166 -59 146.499 -59c46.667 0 89 12.833 127 38.5s68.333 62.167 91 109.5s34 101 34 161c0 60.667 -13.167 119.834 -39.5 177.501s-62.666 104.667 -108.999 141s-97.5 54.5 -153.5 54.5c-45.333 0 -86 -12.333 -122 -37s-64.167 -59 -84.5 -103s-30.5 -93 -30.5 -147
zM369.001 888.994l197 356h139l-288 -356h-48z" />
    <glyph glyph-name="ocircumflex" unicode="&#xf4;" horiz-adv-x="961" 
d="M78 375c0 58.667 10.834 111.83 32.501 159.497s51.5 88.834 89.5 123.501s82.333 61.334 133 80.001s105 28 163 28c52.667 0 102.5 -9.66699 149.5 -29s88.167 -46 123.5 -80s63.166 -74.167 83.499 -120.5s30.5 -96.166 30.5 -149.499
c0 -69.333 -16.5 -134.333 -49.5 -195s-79.667 -109.5 -140 -146.5s-129.833 -55.5 -208.5 -55.5c-59.333 0 -120.5 13 -183.5 39s-116 67.833 -159 125.5s-64.5 131.167 -64.5 220.5zM209.001 429.996c0 -62 12.333 -123.669 37 -185.002s59.167 -111.666 103.5 -150.999
s93.166 -59 146.499 -59c46.667 0 89 12.833 127 38.5s68.333 62.167 91 109.5s34 101 34 161c0 60.667 -13.167 119.834 -39.5 177.501s-62.666 104.667 -108.999 141s-97.5 54.5 -153.5 54.5c-45.333 0 -86 -12.333 -122 -37s-64.167 -59 -84.5 -103s-30.5 -93 -30.5 -147
zM436.001 1244.99h90l199 -356h-47l-195 215l-199 -215h-47z" />
    <glyph glyph-name="otilde" unicode="&#xf5;" horiz-adv-x="961" 
d="M78 375c0 58.667 10.834 111.83 32.501 159.497s51.5 88.834 89.5 123.501s82.333 61.334 133 80.001s105 28 163 28c52.667 0 102.5 -9.66699 149.5 -29s88.167 -46 123.5 -80s63.166 -74.167 83.499 -120.5s30.5 -96.166 30.5 -149.499
c0 -69.333 -16.5 -134.333 -49.5 -195s-79.667 -109.5 -140 -146.5s-129.833 -55.5 -208.5 -55.5c-59.333 0 -120.5 13 -183.5 39s-116 67.833 -159 125.5s-64.5 131.167 -64.5 220.5zM209.001 429.996c0 -62 12.333 -123.669 37 -185.002s59.167 -111.666 103.5 -150.999
s93.166 -59 146.499 -59c46.667 0 89 12.833 127 38.5s68.333 62.167 91 109.5s34 101 34 161c0 60.667 -13.167 119.834 -39.5 177.501s-62.666 104.667 -108.999 141s-97.5 54.5 -153.5 54.5c-45.333 0 -86 -12.333 -122 -37s-64.167 -59 -84.5 -103s-30.5 -93 -30.5 -147
zM719.001 1125.99l41.001 -0.00195312c-2 -83.333 -21.833 -137.166 -59.5 -161.499s-72.5 -36.5 -104.5 -36.5c-25.333 0 -47.833 4 -67.5 12s-53.834 26.333 -102.501 55c-26 16 -44.5 26.5 -55.5 31.5s-23.833 7.5 -38.5 7.5c-24 0 -45 -8.83301 -63 -26.5
s-26.667 -44.167 -26 -79.5h-41c11.333 132 66.666 198 165.999 198c26 0 48.667 -4.5 68 -13.5s46.666 -24.833 81.999 -47.5c32.667 -20 54.834 -32.833 66.501 -38.5s25.5 -8.5 41.5 -8.5c24 0 45.333 9.33301 64 28s28.334 45.334 29.001 80.001z" />
    <glyph glyph-name="odieresis" unicode="&#xf6;" horiz-adv-x="961" 
d="M78 375c0 58.667 10.834 111.83 32.501 159.497s51.5 88.834 89.5 123.501s82.333 61.334 133 80.001s105 28 163 28c52.667 0 102.5 -9.66699 149.5 -29s88.167 -46 123.5 -80s63.166 -74.167 83.499 -120.5s30.5 -96.166 30.5 -149.499
c0 -69.333 -16.5 -134.333 -49.5 -195s-79.667 -109.5 -140 -146.5s-129.833 -55.5 -208.5 -55.5c-59.333 0 -120.5 13 -183.5 39s-116 67.833 -159 125.5s-64.5 131.167 -64.5 220.5zM209.001 429.996c0 -62 12.333 -123.669 37 -185.002s59.167 -111.666 103.5 -150.999
s93.166 -59 146.499 -59c46.667 0 89 12.833 127 38.5s68.333 62.167 91 109.5s34 101 34 161c0 60.667 -13.167 119.834 -39.5 177.501s-62.666 104.667 -108.999 141s-97.5 54.5 -153.5 54.5c-45.333 0 -86 -12.333 -122 -37s-64.167 -59 -84.5 -103s-30.5 -93 -30.5 -147
zM563.001 1013.99c0 21.333 7.66602 39.668 22.999 55.001s33 23 53 23c22 0 40.5 -7.83301 55.5 -23.5s22.5 -33.834 22.5 -54.501c0 -20 -7.66699 -37.667 -23 -53s-33.666 -23 -54.999 -23c-20.667 0 -38.5 7.5 -53.5 22.5s-22.5 32.833 -22.5 53.5zM245 1014
c0 20.667 7.49902 38.834 22.499 54.501s33.5 23.5 55.5 23.5c22.667 0 41 -7.83301 55 -23.5s21 -33.834 21 -54.501c0 -19.333 -7.16699 -36.833 -21.5 -52.5s-32.5 -23.5 -54.5 -23.5c-21.333 0 -39.666 7.66699 -54.999 23s-23 33 -23 53z" />
    <glyph glyph-name="divide" unicode="&#xf7;" 
d="M614 264c0 17.333 7.00098 31.999 21.001 43.999s29.667 18 47 18s32.666 -6.66699 45.999 -20s20 -28.666 20 -45.999s-6.5 -32.833 -19.5 -46.5s-28.5 -20.5 -46.5 -20.5s-33.833 7.16699 -47.5 21.5s-20.5 30.833 -20.5 49.5zM614.001 1145
c0 18 7.00098 32.666 21.001 43.999s29.667 17 47 17c18 0 33.5 -6.5 46.5 -19.5s19.5 -28.167 19.5 -45.5s-6.33301 -33 -19 -47s-28.334 -21 -47.001 -21c-18 0 -33.833 7.33301 -47.5 22s-20.5 31.334 -20.5 50.001zM111.002 652.998v92h1146v-92h-1146z" />
    <glyph glyph-name="oslash" unicode="&#xf8;" horiz-adv-x="961" 
d="M750 674l97.999 93.999l31 -31l-97 -94c67.333 -68.667 101 -154 101 -256c0 -70 -16.5 -135.5 -49.5 -196.5s-80 -109.667 -141 -146s-130.167 -54.5 -207.5 -54.5c-42.667 0 -87.667 6.83301 -135 20.5s-94.333 38.167 -141 73.5l-100 -100l-29 30l98 99
c-66.667 68.667 -100 155.334 -100 260.001c0 78 18.833 146.833 56.5 206.5s88.667 105.667 153 138s133.833 48.5 208.5 48.5c96.667 0 181.334 -30.667 254.001 -92zM265.999 198.999l402 392.999c-18.667 29.333 -47.167 57.5 -85.5 84.5s-83.833 40.5 -136.5 40.5
c-45.333 0 -86 -12.333 -122 -37s-64.167 -59 -84.5 -103s-30.5 -93 -30.5 -147c0 -30 4.5 -67.167 13.5 -111.5s23.5 -84.166 43.5 -119.499zM691.999 554.998l-403.001 -393.002c59.333 -84.667 128.333 -127 207 -127c44.667 0 86.334 12.667 125.001 38
s69.5 61.833 92.5 109.5s34.5 100.834 34.5 159.501c0 30.667 -4.5 65.834 -13.5 105.501s-23.167 75.5 -42.5 107.5z" />
    <glyph glyph-name="ugrave" unicode="&#xf9;" horiz-adv-x="938" 
d="M20 606l-0.00195312 41.001l222 123l20 8c9.33301 0 14 -6 14 -18l-12 -172c-8 -136 -12 -220 -12 -252c0 -75.333 10 -137.833 30 -187.5s66.667 -74.5 140 -74.5c23.333 0 47.5 3.83301 72.5 11.5s54 19.334 87 35.001l77.5 37.5c0 50 1 82.667 3 98l6 205
c2 62 0 105.833 -6 131.5s-17.5 42.167 -34.5 49.5s-45.167 11.666 -84.5 12.999l-2 37l266 62c-3.33301 -60 -6.83301 -117.167 -10.5 -171.5s-7 -112.5 -10 -174.5s-4.5 -108 -4.5 -138c0 -97.333 6.33301 -165.333 19 -204c34.667 1.33301 72 9.33301 112 24v-45
c-75.333 -20.667 -151.666 -45.334 -228.999 -74.001c-11.333 37.333 -20.333 84.666 -27 141.999c-163.333 -83.333 -276.666 -125 -339.999 -125c-42.667 0 -85.334 20.333 -128.001 61s-62 119.334 -58 236.001l8 225c1.33301 40 -0.166992 70.5 -4.5 91.5
s-17.166 31.5 -38.499 31.5c-12 0 -37.333 -9 -76 -27zM418.998 1245l196 -356h-47l-289 356h140z" />
    <glyph glyph-name="uacute" unicode="&#xfa;" horiz-adv-x="938" 
d="M20 606l-0.00195312 41.001l222 123l20 8c9.33301 0 14 -6 14 -18l-12 -172c-8 -136 -12 -220 -12 -252c0 -75.333 10 -137.833 30 -187.5s66.667 -74.5 140 -74.5c23.333 0 47.5 3.83301 72.5 11.5s54 19.334 87 35.001l77.5 37.5c0 50 1 82.667 3 98l6 205
c2 62 0 105.833 -6 131.5s-17.5 42.167 -34.5 49.5s-45.167 11.666 -84.5 12.999l-2 37l266 62c-3.33301 -60 -6.83301 -117.167 -10.5 -171.5s-7 -112.5 -10 -174.5s-4.5 -108 -4.5 -138c0 -97.333 6.33301 -165.333 19 -204c34.667 1.33301 72 9.33301 112 24v-45
c-75.333 -20.667 -151.666 -45.334 -228.999 -74.001c-11.333 37.333 -20.333 84.666 -27 141.999c-163.333 -83.333 -276.666 -125 -339.999 -125c-42.667 0 -85.334 20.333 -128.001 61s-62 119.334 -58 236.001l8 225c1.33301 40 -0.166992 70.5 -4.5 91.5
s-17.166 31.5 -38.499 31.5c-12 0 -37.333 -9 -76 -27zM382.998 889.001l197 356h139l-288 -356h-48z" />
    <glyph glyph-name="ucircumflex" unicode="&#xfb;" horiz-adv-x="938" 
d="M20 606l-0.00195312 41.001l222 123l20 8c9.33301 0 14 -6 14 -18l-12 -172c-8 -136 -12 -220 -12 -252c0 -75.333 10 -137.833 30 -187.5s66.667 -74.5 140 -74.5c23.333 0 47.5 3.83301 72.5 11.5s54 19.334 87 35.001l77.5 37.5c0 50 1 82.667 3 98l6 205
c2 62 0 105.833 -6 131.5s-17.5 42.167 -34.5 49.5s-45.167 11.666 -84.5 12.999l-2 37l266 62c-3.33301 -60 -6.83301 -117.167 -10.5 -171.5s-7 -112.5 -10 -174.5s-4.5 -108 -4.5 -138c0 -97.333 6.33301 -165.333 19 -204c34.667 1.33301 72 9.33301 112 24v-45
c-75.333 -20.667 -151.666 -45.334 -228.999 -74.001c-11.333 37.333 -20.333 84.666 -27 141.999c-163.333 -83.333 -276.666 -125 -339.999 -125c-42.667 0 -85.334 20.333 -128.001 61s-62 119.334 -58 236.001l8 225c1.33301 40 -0.166992 70.5 -4.5 91.5
s-17.166 31.5 -38.499 31.5c-12 0 -37.333 -9 -76 -27zM432.998 1245h90l199 -356h-47l-195 215l-199 -215h-47z" />
    <glyph glyph-name="udieresis" unicode="&#xfc;" horiz-adv-x="938" 
d="M20 606l-0.00195312 41.001l222 123l20 8c9.33301 0 14 -6 14 -18l-12 -172c-8 -136 -12 -220 -12 -252c0 -75.333 10 -137.833 30 -187.5s66.667 -74.5 140 -74.5c23.333 0 47.5 3.83301 72.5 11.5s54 19.334 87 35.001l77.5 37.5c0 50 1 82.667 3 98l6 205
c2 62 0 105.833 -6 131.5s-17.5 42.167 -34.5 49.5s-45.167 11.666 -84.5 12.999l-2 37l266 62c-3.33301 -60 -6.83301 -117.167 -10.5 -171.5s-7 -112.5 -10 -174.5s-4.5 -108 -4.5 -138c0 -97.333 6.33301 -165.333 19 -204c34.667 1.33301 72 9.33301 112 24v-45
c-75.333 -20.667 -151.666 -45.334 -228.999 -74.001c-11.333 37.333 -20.333 84.666 -27 141.999c-163.333 -83.333 -276.666 -125 -339.999 -125c-42.667 0 -85.334 20.333 -128.001 61s-62 119.334 -58 236.001l8 225c1.33301 40 -0.166992 70.5 -4.5 91.5
s-17.166 31.5 -38.499 31.5c-12 0 -37.333 -9 -76 -27zM567.998 1014c0 21.333 7.66602 39.668 22.999 55.001s33 23 53 23c22 0 40.5 -7.83301 55.5 -23.5s22.5 -33.834 22.5 -54.501c0 -20 -7.66699 -37.667 -23 -53s-33.666 -23 -54.999 -23
c-20.667 0 -38.5 7.5 -53.5 22.5s-22.5 32.833 -22.5 53.5zM249.997 1014c0 20.667 7.49902 38.834 22.499 54.501s33.5 23.5 55.5 23.5c22.667 0 41 -7.83301 55 -23.5s21 -33.834 21 -54.501c0 -19.333 -7.16699 -36.833 -21.5 -52.5s-32.5 -23.5 -54.5 -23.5
c-21.333 0 -39.666 7.66699 -54.999 23s-23 33 -23 53z" />
    <glyph glyph-name="yacute" unicode="&#xfd;" horiz-adv-x="831" 
d="M23 698l-0.00292969 31.001c32.667 -4 78.334 -6 137.001 -6c68.667 0 137 4 205 12l-3 -37c-27.333 -5.33301 -47 -11.5 -59 -18.5s-18 -20.5 -18 -40.5c0 -32 14.333 -101.333 43 -208s62.667 -212.667 102 -318l66 118c28.667 49.333 62.667 118 102 206
s59 148.333 59 181c0 46.667 -46.333 75.667 -139 87l14 32c79.333 -8 148.333 -12 207 -12c43.333 0 76.333 2 99 6l-2 -33c-18 -2.66699 -34.167 -9.5 -48.5 -20.5s-27.666 -26.333 -39.999 -46s-25.833 -44.5 -40.5 -74.5l-109 -225
c-1.33301 -3.33301 -26.666 -52.666 -75.999 -147.999c-71.333 -140 -124.833 -251.333 -160.5 -334s-61.667 -151.334 -78 -206.001s-35.166 -127 -56.499 -217h-213v34c44 10 79.333 25.5 106 46.5s50.667 49.667 72 86s48 91.166 80 164.499l78 174
c-38 143.333 -73 269.333 -105 378s-62.333 197 -91 265c-13.333 34.667 -26.833 60.5 -40.5 77.5s-26.334 27.667 -38.001 32s-29.167 8.83301 -52.5 13.5zM338.997 889.001l197 356h139l-288 -356h-48z" />
    <glyph glyph-name="thorn" unicode="&#xfe;" horiz-adv-x="981" 
d="M43 1212l-1.99902 31.002c3.33301 0 13 4 29 12c112.667 49.333 193 90.333 241 123h31c-32 -114.667 -45.667 -351.334 -41 -710.001l86 34c20.667 10 53.334 21.833 98.001 35.5s79 20.5 103 20.5c50.667 0 101.167 -16.333 151.5 -49s91.166 -76.667 122.499 -132
s47 -114.666 47 -177.999c0 -77.333 -18 -142.833 -54 -196.5s-80.5 -95.667 -133.5 -126s-103.833 -51.333 -152.5 -63s-88.667 -17.5 -120 -17.5c-40 0 -89.333 9.66699 -148 29c-2.66699 -113.333 -4 -188 -4 -224v-182c0 -42.667 1.66699 -73 5 -91
s9.5 -29.5 18.5 -34.5s24.5 -8.16699 46.5 -9.5l73 -4c16.667 0 25 -6.33301 25 -19c0 -10.667 -4.66699 -16 -14 -16h-99c-22.667 0 -118 -5.33301 -286 -16l-5 30c34 2.66699 56.667 7.5 68 14.5s20.333 18.5 27 34.5c10.667 27.333 17.667 85.666 21 174.999s5 182 5 278
l2 125c2 181.333 2.33301 399.166 1 653.499s-9 400.5 -23 438.5c-8.66699 26 -33.334 39 -74.001 39c-6.66699 0 -21.667 -1.66699 -45 -5zM299.001 627.002l-2 -505.998l92 -31c37.333 -12.667 67 -21.667 89 -27s41 -8 57 -8c32 0 68.667 8.66699 110 26
s77 45.166 107 83.499s45 87.166 45 146.499c0 71.333 -16.167 135.5 -48.5 192.5s-72 101.667 -119 134s-90.167 48.5 -129.5 48.5c-16.667 0 -39.167 -4.5 -67.5 -13.5s-72.833 -24.167 -133.5 -45.5z" />
    <glyph glyph-name="ydieresis" unicode="&#xff;" horiz-adv-x="831" 
d="M23 698l-0.00292969 31.001c32.667 -4 78.334 -6 137.001 -6c68.667 0 137 4 205 12l-3 -37c-27.333 -5.33301 -47 -11.5 -59 -18.5s-18 -20.5 -18 -40.5c0 -32 14.333 -101.333 43 -208s62.667 -212.667 102 -318l66 118c28.667 49.333 62.667 118 102 206
s59 148.333 59 181c0 46.667 -46.333 75.667 -139 87l14 32c79.333 -8 148.333 -12 207 -12c43.333 0 76.333 2 99 6l-2 -33c-18 -2.66699 -34.167 -9.5 -48.5 -20.5s-27.666 -26.333 -39.999 -46s-25.833 -44.5 -40.5 -74.5l-109 -225
c-1.33301 -3.33301 -26.666 -52.666 -75.999 -147.999c-71.333 -140 -124.833 -251.333 -160.5 -334s-61.667 -151.334 -78 -206.001s-35.166 -127 -56.499 -217h-213v34c44 10 79.333 25.5 106 46.5s50.667 49.667 72 86s48 91.166 80 164.499l78 174
c-38 143.333 -73 269.333 -105 378s-62.333 197 -91 265c-13.333 34.667 -26.833 60.5 -40.5 77.5s-26.334 27.667 -38.001 32s-29.167 8.83301 -52.5 13.5zM514.997 1014c0 21.333 7.66602 39.668 22.999 55.001s33 23 53 23c22 0 40.5 -7.83301 55.5 -23.5
s22.5 -33.834 22.5 -54.501c0 -20 -7.66699 -37.667 -23 -53s-33.666 -23 -54.999 -23c-20.667 0 -38.5 7.5 -53.5 22.5s-22.5 32.833 -22.5 53.5zM196.996 1014c0 20.667 7.49902 38.834 22.499 54.501s33.5 23.5 55.5 23.5c22.667 0 41 -7.83301 55 -23.5
s21 -33.834 21 -54.501c0 -19.333 -7.16699 -36.833 -21.5 -52.5s-32.5 -23.5 -54.5 -23.5c-21.333 0 -39.666 7.66699 -54.999 23s-23 33 -23 53z" />
    <glyph glyph-name="dotlessi" unicode="&#x131;" horiz-adv-x="492" 
d="M66 -4l4.00195 30.9971c56.667 5.33301 88.667 15.333 96 30c3.33301 6 6.33301 29.833 9 71.5s4.83398 91.334 6.50098 149.001s2.5 90.167 2.5 97.5c0 94.667 -1.5 155.334 -4.5 182.001s-8.83301 45 -17.5 55c-2.66699 3.33301 -19.334 6.66602 -50.001 9.99902
s-46 7.66602 -46 12.999c0 10.667 6 17.334 18 20.001c79.333 24.667 157 68.334 233 131.001c4.66699 0 11 -1.33301 19 -4c-6.66699 -27.333 -12.334 -67.333 -17.001 -120s-8.5 -108 -11.5 -166s-4.5 -109.333 -4.5 -154c0 -33.333 1.16699 -81.166 3.5 -143.499
s6.5 -104.5 12.5 -126.5c5.33301 -12 12 -19.667 20 -23s24 -6 48 -8c23.333 -0.666992 46.666 -2.66699 69.999 -6l12 -29z" />
    <glyph glyph-name="OE" unicode="&#x152;" horiz-adv-x="2005" 
d="M1937 295l30.998 2.00488c-4 -44 -12.667 -93 -26 -147s-33.333 -106 -60 -156c-13.333 0 -61.333 0.666992 -144 2s-131.667 2 -147 2h-501c-83.333 0 -175 -4 -275 -12c-85.333 -6 -133 -9 -143 -9c-75.333 0 -150.666 16.667 -225.999 50s-142.833 80 -202.5 140
s-107 131.333 -142 214s-52.5 170 -52.5 262c0 118 31 228 93 330s147.167 182.833 255.5 242.5s227.833 89.5 358.5 89.5c28 0 58 -1.66699 90 -5c47.333 -2 98 -3.66699 152 -5s124.667 -2.33301 212 -3l330 2c173.333 1.33301 287.333 2.66602 342 3.99902
c4 -4 6.66699 -7.33301 8 -10c0 -4.66699 -1.33301 -18.334 -4 -41.001s-4 -36.334 -4 -41.001c-2 -45.333 -6 -80 -12 -104s-15 -46 -27 -66l-33 13c8.66699 27.333 13 51.666 13 72.999c0 34.667 -13.667 61 -41 79s-63 29.5 -107 34.5s-100 7.5 -168 7.5
c-50 0 -102.5 -1.16699 -157.5 -3.5s-99.167 -7.16602 -132.5 -14.499c-12.667 -105.333 -19 -251 -19 -437v-100c28 -2.66699 63.667 -4 107 -4c130 0 219 0.5 267 1.5s86.667 4.5 116 10.5c22.667 4 43.667 45 63 123h33c-2 -108.667 -3 -186.667 -3 -234
c0 -48 0.333008 -95.667 1 -143h-35c0 62.667 -8 106.334 -24 131.001s-49.5 40.5 -100.5 47.5s-143.167 10.5 -276.5 10.5c-42.667 0 -91.334 -2 -146.001 -6c-4 -40.667 -6 -110.334 -6 -209.001c0 -156 6 -269.333 18 -340c59.333 -18 136 -27 230 -27
c82.667 0 150.334 2.83301 203.001 8.5s96.834 16.667 132.501 33s66.5 41.166 92.5 74.499s48.333 76.666 67 129.999zM1053 643.005l-0.00195312 187.999c0 127.333 -2.66699 214.5 -8 261.5s-15.666 78.167 -30.999 93.5c-16 18 -53.667 33 -113 45
s-116.666 18 -171.999 18c-143.333 0 -267.166 -44.667 -371.499 -134s-156.5 -225.333 -156.5 -408c0 -92.667 16.167 -179.667 48.5 -261s76 -152.166 131 -212.499s116.667 -106.833 185 -139.5s137.166 -49 206.499 -49c68 0 152 14.333 252 43
c6.66699 36.667 12 77.5 16 122.5s6.83301 97.667 8.5 158s3.16699 151.833 4.5 274.5z" />
    <glyph glyph-name="oe" unicode="&#x153;" horiz-adv-x="1409" 
d="M1368 512l-1.99805 -33.0049c-46 -7.33301 -101.333 -17 -166 -29s-120 -22.833 -166 -32.5s-89 -19.167 -129 -28.5c-3.33301 0 -12 -2 -26 -6c1.33301 -48.667 3.66602 -86.667 6.99902 -114s10.833 -52.666 22.5 -75.999s31.167 -46 58.5 -68
c26.667 -20 56.667 -35.667 90 -47s62 -17 86 -17c21.333 0 40.5 3.83301 57.5 11.5s45.5 23.167 85.5 46.5l43 20c5.33301 0 10.166 -1.5 14.499 -4.5s6.5 -6.83301 6.5 -11.5c0 -12 -17.333 -29.5 -52 -52.5s-75.334 -43.167 -122.001 -60.5s-89.667 -26 -129 -26
c-50.667 0 -94 9.33301 -130 28s-63.333 38.834 -82 60.501s-35 43.834 -49 66.501c-25.333 -34.667 -56.5 -63.5 -93.5 -86.5s-74 -39.5 -111 -49.5s-71.833 -15 -104.5 -15c-64 0 -127 15.667 -189 47s-112.5 76.333 -151.5 135s-58.5 128.334 -58.5 209.001
c0 60 11.333 115 34 165s53 91.667 91 125s82.167 58.833 132.5 76.5s101.5 26.5 153.5 26.5c63.333 0 122.666 -13.833 177.999 -41.5s104 -69.167 146 -124.5c21.333 32 47.833 60 79.5 84s63.334 43 95.001 57s55.5 21 71.5 21c68.667 0 123.334 -19.333 164.001 -58
c40.667 -39.333 78 -95 112 -167c7.33301 -13.333 12.333 -21.166 15 -23.499s8.66699 -4.83301 18 -7.5zM877.002 425.995l311 67.999c17.333 2.66699 26 11.334 26 26.001c0 22 -9.33301 48.167 -28 78.5s-42.834 56.333 -72.501 78s-60.167 32.5 -91.5 32.5
c-91.333 0 -139.666 -94.333 -144.999 -283zM207.002 450.994c0 -39.333 5.66406 -82.333 16.9971 -129s29.166 -92 53.499 -136s55.333 -79.5 93 -106.5s80.834 -40.5 129.501 -40.5c41.333 0 80.833 12.333 118.5 37s67.834 60.5 90.501 107.5s34 103.833 34 170.5
c0 58 -11.5 115 -34.5 171s-57.167 102.333 -102.5 139s-98.666 55 -159.999 55c-41.333 0 -80.166 -10.333 -116.499 -31s-65.833 -51.167 -88.5 -91.5s-34 -88.833 -34 -145.5z" />
    <glyph glyph-name="Scaron" unicode="&#x160;" horiz-adv-x="961" 
d="M127 -4l-40.9961 1.99902c1.33301 92.667 -17 204 -55 334c16 4.66699 26.667 7.33398 32 8.00098c16 -50 28.5 -86.167 37.5 -108.5s20.667 -42 35 -59s34.166 -32.167 59.499 -45.5c43.333 -22.667 93.333 -43 150 -61s117.667 -27 183 -27c56.667 0 113.5 14 170.5 42
s85.5 89.667 85.5 185c0 48 -8.33301 89.333 -25 124s-38.5 62.667 -65.5 84s-58.333 40.333 -94 57s-81.834 35.667 -138.501 57c-78.667 28.667 -143.5 58 -194.5 88s-91.5 67 -121.5 111s-45 97.667 -45 161c0 100.667 37 184.5 111 251.5s179.667 100.5 317 100.5
c70 0 139 -7.33301 207 -22c27.333 -5.33301 44.333 -8 51 -8c20 0 40 6.66699 60 20l8 4c5.33301 0 12 -1.33301 20 -4c-2 -15.333 -3.83301 -30.5 -5.5 -45.5s-3.33398 -31.5 -5.00098 -49.5s-2.83398 -32 -3.50098 -42s-1.33398 -16.667 -2.00098 -20
c8.66699 -80.667 12.667 -124.667 12 -132l-30 -2c-5.33301 68 -27.666 121.5 -66.999 160.5s-83.666 65.5 -132.999 79.5s-96.666 21 -141.999 21c-110.667 0 -183.834 -28.833 -219.501 -86.5s-53.5 -112.167 -53.5 -163.5c0 -54 13.333 -98.833 40 -134.5
s59.834 -63.667 99.501 -84s95.5 -44.5 167.5 -72.5c81.333 -32 146.666 -61.5 195.999 -88.5s93.333 -66 132 -117s58 -114.167 58 -189.5c0 -64 -16.667 -121.667 -50 -173s-83.333 -92 -150 -122s-148.334 -45 -245.001 -45c-94 0 -191.667 13.667 -293 41
c-18 4 -29 6 -33 6c-17.333 0 -24 -11.667 -20 -35zM547.004 1383h-91l-198 356h47l196 -217l197 217h47z" />
    <glyph glyph-name="scaron" unicode="&#x161;" horiz-adv-x="662" 
d="M55 225l35 -2.00391c0 -12.667 10.833 -33.334 32.5 -62.001s50.834 -54.5 87.501 -77.5s76.667 -34.5 120 -34.5c31.333 0 62.666 6.66699 93.999 20s47 42.333 47 87c0 46.667 -16.333 84.334 -49 113.001c-32.667 28 -69.667 52.333 -111 73l-75 35
c-44 22.667 -79 46.667 -105 72c-26 24.667 -39 56.667 -39 96c0 30.667 11 62.834 33 96.501s53.833 61.5 95.5 83.5s88.834 33 141.501 33c32 0 85.333 -5 160 -15l33 -170h-35c-6 23.333 -19.833 45.5 -41.5 66.5s-47 38.833 -76 53.5s-53.833 22 -74.5 22
c-35.333 0 -64 -11 -86 -33s-33 -50 -33 -84c0 -27.333 8 -49 24 -65c16 -16.667 46.333 -36 91 -58l61 -29c55.333 -26 102.666 -56.333 141.999 -91c39.333 -35.333 59 -84 59 -146c0 -23.333 -4.83301 -48.166 -14.5 -74.499s-24.167 -45.166 -43.5 -56.499
c-55.333 -35.333 -101 -58.166 -137 -68.499s-72.667 -15.5 -110 -15.5c-13.333 0 -32.333 1.66699 -57 5s-42 6 -52 8s-27.333 6.66699 -52 14s-40.667 12 -48 14c5.33301 26.667 8 45.667 8 57c0 16.667 -2.83301 39.5 -8.5 68.5s-11.167 50.5 -16.5 64.5zM381 888.996
h-91l-198 356h47l196 -217l197 217h47z" />
    </font>
</defs>
</svg>
